<?xml version="1.0" standalone="no"?>
<!DOCTYPE svg PUBLIC "-//W3C//DTD SVG 20010904//EN"
 "http://www.w3.org/TR/2001/REC-SVG-20010904/DTD/svg10.dtd">
<svg version="1.0" xmlns="http://www.w3.org/2000/svg"
 width="520.000000pt" height="520.000000pt" viewBox="0 0 520.000000 520.000000"
 preserveAspectRatio="xMidYMid meet">
<metadata>
Created by potrace 1.11, written by Peter Selinger 2001-2013
</metadata>
<g transform="translate(0.000000,520.000000) scale(0.100000,-0.100000)"
fill="#000000" stroke="none">
<path d="M0 2600 l0 -2600 2600 0 2600 0 0 2600 0 2600 -2600 0 -2600 0 0
-2600z m1807 2224 c41 -31 71 -80 78 -129 9 -54 -22 -129 -59 -147 -28 -12
-35 -28 -13 -28 15 0 59 -45 76 -77 25 -49 8 -156 -33 -202 -40 -44 -73 -51
-261 -51 l-175 0 0 331 0 331 179 -4 c163 -3 182 -5 208 -24z m1023 -54 l0
-80 -130 0 -130 0 0 -45 0 -45 105 0 105 0 0 -75 0 -75 -106 0 -105 0 3 -52 3
-53 128 -3 127 -3 0 -74 0 -75 -215 0 -215 0 0 330 0 330 215 0 215 0 0 -80z
m921 -245 c49 -176 89 -323 89 -327 0 -5 -40 -8 -89 -8 -89 0 -89 0 -95 28 -4
15 -12 44 -17 65 l-10 38 -77 -3 -77 -3 -16 -60 -16 -60 -71 -3 c-40 -2 -72
-1 -72 2 0 9 172 641 177 649 3 4 46 6 95 5 l91 -3 88 -320z m-2161 -870 c0
-222 1 -236 20 -255 28 -28 90 -27 116 1 17 19 19 41 22 255 l3 235 67 -3 67
-3 3 -205 c4 -318 -12 -382 -111 -433 -90 -46 -246 -28 -310 37 -50 50 -57 93
-57 365 l0 241 90 0 90 0 0 -235z m1220 155 l0 -80 -60 0 -60 0 0 -250 0 -250
-80 0 -80 0 0 250 0 250 -65 0 -65 0 0 80 0 80 205 0 205 0 0 -80z m850 -250
l0 -330 -90 0 -90 0 0 330 0 330 90 0 90 0 0 -330z m-1770 -705 l0 -75 -125 0
-125 0 0 -55 0 -55 95 0 95 0 0 -75 0 -75 -95 0 -95 0 0 -125 0 -125 -85 0
-85 0 0 330 0 330 210 0 210 0 0 -75z m660 -160 c0 -222 1 -236 20 -255 12
-12 33 -20 55 -20 22 0 43 8 55 20 19 19 20 33 20 255 l0 235 71 0 70 0 -3
-268 -3 -269 -29 -41 c-41 -60 -102 -86 -196 -87 -93 0 -171 34 -210 91 -25
37 -25 39 -28 306 l-3 268 90 0 91 0 0 -235z m1020 -15 l0 -250 110 0 110 0 0
-80 0 -80 -200 0 -200 0 0 330 0 330 90 0 90 0 0 -250z m105 -714 c87 -37 151
-137 164 -257 19 -180 -44 -326 -164 -380 -64 -29 -160 -26 -226 9 -104 54
-154 158 -152 317 2 214 122 347 297 329 27 -3 64 -11 81 -18z m-1923 3 c89
-19 158 -106 158 -200 0 -47 -29 -125 -57 -151 -43 -42 -94 -58 -178 -58 l-75
0 0 -120 0 -120 -90 0 -90 0 0 330 0 330 140 0 c76 0 163 -5 192 -11z m1078
-69 l0 -80 -130 0 -130 0 0 -45 0 -45 105 0 105 0 0 -75 0 -75 -106 0 -105 0
3 -52 3 -53 128 -3 127 -3 0 -74 0 -75 -215 0 -215 0 0 330 0 330 215 0 215 0
0 -80z m-1023 -908 c111 -59 135 -237 44 -332 -42 -45 -89 -60 -183 -60 l-68
0 0 -120 0 -120 -90 0 -90 0 0 331 0 331 173 -4 c155 -3 176 -5 214 -26z m803
-222 l0 -250 115 0 115 0 0 -80 0 -80 -205 0 -205 0 0 330 0 330 90 0 90 0 0
-250z m1180 175 l0 -75 -130 0 -130 0 0 -50 0 -50 105 0 105 0 0 -75 0 -75
-105 0 -105 0 0 -50 0 -50 130 0 130 0 0 -80 0 -80 -215 0 -215 0 0 330 0 330
215 0 215 0 0 -75z"/>
<path d="M1585 4697 c-4 -8 -5 -34 -3 -58 l3 -44 43 -3 c56 -4 92 18 92 57 0
38 -21 53 -80 59 -38 3 -51 1 -55 -11z"/>
<path d="M1582 4393 l3 -58 59 0 c63 1 86 17 86 60 0 37 -31 55 -94 55 l-57 0
3 -57z"/>
<path d="M3541 4600 c-40 -150 -41 -140 14 -140 42 0 45 2 40 23 -3 12 -14 54
-24 92 l-18 70 -12 -45z"/>
<path d="M3542 1830 c-68 -28 -83 -283 -21 -349 28 -29 75 -25 100 9 28 37 41
123 30 206 -9 69 -33 134 -50 134 -5 0 -15 2 -23 4 -7 3 -23 1 -36 -4z"/>
<path d="M1600 1766 l0 -66 49 0 c59 0 81 18 81 64 0 43 -16 55 -79 63 l-51 6
0 -67z"/>
<path d="M1600 805 l0 -65 43 0 c58 0 87 22 87 65 0 43 -29 65 -87 65 l-43 0
0 -65z"/>
</g>
</svg>
