<svg xmlns="http://www.w3.org/2000/svg" width="263" height="217" viewBox="0 0 263 217">
  <g fill="none" fill-rule="evenodd">
    <path fill="#9B9B9B" fill-rule="nonzero" d="M39.7955795 216.314133L39.7955795 210.8496 42.1287672 210.8496C42.7448781 210.910468 43.348357 210.646378 43.7228706 210.152 44.0271994 209.774133 44.0706749 209.28 44.0706749 208.306267L44.0706749 202.841733 33.4916252 202.841733 33.4916252 208.306267C33.4017345 208.949534 33.5292846 209.60446 33.8539214 210.166533 34.2230424 210.641664 34.8059333 210.898433 35.4045492 210.8496L37.7232451 210.8496 37.7232451 216.314133 17.9418712 216.314133 17.9418712 210.8496 20.550404 210.8496C21.1705486 210.909971 21.7781095 210.64649 22.1589992 210.152 22.4488362 209.774133 22.4923118 209.294533 22.4923118 208.306267L22.4923118 192.3196C22.4923118 191.186 22.4923118 190.779067 22.1589992 190.473867 21.7857527 189.964119 21.1798375 189.679455 20.550404 189.718133L17.9418712 189.718133 17.9418712 184.311733 37.7232451 184.311733 37.7232451 189.718133 35.4045492 189.718133C34.7880203 189.683637 34.197012 189.969011 33.8394295 190.473867 33.5640844 190.779067 33.4916252 191.200533 33.4916252 192.3196L33.4916252 197.2028 44.0706749 197.2028 44.0706749 192.3196C44.0706749 191.186 43.9982157 190.779067 43.7373624 190.4884 43.3691899 189.970994 42.7614494 189.679981 42.1287672 189.718133L39.7955795 189.718133 39.7955795 184.311733 59.6349208 184.311733 59.6349208 189.718133 56.9829124 189.718133C56.3658267 189.680815 55.7735228 189.966815 55.4177927 190.473867 55.1424476 190.7936 55.0699883 191.186 55.0699883 192.3196L55.0699883 208.306267C54.9800976 208.949534 55.1076478 209.60446 55.4322846 210.166533 55.799716 210.643836 56.3838446 210.90115 56.9829124 210.8496L59.6349208 210.8496 59.6349208 216.314133 39.7955795 216.314133zM82.836371 216.9536C71.6921391 216.9536 64.4896902 210.384533 64.4896902 200.2112 64.4896902 190.459333 72.0979109 183.657733 82.9957814 183.657733 94.2704399 183.657733 101.545348 190.154133 101.545348 200.2112 101.545348 210.268267 94.0240785 216.9536 82.836371 216.9536M82.836371 189.1804C78.329406 189.1804 76.4019901 192.479467 76.4019901 200.2112 76.4019901 207.942933 78.329406 211.3728 83.0827325 211.3728 84.6225294 211.482688 86.1403776 210.957793 87.2853687 209.919467 88.9374395 208.248133 89.6620319 205.2688 89.6330482 200.2548 89.6330482 195.516933 88.8649802 189.224 82.836371 189.224M131.992723 216.314133L118.09504 197.144667 118.09504 208.306267C118.09504 209.4108 118.181991 209.7596 118.471828 210.137467 118.832715 210.642006 119.435607 210.913806 120.051439 210.8496L123.65991 210.8496 123.65991 216.314133 106.356642 216.314133 106.356642 210.8496 109.037634 210.8496C109.657779 210.909971 110.26534 210.64649 110.646229 210.152 110.962662 209.592315 111.084987 208.943158 110.994034 208.306267L110.994034 192.3196C110.994034 191.186 110.994034 190.779067 110.660721 190.473867 110.279438 189.965995 109.670545 189.682486 109.037634 189.718133L106.429101 189.718133 106.429101 184.311733 121.920888 184.311733 136.688082 204.542133 136.688082 192.3196C136.688082 191.186 136.688082 190.866267 136.354769 190.4884 135.976671 189.975054 135.367248 189.685841 134.731682 189.718133L131.166687 189.718133 131.166687 184.311733 148.469955 184.311733 148.469955 189.718133 145.817947 189.718133C145.201418 189.683637 144.61041 189.969011 144.252827 190.473867 143.934006 190.808133 143.861547 191.200533 143.861547 192.3196L143.861547 216.328667 131.992723 216.314133zM157.585328 216.314133L157.585328 210.8496 160.208353 210.8496C160.829198 210.872008 161.426489 210.609945 161.83144 210.137467 162.125472 209.575202 162.241737 208.936451 162.164752 208.306267L162.164752 192.3196C162.245072 191.687666 162.123289 191.046474 161.816948 190.4884 161.42937 189.994743 160.834819 189.710045 160.208353 189.718133L157.585328 189.718133 157.585328 184.311733 192.829505 184.311733 192.829505 197.653333 186.134271 197.653333 186.134271 194.746667C186.257885 193.355961 185.720906 191.988129 184.685086 191.0552 183.534826 190.185209 182.125695 189.729515 180.685336 189.761733L174.990039 189.761733C174.360423 189.757884 173.763209 190.041303 173.366952 190.532 173.086271 191.098616 172.975521 191.734722 173.048131 192.3632L173.048131 197.5952 175.323351 197.5952C175.859184 197.662547 176.395535 197.474287 176.772536 197.086533 176.888471 196.9848 177.221784 196.6796 177.221784 195.531467L177.221784 192.900933 182.830129 192.900933 182.830129 207.536 177.149324 207.536 177.149324 204.92C177.149324 204.077067 177.062373 203.713733 176.80152 203.466667 176.405097 203.004065 175.814202 202.756256 175.207417 202.798133L173.004656 202.798133 173.004656 208.335333C172.917378 209.01524 173.00725 209.706226 173.265509 210.340933 173.722021 210.755422 174.335051 210.951517 174.946563 210.878667L181.178058 210.878667C182.450655 210.895497 183.698529 210.525636 184.757545 209.817733 185.652138 209.162099 186.188561 208.12384 186.20673 207.0128L186.20673 202.522 192.771538 202.522 192.771538 216.3432 157.585328 216.314133zM209.944379 216.314133L209.944379 210.8496 214.393376 210.8496C215.014828 210.898355 215.619146 210.63082 216.001972 210.137467 216.277317 209.788667 216.335284 209.338133 216.335284 208.306267L216.335284 204.760133 206.988041 191.287733C206.470107 190.267791 205.403527 189.647632 204.263574 189.7036L202.568028 189.7036 202.568028 184.2972 222.610255 184.2972 222.610255 189.7036 219.900279 189.7036C218.784407 189.7036 218.88585 190.532 219.277129 191.069733L224.05944 198.045733 229.073619 190.779067C229.464899 190.154133 229.16057 189.7036 228.45047 189.7036L226.088298 189.7036 226.088298 184.2972 241.69602 184.2972 241.69602 189.7036 239.02952 189.7036C237.928139 189.7036 237.362957 190.2704 236.783283 191.2732L227.378073 204.92 227.378073 208.349867C227.378073 209.4544 227.450532 209.8032 227.754861 210.181067 228.111084 210.683221 228.708582 210.955084 229.319981 210.8932L233.797962 210.8932 233.797962 216.357733 209.944379 216.314133z"/>
    <path fill="#000000" fill-rule="nonzero" d="M41.3317155 214.7736L41.3317155 212.390133 42.1287672 212.390133C43.1989383 212.448363 44.230794 211.982428 44.8967103 211.140267 45.466417 210.312374 45.7186042 209.305899 45.6068109 208.306267L45.6068109 201.3012 31.9554892 201.3012 31.9554892 208.306267C31.8430488 209.299313 32.0898948 210.299838 32.6510979 211.125733 33.310955 211.969033 34.3368288 212.44012 35.4045492 212.390133L36.1871091 212.390133 36.1871091 214.7736 19.4635153 214.7736 19.4635153 212.390133 20.550404 212.390133C21.6246637 212.448249 22.660843 211.982799 23.332839 211.140267 23.8986699 210.310978 24.1457848 209.304201 24.0284478 208.306267L24.0284478 192.3196C24.1807221 191.294826 23.9257292 190.251059 23.3183472 189.412933 22.653912 188.565738 21.6242739 188.089992 20.550404 188.134L19.4635153 188.134 19.4635153 185.7796 36.1871091 185.7796 36.1871091 188.134 35.4045492 188.134C34.3367222 188.095655 33.3163225 188.577536 32.6655898 189.427467 32.078001 190.247137 31.8240618 191.260604 31.9554892 192.261467L31.9554892 198.6852 45.6068109 198.6852 45.6068109 192.261467C45.7513419 191.237066 45.497054 190.196184 44.8967103 189.3548 44.2337998 188.505669 43.2031134 188.029439 42.1287672 188.075867L41.3317155 188.075867 41.3317155 185.721467 58.0987848 185.721467 58.0987848 188.075867 56.9829124 188.075867C55.914585 188.035067 54.8931171 188.517452 54.2439529 189.369333 53.6563641 190.189003 53.4024249 191.20247 53.5338523 192.203333L53.5338523 208.19C53.421412 209.183047 53.6682579 210.183572 54.2294611 211.009467 54.8877692 211.854735 55.9147177 212.326315 56.9829124 212.273867L58.0987848 212.273867 58.0987848 214.657333 41.3317155 214.7736zM82.836371 215.413067C72.6196175 215.413067 66.0258262 209.4544 66.0258262 200.2112 66.0258262 191.3604 72.9964056 185.198267 82.9957814 185.198267 93.3284697 185.198267 100.009212 191.0116 100.009212 200.2112 100.009212 209.4108 93.0966001 215.413067 82.836371 215.413067M82.836371 187.639867C75.6918895 187.639867 74.8658541 194.819333 74.8658541 200.2112 74.8658541 206.126267 75.7933324 212.913333 83.0827325 212.913333 85.0356894 213.006441 86.943284 212.304114 88.3722574 210.965867 90.3431488 208.9748 91.1981679 205.6612 91.1691842 200.196667 91.1691842 197.101067 91.096725 187.639867 82.836371 187.639867M132.775283 214.7736L116.558904 192.4068 116.558904 208.306267C116.420608 209.336752 116.691209 210.380501 117.31248 211.212933 117.969224 212.048953 118.991987 212.510242 120.051439 212.448267L122.080298 212.448267 122.080298 214.831733 107.892778 214.831733 107.892778 212.448267 109.037634 212.448267C110.112347 212.508836 111.149597 212.042905 111.820069 211.1984 112.389776 210.370507 112.641963 209.364032 112.53017 208.3644L112.53017 192.377733C112.674701 191.353332 112.420413 190.312451 111.820069 189.471067 111.149578 188.623462 110.115584 188.148192 109.037634 188.192133L107.965237 188.192133 107.965237 185.837733 121.210787 185.837733 138.224218 209.28 138.224218 192.305067C138.368749 191.280666 138.114461 190.239784 137.514117 189.3984 136.836372 188.560124 135.807321 188.087125 134.731682 188.119467L132.702823 188.119467 132.702823 185.765067 146.933819 185.765067 146.933819 188.119467 145.817947 188.119467C144.748103 188.071135 143.723328 188.555082 143.078987 189.412933 142.451433 190.214261 142.179046 191.238636 142.325411 192.246933L142.325411 214.715467 132.775283 214.7736zM159.121464 214.7736L159.121464 212.390133 160.208353 212.390133C161.264888 212.415451 162.276472 211.961605 162.961804 211.1548 163.55269 210.308765 163.810769 209.273495 163.686397 208.248133L163.686397 192.261467C163.814967 191.237925 163.562091 190.202821 162.976296 189.3548 162.291001 188.534542 161.275361 188.065263 160.208353 188.075867L159.121464 188.075867 159.121464 185.721467 191.293369 185.721467 191.293369 196.011067 187.670407 196.011067 187.670407 194.557733C187.780722 192.704581 187.025588 190.905334 185.627056 189.689067 184.196613 188.58472 182.432103 188.005125 180.627368 188.0468L174.932071 188.0468C173.865939 188.040279 172.851948 188.508795 172.164128 189.325733 171.582095 190.175448 171.329573 191.2091 171.454028 192.2324L171.454028 199.106667 175.265384 199.106667C176.174171 199.162776 177.064107 198.830075 177.714506 198.191067 178.414567 197.48108 178.764842 196.496439 178.670969 195.5024L178.670969 194.4124 181.207042 194.4124 181.207042 206.039067 178.670969 206.039067 178.670969 204.92C178.776264 203.992862 178.486877 203.064173 177.873917 202.362133 177.19037 201.608255 176.207975 201.198196 175.192925 201.243067L171.454028 201.243067 171.454028 208.3208C171.326918 209.330694 171.541232 210.354161 172.062685 211.227467 172.814634 212.01442 173.87702 212.42461 174.961055 212.346533L181.19255 212.346533C182.814473 212.350173 184.396386 211.841699 185.714007 210.8932 186.996719 209.958543 187.764755 208.471937 187.786342 206.882L187.786342 203.975333 191.278877 203.975333 191.278877 214.715467 159.121464 214.7736zM211.480515 214.7736L211.480515 212.390133 214.378884 212.390133C215.436388 212.436471 216.454811 211.984932 217.132336 211.169333 217.72707 210.325064 217.985524 209.288287 217.856928 208.262667L217.856928 204.236933 208.248832 190.386667C207.39067 189.006887 205.885106 188.166849 204.263574 188.163067L204.089672 188.163067 204.089672 185.808667 221.074119 185.808667 221.074119 188.163067 219.900279 188.163067C219.028366 188.092362 218.184453 188.490634 217.683026 189.209467 217.21277 190.114736 217.357566 191.218337 218.045322 191.9708L224.05944 200.6908 230.33441 191.592933C230.907801 190.925453 231.010252 189.972072 230.591836 189.197401 230.17342 188.422729 229.321193 187.987946 228.45047 188.104933L227.624434 188.104933 227.624434 185.750533 240.159884 185.750533 240.159884 188.104933 239.02952 188.104933C238.297261 188.134749 237.5844 188.34972 236.957185 188.729867 236.362666 189.190695 235.869325 189.769557 235.508 190.430267L225.885413 204.324133 225.885413 208.2336C225.747117 209.264085 226.017717 210.307834 226.638989 211.140267 227.29117 211.97394 228.308538 212.435237 229.363456 212.3756L232.261826 212.3756 232.261826 214.759067 211.480515 214.7736z"/>
    <polygon fill="#9B9B9B" fill-rule="nonzero" points="245.058 184.806 245.058 187.974 244.435 187.974 244.435 184.806 243.363 184.806 243.363 184.254 246.131 184.254 246.131 184.806"/>
    <polygon fill="#9B9B9B" fill-rule="nonzero" points="250.058 187.974 250.058 185.067 249.869 185.663 249.029 187.974 248.507 187.974 247.696 185.663 247.507 185.067 247.507 187.974 246.942 187.974 246.942 184.254 247.797 184.254 248.609 186.652 248.797 187.247 248.971 186.652 249.768 184.254 250.623 184.254 250.623 187.974"/>
    <path fill="#9B9B9B" fill-rule="nonzero" d="M31.4482745,175.853333 C24.7095647,175.853333 19.115711,171.842133 17.8259364,166.101467 C17.0616042,163.04013 17.7341303,159.79634 19.6519094,157.294267 C21.1874691,155.25804 23.5840846,154.058991 26.1297659,154.053333 C29.0281357,154.053333 31.3178478,155.317733 32.0859158,157.294267 C32.5527895,158.418527 32.4219636,159.703197 31.7381114,160.7096 C30.913122,161.841728 29.5852471,162.493978 28.1876084,162.4536 C27.2887028,162.443808 26.4030033,162.235395 25.5935675,161.8432 C25.0768111,161.592535 24.5148751,161.449177 23.9414967,161.421733 C23.5041195,161.389639 23.081534,161.587777 22.8256243,161.944933 C22.1871778,163.327748 22.1871778,164.922119 22.8256243,166.304933 C23.7096271,169.0372 26.8978339,171.013733 30.4193532,171.013733 C33.350032,171.103694 36.0742644,169.506247 37.4334081,166.9008 C38.882593,164.124933 39.2738729,159.779467 38.5347886,154.6492 C37.346457,146.437867 38.302919,139.6508 41.1578133,135.436133 C39.3173485,135.2908 37.6942614,135.218133 36.2160928,135.218133 C30.9555516,135.218133 27.6369182,136.133733 26.0717985,138.008533 C24.886174,139.580172 24.4855159,141.610627 24.9849098,143.516667 C25.0781357,144.033092 24.9403607,144.564512 24.6081217,144.97 C24.2723555,145.355107 23.7849217,145.572955 23.2748716,145.565867 C23.0384673,145.562679 22.8039193,145.523476 22.5792629,145.4496 C20.9524314,144.853543 19.6044334,143.672611 18.7968903,142.136 C17.7324728,139.642436 17.9940547,136.778659 19.492499,134.520533 C21.6372927,131.134267 25.825437,129.1868 31.0859782,129.1868 C32.1373276,129.191739 33.1874431,129.259683 34.2307095,129.390267 L35.6798944,129.5792 C40.8144679,130.378672 45.9928001,130.864014 51.1861728,131.032533 C53.7205775,131.146959 56.2545622,130.797292 58.6639669,130.000667 C58.9500712,129.887096 59.2547642,129.827954 59.5624615,129.826267 C60.187372,129.818342 60.7570829,130.184001 61.0116464,130.7564 C61.2818674,131.392884 61.1254057,132.13094 60.6203665,132.602133 C57.7219967,135.7268 53.7367382,136.002933 50.2007271,136.002933 L49.2297732,136.002933 C47.1719306,138.648 47.7805883,143.167867 48.3602622,148.356267 C48.7692311,151.245988 49.0015346,154.158094 49.055871,157.076267 C49.055871,167.2496 44.5054304,171.6096 40.6940741,173.4844 C37.8250693,174.97284 34.6492087,175.769078 31.4192908,175.809733"/>
    <path fill="#000000" fill-rule="nonzero" d="M26.1297659,155.506667 C21.3474557,155.506667 17.9998386,160.259067 19.2171539,165.68 C20.7967654,172.772267 29.9701059,177.1904 40.0854165,172.147333 C44.4329712,169.9528 47.6646535,165.345733 47.6646535,157.0036 C47.6646535,147.8912 44.2445771,138.938667 48.6211155,134.433333 C52.0267,134.433333 56.6495999,134.724 59.5914452,131.526667 C60.0117089,131.090667 59.5044941,131.090667 59.1711816,131.221467 C53.5483442,133.474133 42.5490308,131.860933 34.0278236,130.7564 C22.0140808,129.201333 18.0867897,137.122 20.1156485,141.467467 C20.7567763,142.638065 21.7802659,143.551578 23.0140183,144.0544 C23.434282,144.170667 23.6516597,144.0544 23.5936923,143.691067 C22.08654,134.0264 31.3613234,133.009067 44.0271994,134.3752 C40.4766964,137.456267 38.4478375,144.301467 39.9260061,154.532933 C40.6505986,159.5324 40.418729,164.3284 38.6797071,167.612933 C34.7234323,175.170267 23.5357249,173.2228 21.4633905,166.799067 C19.8982708,161.974 21.9850971,158.631333 26.1877333,160.5788 C29.2744971,162.032133 31.6076848,159.982933 30.7671576,157.846533 C30.2889265,156.596667 28.6223639,155.506667 26.1297659,155.506667"/>
    <path fill="#9B9B9B" fill-rule="nonzero" d="M65.9533669,175.301067 C61.0934652,175.529069 56.5427762,172.909893 54.2874285,168.586667 C51.7112458,163.33504 52.1027939,157.107642 55.3163498,152.222133 C57.6350456,148.835867 61.9101411,147.644133 65.1563152,147.644133 C67.3154298,147.566901 69.4427411,148.182991 71.2284,149.402667 C73.5502947,151.32852 74.8421208,154.231354 74.7209356,157.250667 C74.8838634,162.283877 70.9571003,166.50131 65.9388751,166.6828 C64.9931295,166.682689 64.0552654,166.510338 63.1709319,166.174133 C63.2840181,167.322282 63.7270412,168.412816 64.4462146,169.313333 C65.0110207,169.935036 65.8264329,170.26641 66.6634675,170.2144 C69.2285248,170.2144 73.0253893,168.194267 77.3874358,164.517333 L77.3874358,153.355733 C77.3874358,149.984 79.2423925,148.051067 82.459583,148.051067 C84.952181,148.051067 86.1694963,148.5888 87.0969746,150.085733 C87.1868122,150.246241 87.2990498,150.393057 87.4302872,150.521733 C87.4302872,150.521733 87.7201242,150.405467 88.4157329,149.998533 C90.249392,148.724811 92.4170871,148.022085 94.647228,147.9784 C97.6325489,147.9784 99.7193751,150.318267 99.7193751,153.69 C99.7193751,153.893467 99.7193751,156.306 99.7193751,163.485467 L99.7193751,165.476533 C99.7193751,167.583867 100.038196,167.932667 100.081671,167.961733 L100.168622,167.961733 C100.671023,167.950932 101.165243,167.83198 101.617807,167.612933 C102.928818,166.880422 103.905454,165.666552 104.342275,164.226667 C104.342275,163.064 104.342275,153.413867 104.342275,153.413867 C104.342275,150.0276 106.18274,148.094667 109.39993,148.094667 C111.892528,148.094667 113.109844,148.6324 114.051814,150.129333 C114.133787,150.291056 114.24147,150.438316 114.370634,150.565333 C114.370634,150.565333 114.660471,150.449067 115.35608,150.042133 C117.190891,148.770749 119.357865,148.068256 121.587575,148.022 C124.572896,148.022 126.659722,150.361867 126.674214,153.7336 C126.674214,153.937067 126.674214,156.3496 126.674214,163.529067 L126.674214,165.520133 C126.674214,167.627467 126.993035,167.976267 127.022019,168.005333 L127.10897,168.005333 C127.61114,167.992756 128.104992,167.873893 128.558155,167.656533 C129.541164,167.138847 130.348319,166.3395 130.87685,165.360267 C129.769818,160.668053 130.776802,155.725023 133.630302,151.844267 C135.758593,148.893621 139.218733,147.207703 142.847118,147.353467 C149.904648,147.353467 152.411738,152.585467 152.411738,157.061733 C152.411738,163.267467 148.064183,166.5084 143.847055,166.5084 C142.769034,166.513785 141.700491,166.306378 140.702324,165.898 C140.919702,168.586667 142.180493,170.04 144.238335,170.04 C149.209039,170.04 155.498502,162.773333 158.367888,157.599467 C158.802644,156.8292 158.788152,156.524 158.585266,156.146133 C157.531598,153.953678 157.494489,151.407063 158.483823,149.184667 C159.490106,147.08309 161.412116,145.568999 163.686397,145.086267 C163.806762,145.072332 163.928327,145.072332 164.048693,145.086267 C164.385558,145.085325 164.710823,145.20959 164.961679,145.435067 C165.307747,145.730563 165.495528,146.171768 165.468894,146.6268 C165.193549,149.8532 166.396372,152.2076 169.468644,154.5184 C171.729373,156.2188 174.048069,158.253467 174.743677,161.479867 L177.728998,157.643067 C178.010806,157.19984 178.010806,156.63296 177.728998,156.189733 C176.683158,153.995432 176.646099,151.45228 177.627555,149.228267 C178.640364,147.126015 180.566833,145.612628 182.844621,145.129867 C182.964911,145.114668 183.086627,145.114668 183.206917,145.129867 C183.543782,145.128925 183.869047,145.25319 184.119904,145.478667 C184.460591,145.777032 184.642831,146.21781 184.612627,146.6704 C184.351773,149.8968 185.554597,152.2512 188.626869,154.562 C190.945565,156.306 193.322228,158.413333 193.945377,161.828667 C194.4381,161.247333 194.930823,160.6224 195.394562,160.026533 C195.707177,157.221409 196.702496,154.536338 198.292932,152.2076 C200.483803,149.240939 203.959206,147.506369 207.640175,147.5424 C209.847773,147.501827 212.005515,148.202671 213.770227,149.533467 C216.038353,151.473837 217.29359,154.350397 217.175811,157.337867 C217.16973,162.390295 213.15465,166.51995 208.118406,166.653733 C207.258094,166.667722 206.402793,166.519834 205.596824,166.217733 C205.610292,167.357026 205.997336,168.460196 206.698204,169.356933 C207.21572,169.858115 207.922987,170.11219 208.640112,170.054533 C212.089172,170.054533 217.407681,166.319467 219.175686,164.095867 C218.722599,159.867018 219.802912,155.61594 222.218975,152.1204 C224.260954,149.156461 227.597927,147.356149 231.189429,147.2808 C233.278998,147.29603 235.31874,147.922331 237.058628,149.082933 C239.711167,150.948167 241.221829,154.049497 241.058378,157.294267 C241.067601,159.061693 240.564094,160.793664 239.609194,162.2792 C238.133141,164.930107 235.388411,166.620196 232.363269,166.740933 C231.371841,166.748132 230.388142,166.565627 229.464899,166.2032 C229.510598,167.40281 229.9428,168.555247 230.696706,169.487733 C231.240414,169.961881 231.948525,170.202074 232.667598,170.156267 C234.489429,170.047223 236.191411,169.209503 237.391941,167.830933 C237.976222,167.124851 238.826286,166.69334 239.73962,166.6392 C240.45619,166.624492 241.119015,167.018818 241.449658,167.656533 C241.818113,168.459652 241.694119,169.403576 241.130838,170.0836 C238.606821,173.421645 234.6412,175.345289 230.464837,175.257467 C226.305249,175.149644 222.522286,172.814575 220.552412,169.138933 C216.864893,172.935158 211.850079,175.144866 206.567778,175.301067 C201.220286,175.301067 197.264011,172.1328 195.727875,166.755467 C193.83079,169.332647 191.530729,171.585307 188.916706,173.426267 C186.978707,174.717264 184.720688,175.441898 182.395374,175.519067 C180.007039,175.694111 177.738302,174.448422 176.598634,172.336267 C175.870731,170.95886 175.93151,169.296514 176.758044,167.976267 C177.378936,166.888485 178.509589,166.192814 179.757857,166.130533 C180.508948,166.123102 181.2308,166.422112 181.757732,166.958933 C182.289611,167.491391 182.327363,168.343256 181.844683,168.920933 C181.657842,169.23937 181.657842,169.634364 181.844683,169.9528 C182.194164,170.614537 182.915277,170.990589 183.656165,170.897467 C184.857762,170.843888 185.901499,170.051615 186.279189,168.9064 C186.873355,166.929867 185.134333,164.372 181.641798,162.0612 C181.483908,161.932934 181.292931,161.852292 181.091107,161.828667 C180.946189,161.828667 180.496941,161.944933 179.641922,163.049467 L178.468083,164.648133 C176.091419,167.9036 173.395935,171.6096 169.497628,173.7024 C167.603742,174.786307 165.474556,175.389973 163.295117,175.460933 C160.906782,175.635978 158.638045,174.390289 157.498377,172.278133 C156.782848,170.905312 156.815638,169.261165 157.585328,167.918133 C158.204485,166.852907 159.327264,166.182803 160.556157,166.145067 C161.347665,166.14874 162.106607,166.461526 162.671967,167.017067 C163.178568,167.572399 163.178568,168.423735 162.671967,168.979067 C162.488168,169.298327 162.488168,169.691673 162.671967,170.010933 C163.016408,170.670332 163.732259,171.04665 164.468956,170.9556 C165.670554,170.902021 166.714291,170.109749 167.091981,168.964533 C167.686147,166.988 165.947125,164.430133 162.454589,162.119333 C162.291512,161.987945 162.096388,161.902647 161.889407,161.872267 C161.744489,161.872267 161.309733,162.003067 160.440222,163.1076 C156.295554,168.790133 150.484322,175.330133 142.325411,175.330133 C138.485992,175.269875 134.932387,173.283328 132.862234,170.04 C129.963864,173.4408 127.065494,175.0976 123.732369,175.0976 C118.8776,175.0976 117.153069,171.754933 117.153069,168.9064 C117.153069,166.479333 117.153069,164.6772 117.153069,162.962267 C117.153069,161.247333 117.153069,159.576 117.153069,157.454133 C117.153069,155.332267 116.52992,155.550267 116.327034,155.550267 C115.95339,155.571852 115.588254,155.67082 115.254637,155.840933 C114.501061,156.1752 113.660534,156.887333 113.646042,159.358 L113.646042,171.0864 C113.646042,172.1764 113.646042,175.083067 110.747672,175.083067 L107.269628,175.083067 C106.429101,175.083067 104.516177,174.734267 104.371259,171.667733 C102.372923,173.69532 99.7014163,174.915939 96.8644809,175.0976 C92.0097115,175.0976 90.2851814,171.754933 90.2851814,168.9064 C90.2851814,166.479333 90.2851814,164.6772 90.2851814,162.962267 C90.2851814,161.247333 90.2851814,159.576 90.2851814,157.454133 C90.2851814,155.332267 89.6620319,155.550267 89.459146,155.550267 C89.0808306,155.571528 88.7108965,155.67046 88.3722574,155.840933 C87.6331731,156.1752 86.778154,156.887333 86.778154,159.358 L86.778154,171.0864 C86.778154,172.1764 86.778154,175.083067 83.8797842,175.083067 L80.3727567,175.083067 C79.4887539,175.083067 77.4743869,174.7052 77.4743869,171.1736 C77.4934133,171.004581 77.4934133,170.833952 77.4743869,170.664933 C76.6351591,171.052474 75.8219052,171.494248 75.0397563,171.987467 C72.663093,173.4408 69.402427,175.301067 66.0548099,175.301067 M65.7214974,152.047733 C64.9201591,152.079375 64.2089574,152.571848 63.8955244,153.312133 C62.7854904,155.743642 62.7329983,158.528423 63.7506059,161.000267 C64.0995718,161.59488 64.743993,161.95144 65.4316604,161.9304 C66.1169594,161.935052 66.7632136,161.611 67.1706823,161.0584 C68.4604568,159.372533 68.4169813,155.245067 67.4460274,153.2104 C67.143694,152.521053 66.4721469,152.068301 65.7214974,152.047733 M231.783595,151.8152 C230.984516,151.840734 230.272506,152.3281 229.957622,153.065067 C228.846878,155.501507 228.794396,158.291007 229.812704,160.767733 C230.166102,161.357756 230.8076,161.712699 231.493758,161.697867 C232.177434,161.695598 232.820765,161.373012 233.23278,160.825867 C234.522555,159.14 234.479079,155.012533 233.508125,152.977867 C233.205792,152.28852 232.534245,151.835767 231.783595,151.8152 M208.002471,151.8152 C207.20037,151.842244 206.484804,152.328188 206.162006,153.065067 C205.055923,155.50353 205.008689,158.293014 206.031579,160.767733 C206.382786,161.360031 207.025725,161.715771 207.712634,161.697867 C208.392834,161.697886 209.032721,161.37433 209.437164,160.825867 C210.74143,159.14 210.697955,155.012533 209.712509,152.977867 C209.415243,152.290795 208.748954,151.837781 208.002471,151.8152 M143.267381,151.8152 C142.468303,151.840734 141.756292,152.3281 141.441408,153.065067 C140.323662,155.499903 140.271125,158.292345 141.29649,160.767733 C141.647696,161.360031 142.290635,161.715771 142.977544,161.697867 C143.661221,161.695598 144.304551,161.373012 144.716566,160.825867 C146.006341,159.14 145.962865,155.012533 144.991911,152.977867 C144.686775,152.290878 144.016912,151.839261 143.267381,151.8152"/>
    <path fill="#000000" fill-rule="nonzero" d="M238.362895 168.586667C235.174688 171.943867 231.218413 171.943867 229.667785 170.258 228.531077 168.835317 227.939878 167.051486 228.001223 165.229467 228.001223 164.2848 228.754799 164.0668 229.450407 164.386533 232.348777 165.839867 235.957248 165.214933 238.449846 161.305467 239.253644 160.043616 239.67176 158.573496 239.652669 157.076267 239.799365 154.317809 238.538356 151.673605 236.305052 150.056667 234.241218 148.682486 231.714976 148.193426 229.289408 148.698493 226.86384 149.20356 224.740554 150.660774 223.392815 152.745333 221.086037 156.097437 220.099885 160.187961 220.624871 164.226667 218.596013 167.351333 209.263262 173.847733 205.654791 170.04 204.567328 168.643401 204.026184 166.896444 204.133147 165.127733 204.133147 164.052267 204.828756 163.9796 205.582332 164.3284 208.380079 165.512543 211.619475 164.769154 213.625308 162.482667 215.040125 161.025818 215.821753 159.066155 215.799086 157.032667 215.906352 154.476395 214.83799 152.01213 212.900716 150.347333 209.24877 147.440667 202.654979 148.298133 199.466772 152.7308 197.971062 154.979402 197.059438 157.567232 196.814763 160.259067 195.365579 162.192 193.49613 164.299333 192.467209 165.389333 193.409179 160.593333 191.249893 158.035467 187.77185 155.434 185.105349 153.4284 182.830129 150.754267 183.206917 146.278 181.292756 146.698038 179.685105 147.992623 178.862719 149.77623 178.040333 151.559837 178.098084 153.626709 179.018773 155.361333 179.565022 156.252788 179.565022 157.376545 179.018773 158.268L173.410427 165.534667C174.352398 160.738667 172.193112 158.1808 168.715068 155.579333 166.048568 153.573733 163.773348 150.8996 164.150136 146.423333 162.235975 146.843371 160.628323 148.137956 159.805938 149.921563 158.983552 151.70517 159.041302 153.772042 159.961991 155.506667 160.393916 156.417129 160.299607 157.490877 159.71563 158.3116 157.165065 162.904133 150.46983 171.493333 144.339778 171.493333 140.397995 171.493333 139.325598 167.889067 139.195172 164.822533 139.195172 163.950533 139.977732 164.0232 140.803767 164.430133 144.789026 166.450267 150.948061 164.226667 150.948061 157.163467 150.948061 153.152267 148.803268 148.879467 142.803642 148.879467 139.648655 148.682476 136.603928 150.078336 134.688207 152.6 131.97967 156.281795 131.098849 161.00366 132.297052 165.4184 131.632368 166.921784 130.470298 168.148788 129.007402 168.891867 125.833687 170.199867 125.210538 168.6448 125.210538 165.432933 125.210538 164.1976 125.210538 154.140533 125.210538 153.6464 125.210538 150.841467 123.543975 149.2864 121.5441 149.2864 119.574682 149.335317 117.663701 149.967392 116.051689 151.103067 114.283683 152.164 113.602566 152.018667 112.805515 150.7252 112.240333 149.824133 111.631675 149.359067 109.356455 149.359067 107.081234 149.359067 105.719001 150.405467 105.719001 153.239467 105.719001 153.239467 105.719001 162.904133 105.719001 164.081333 105.295677 166.141044 103.947997 167.889463 102.067055 168.8192 98.8788479 170.1272 98.2556984 168.572133 98.2556984 165.360267 98.2556984 164.124933 98.2556984 154.067867 98.2556984 153.573733 98.2556984 150.7688 96.5891357 149.213733 94.6037524 149.213733 92.6298116 149.26239 90.7141185 149.894356 89.0968498 151.0304 87.3288442 152.091333 86.6622192 151.946 85.8506756 150.652533 85.2999854 149.751467 84.6913277 149.2864 82.4161074 149.2864 80.1408871 149.2864 78.7641615 150.3328 78.7641615 153.1668L78.7641615 164.9824C72.0834191 170.795733 66.1272691 173.208267 63.3448341 170.069067 62.2646303 168.737095 61.6668833 167.077057 61.6492878 165.360267 61.6492878 164.1976 62.3448965 164.037733 63.0984727 164.386533 67.5474703 166.6392 73.3152262 163.093067 73.3152262 157.119867 73.4448921 154.551129 72.3732551 152.068561 70.4168564 150.405467 67.1561904 147.905733 59.5479697 148.516133 56.5481569 152.9052 51.4325342 160.389867 54.0410671 173.746 66.0113343 173.746 70.8516119 173.746 75.7788406 169.022667 77.749732 169.022667 78.6772104 169.022667 78.8945881 170.0836 78.8945881 171.028267 78.8945881 172.4816 79.2423925 173.513467 80.4307241 173.513467L83.9812271 173.513467C85.3289691 173.513467 85.430412 172.408933 85.430412 170.941067L85.430412 159.212667C85.430412 156.843733 86.1260208 155.186933 87.8650426 154.402133 89.6040645 153.617333 91.7778419 153.835333 91.7778419 157.3088 91.7778419 159.4452 91.7778419 161.0584 91.7778419 162.744267 91.7778419 164.430133 91.7778419 166.2904 91.7778419 168.761067 91.7778419 171.231733 93.1255838 173.528 96.9369401 173.528 100.748296 173.528 104.284308 170.04 105.805952 167.845467L105.805952 171.028267C105.805952 172.4816 106.153756 173.513467 107.342088 173.513467L110.907083 173.513467C112.254825 173.513467 112.356267 172.408933 112.356267 170.941067L112.356267 159.212667C112.356267 156.843733 113.051876 155.186933 114.790898 154.402133 116.52992 153.617333 118.703697 153.835333 118.703697 157.3088 118.703697 159.4452 118.703697 161.0584 118.703697 162.744267 118.703697 164.430133 118.703697 166.2904 118.703697 168.761067 118.703697 171.231733 120.036947 173.528 123.862796 173.528 127.688644 173.528 130.746424 170.752133 133.166563 167.322267 134.695286 171.089242 138.314234 173.581176 142.368887 173.6588 149.817697 173.6588 155.3246 167.540267 159.367826 162.032133 160.715568 160.23 161.845932 159.779467 163.251641 160.7096 172.207604 166.6392 168.091919 172.161867 164.483448 172.161867 161.367701 172.161867 160.454714 169.2552 161.585079 167.801867 160.005467 166.348533 157.237524 168.673867 158.686709 171.4788 160.135894 174.283733 163.990725 174.821467 168.72956 172.278133 172.990164 169.981867 175.85955 165.389333 178.410115 162.0176 179.743365 160.259067 180.902713 159.764933 182.308423 160.695067 191.264385 166.624667 187.1487 172.147333 183.54023 172.147333 180.424482 172.147333 179.497004 169.240667 180.64186 167.787333 179.192675 166.334 176.468207 168.935467 177.74349 171.449733 179.192675 174.240133 183.409803 174.850533 188.003719 171.972933 191.278877 169.9092 193.800459 166.348533 196.408992 163.252933L196.597386 164.778933C197.553848 169.836533 200.742055 173.644267 206.393876 173.644267 213.6398 173.644267 218.349651 168.979067 220.885725 166.3776 222.101393 170.587911 225.892778 173.526271 230.261951 173.644267 233.979564 173.735626 237.515241 172.032994 239.768604 169.066267 240.565656 167.932667 239.493259 167.278667 238.217976 168.615733M62.5187987 152.7308C63.0338164 151.510093 64.2194051 150.709881 65.5409646 150.690993 66.8625241 150.672104 68.0703705 151.438108 68.6198672 152.6436 69.7357395 154.939867 69.8951499 159.764933 68.1851117 161.988533 67.5050097 162.93966 66.3945752 163.485314 65.228337 163.441454 64.0620989 163.397595 62.9955329 162.770071 62.3883721 161.770533 61.1158494 158.884612 61.1528518 155.58727 62.489815 152.7308M140.035699 152.498267C140.547762 151.276201 141.731522 150.473048 143.053134 150.451011 144.374746 150.428973 145.584476 151.192215 146.136767 152.396533 147.25264 154.707333 147.41205 159.517867 145.702012 161.741467 145.024248 162.694063 143.915315 163.242331 142.74914 163.201398 141.582965 163.160465 140.514968 162.535786 139.905272 161.538 138.63275 158.652079 138.669752 155.354736 140.006715 152.498267M204.727313 152.498267C205.239376 151.276201 206.423136 150.473048 207.744748 150.451011 209.06636 150.428973 210.27609 151.192215 210.828381 152.396533 211.958746 154.707333 212.118156 159.517867 210.408118 161.741467 209.726116 162.687482 208.618972 163.230567 207.455653 163.189734 206.292334 163.148901 205.22576 162.529518 204.611378 161.538 203.354001 158.648979 203.39093 155.358178 204.712821 152.498267M228.508437 152.498267C229.0205 151.276201 230.20426 150.473048 231.525872 150.451011 232.847484 150.428973 234.057214 151.192215 234.609506 152.396533 235.725378 154.707333 235.884788 159.517867 234.17475 161.741467 233.496986 162.694063 232.388053 163.242331 231.221878 163.201398 230.055703 163.160465 228.987706 162.535786 228.378011 161.538 227.105488 158.652079 227.14249 155.354736 228.479454 152.498267M116.022705 117.72C116.022705 118.5484 115.848803 119.391333 115.848803 120.263333 115.840881 121.934837 115.986414 123.603522 116.283559 125.248267L116.283559 125.132 144.252827 125.132C144.527815 123.543228 144.668404 121.933989 144.673091 120.321467 144.673091 119.449467 144.571648 118.606533 144.499189 117.778133L116.022705 117.72zM130.282685 141.729067C133.181054 140.275733 140.890718 135.537867 142.644232 130.7564L117.906646 130.7564C119.732619 135.697733 127.311856 140.159467 130.282685 141.729067zM151.904523 131.308667C152.281311 128.823467 152.745051 128.213067 153.179806 125.495333 151.417441 123.571374 151.106319 120.722056 152.411738 118.4612 151.153884 115.83264 149.022183 113.72567 146.383129 112.502533 145.754999 110.203677 143.936905 108.424849 141.629802 107.851867 141.017969 106.601549 140.264233 105.426255 139.383566 104.349333L121.167312 104.349333C120.275935 105.425169 119.503363 106.594654 118.863108 107.837333 116.532452 108.39324 114.691841 110.183353 114.066306 112.502533 111.426696 113.729968 109.291642 115.835191 108.023205 118.4612 109.342151 120.7169 109.036271 123.572092 107.269628 125.495333 107.689892 128.213067 108.168123 128.823467 108.544911 131.308667 108.870261 133.239751 108.092963 135.191364 106.530544 136.366267 106.982848 136.69441 107.54999 136.821153 108.098428 136.716652 108.646866 136.61215 109.128136 136.285639 109.428914 135.814 110.052063 136.787733 111.718626 137.020267 112.327284 136.2936 109.704259 134.055467 109.530357 131.686533 111.080985 128.910667 112.414033 126.746909 112.45853 124.024815 111.19692 121.8184 114.443094 119.173333 113.385189 117.007867 116.283559 114.595333 116.46786 113.738527 116.719848 112.897786 117.037135 112.081067L117.138578 111.848533 117.051627 112.081067 143.368824 112.081067C143.686111 112.897786 143.938099 113.738527 144.1224 114.595333 147.09323 117.007867 146.006341 119.1588 149.324974 121.862 148.065268 124.067404 148.104153 126.786005 149.426417 128.954267 150.991537 131.730133 150.803143 134.099067 148.19461 136.3372 148.7453 137.063867 150.411863 136.831333 151.09298 135.8576 151.387911 136.336229 151.869753 136.668608 152.420931 136.773632 152.972109 136.878655 153.54193 136.746664 153.99135 136.409867 152.43435 135.231503 151.662886 133.280504 151.991474 131.352267L151.904523 131.308667zM172.80177 108.273333C173.984931 106.25479 173.984931 103.751877 172.80177 101.733333 171.129133 99.33224 168.682919 97.5821417 165.874666 96.7774667 166.828539 96.3407539 167.744664 95.8254777 168.613625 95.2369333 170.11033 96.1841821 171.843487 96.6879846 173.613313 96.6902667 177.320618 96.5076854 180.81674 94.9054775 183.380819 92.214 188.612377 87.2 191.38032 80.0932 189.583331 76.8522667 188.757295 75.3989333 186.916831 73.5677333 182.844621 73.5677333 181.917267 73.5711068 180.991667 73.6488658 180.076678 73.8002667 173.410427 74.8757333 164.874728 78.9596 156.541915 82.9417333 154.686958 83.8282667 152.81751 84.7293333 150.948061 85.5868 153.199451 82.7127941 154.1172 79.0101305 153.469643 75.4134667 154.18342 72.5212725 156.96203 70.6384594 159.904024 71.0534667 159.798632 70.4907148 159.456758 70.0007054 158.965704 69.7085682 158.47465 69.416431 157.881954 69.3504473 157.338967 69.5274667 157.889657 67.4782667 157.541853 66.3156 156.26657 65.9232 156.015083 68.6645792 154.754471 71.2137448 152.730559 73.0736 150.368387 75.7768 148.469955 78.3056 148.991662 83.2469333 145.803422 83.2974056 143.065166 85.5327385 142.368887 88.6533333 141.634407 88.3438848 140.846822 88.1809806 140.050191 88.1737333 141.167875 87.0521957 141.793728 85.5301582 141.789213 83.9445333 141.781223 80.6191969 139.09095 77.9277237 135.775095 77.9277333 135.546759 77.9375682 135.319268 77.9618386 135.093979 78.0004 133.036136 79.788 133.079612 83.0434667 134.180992 85.4414667 133.490924 85.2662849 132.788396 85.1448126 132.079674 85.0781333 131.939816 84.4334217 131.866968 83.7759087 131.862296 83.1161333 131.862296 79.6572 133.84768 76.2854667 138.760416 75.1228 140.579541 74.702541 142.478526 74.7879636 144.252827 75.3698667 144.660223 75.4959942 145.094449 75.2782594 145.238273 74.8757333 145.302007 74.6772318 145.284343 74.4614533 145.189179 74.2760345 145.094015 74.0906156 144.929178 73.9508045 144.731058 73.8874667 142.691129 73.2099528 140.503577 73.1143508 138.412612 73.6113333 135.752689 74.2247731 133.398806 75.7710319 131.775345 77.9713333 131.437039 77.4598575 130.86572 77.1523672 130.253701 77.1523672 129.641682 77.1523672 129.070363 77.4598575 128.732057 77.9713333 127.108596 75.7710319 124.754713 74.2247731 122.09479 73.6113333 119.999221 73.1115947 117.806263 73.2072136 115.761852 73.8874667 115.564032 73.9504319 115.40004 74.0910031 115.307223 74.2771684 115.214407 74.4633336 115.200665 74.6792449 115.269129 74.8757333 115.412953 75.2782594 115.847179 75.4959942 116.254575 75.3698667 118.02331 74.7847647 119.918527 74.699286 121.732494 75.1228 126.645231 76.2709333 128.645106 79.6717333 128.645106 83.1161333 128.637962 83.775009 128.570044 84.4318085 128.44222 85.0781333 127.724894 85.1519074 127.013234 85.2732846 126.311918 85.4414667 127.413299 83.058 127.471266 79.788 125.413423 78.0004 125.183372 77.9610634 124.951011 77.9367899 124.717815 77.9277333 122.283078 77.8949217 120.070035 79.3411309 119.116616 81.588081 118.163196 83.8350312 118.658513 86.4370329 120.37026 88.1737333 119.578475 88.182493 118.795921 88.3453748 118.066056 88.6533333 117.361473 85.5280681 114.609103 83.2970174 111.414297 83.2614667 111.936004 78.2910667 109.965112 75.7622667 107.6754 73.0881333 105.652863 71.2255227 104.388315 68.6788357 104.124897 65.9377333 102.864106 66.3301333 102.516302 67.4928 103.066992 69.542 102.524006 69.3649806 101.931309 69.4309643 101.440255 69.7231016 100.949201 70.0152388 100.607327 70.5052481 100.501935 71.068 103.443929 70.6529928 106.222539 72.5358058 106.936316 75.428 106.008838 79.0904 107.443531 82.6946667 109.443406 85.6013333 107.588449 84.7438667 105.719001 83.8428 103.849552 82.9562667 95.5312308 78.9741333 86.9810399 74.8902667 80.3292812 73.8148 79.4142236 73.6639501 78.4886681 73.5861947 77.561338 73.5822667 73.4891284 73.5822667 71.6486636 75.3698667 70.8226282 76.8668 69.0256389 80.1077333 71.7790902 87.2145333 77.0251396 92.2285333 79.5892186 94.9200108 83.0853409 96.5222187 86.7926458 96.7048 88.5622476 96.7009432 90.294979 96.1972645 91.7923337 95.2514667 92.6649182 95.8507247 93.5859445 96.3757541 94.545785 96.8210667 91.7503572 97.6117446 89.3133857 99.3471528 87.6476649 101.733333 86.4722672 103.738386 86.4722672 106.22468 87.6476649 108.229733 90.5460347 113.258267 98.1252717 112.953067 102.73368 110.366133L103.240894 110.162667C102.507525 111.786 102.150775 113.55498 102.197481 115.336533 102.038071 118.2432 102.197481 120.437733 100.328033 122.0364 101.190736 122.581761 102.327738 122.358806 102.922074 121.527733 103.207763 121.935807 103.644843 122.211785 104.135264 122.293755 104.625684 122.375726 105.12839 122.256828 105.530607 121.963733 103.388288 120.166896 102.916043 117.051131 104.429226 114.697067 107.072307 112.991238 108.876716 110.247861 109.39993 107.139733 112.935941 106.442133 113.834436 104.843467 115.718376 101.4572 117.732743 97.6930667 122.080298 97.664 123.993222 100.5852L136.441721 100.5852C138.340153 97.6785333 142.658724 97.6785333 144.774534 101.5008 146.672966 104.887067 147.571461 106.485733 151.107472 107.183333 151.623806 110.290308 153.423506 113.034526 156.063684 114.740667 157.587015 117.08976 157.120338 120.209846 154.976795 122.007333 155.379012 122.300428 155.881717 122.419326 156.372138 122.337355 156.862559 122.255385 157.299639 121.979407 157.585328 121.571333 158.179664 122.402406 159.316666 122.625361 160.179369 122.08 158.324413 120.481333 158.469331 118.2868 158.309921 115.380133 158.349686 113.599192 157.993244 111.831742 157.266508 110.206267L157.730247 110.453333C162.338655 113.040267 169.932384 113.36 172.816262 108.316933L172.80177 108.273333zM118.428352 97.0536C112.631613 97.8965333 110.776656 101.835067 104.052438 106.398533 99.5599648 109.465067 94.6617198 110.293467 91.5024967 108.0844 87.8650426 105.5556 88.7490454 100.076533 97.1108423 97.9110667 105.226278 100.1056 113.617058 95.0044 118.268942 96.8792 118.515303 96.9664 118.674714 96.9954667 118.428352 97.0972L118.428352 97.0536zM121.616559 96.8646667C119.718127 94.8881333 117.834186 94.2196 110.588262 94.9753333 99.4295381 96.138 94.647228 95.2224 91.8937767 90.7461333 86.9810399 95.3822667 79.3438354 94.2632 74.967297 84.1770667 72.3587642 78.1457333 74.5615253 75.21 80.2133464 76.2709333 89.459146 78.0149333 100.168622 85.4996 114.472077 91.124 119.109469 92.9406667 121.413673 94.6701333 122.384627 96.9373333 122.558529 97.3297333 121.833937 97.1408 121.616559 96.9373333L121.616559 96.8646667zM138.832876 96.9373333C138.615498 97.1553333 137.890905 97.3442667 138.064808 96.9373333 139.035761 94.7282667 141.339965 92.9988 145.977357 91.124 160.280812 85.4996 170.990289 78.044 180.236088 76.2709333 185.873417 75.21 188.076179 78.1457333 185.482138 84.1770667 181.134583 94.2632 173.468395 95.3822667 168.555658 90.7461333 165.744239 95.2224 161.019896 96.138 149.861173 94.9753333 142.615248 94.2196 140.731308 94.8881333 138.832876 96.8646667L138.832876 96.9373333zM156.382505 106.442133C149.672779 101.878667 147.846806 97.9401333 142.021082 97.0972 141.774721 96.9954667 141.934131 96.9664 142.166001 96.8792 146.832376 95.048 155.208665 100.1056 163.338592 97.9110667 171.700389 100.120133 172.584392 105.5992 168.946938 108.0844 165.787715 110.293467 160.88947 109.465067 156.382505 106.398533L156.382505 106.442133z"/>
    <path fill="#9B9B9B" d="M107.153694 55.2266667C108.083059 54.5948221 108.628875 53.532909 108.602879 52.4072L106.718938 6.322C106.646479 4.76693333 106.545036 4.21466667 105.603066 3.51706667 104.153881 2.398 104.414734.6104 106.487069.4796L115.848803 0 116.515428 0C125.210538 0 134.253451 7.26666667 134.891093 23.3550667 135.282373 33.4412 133.818696 41.9577333 130.659473 48.0617333 127.761103 53.7297333 123.413548 56.9561333 118.457336 57.1450667L107.936254 57.5810667C107.384138 57.5636276 106.901365 57.2029531 106.726684 56.6774106 106.552004 56.1518681 106.722435 55.5728355 107.153694 55.2266667M117.515366 6.30746667L119.181928 50.1254667C119.181928 51.6950667 120.442719 51.3462667 120.949934 50.8085333 122.949809 48.6430667 124.167124 41.2456 124.007714 37.3070667L123.196171 16.6261333C123.007776 11.4958667 121.631051 5.5372 118.41386 5.2756 117.689268 5.2756 117.486382 5.43546667 117.529858 6.30746667M261.491886 57.1014667C260.448472 57.1886667 260.260078 56.68 259.260141 55.1685333 258.254147 53.4351271 256.878394 51.9462524 255.231407 50.8085333 250.753425 48.1053333 243.449534 50.0528 241.029395 57.3194667 239.304865 62.5078667 239.507751 69.4112 239.667161 75.1664 239.78503 77.4611454 239.78503 79.7604546 239.667161 82.0552 239.174438 86.8366667 235.319606 86.5896 233.39219 84.5404 231.875473 82.8393608 231.691031 80.3273553 232.942943 78.4218667 233.667535 77.2446667 233.986356 75.5152 230.798149 75.9366667 228.595388 76.2128 225.856429 77.39 223.407306 77.39 221.566842 77.39 221.32048 76.7214667 221.856679 75.6896L237.406433 48.3378667C238.333911 46.6956 238.855617 46.2596 240.377262 45.8672 242.232218 45.3876 242.420612 43.5854667 241.014903 42.7861333L230.943068 37.0454667C229.94313 36.4641333 228.421486 36.9146667 228.957685 38.9638667 229.458408 40.3827222 229.248091 41.9565053 228.392502 43.1930667L213.074618 69.978C212.555818 71.2771889 211.296364 72.1249956 209.900903 72.1144L212.248583 68.9752C212.85724 68.0741333 213.205045 67.5218667 212.46596 66.8388 211.729432 66.3098936 210.738874 66.3098936 210.002346 66.8388 208.445873 67.6185595 206.762103 68.1108596 205.031642 68.2921333 203.857802 68.2921333 203.220161 67.9288 203.84331 66.4609333L210.161756 52.5525333C210.437102 51.9566667 210.74143 51.9566667 210.871857 51.9566667 211.083969 51.9646104 211.291751 52.0191854 211.480515 52.1165333 211.929762 52.32 211.668909 54.0204 211.480515 54.936 211.248645 56.4910667 211.002284 58.424 212.350026 58.9472 213.697768 59.4704 214.291933 58.7001333 214.871607 57.4938667L219.639426 46.9717333C220.030706 46.1433333 220.393002 44.6609333 219.059752 44.0650667 217.726502 43.4692 216.712072 44.7772 215.91502 45.7654667 215.320855 46.5212 214.465836 47.5530667 213.900653 47.5530667 213.819068 47.5663607 213.735878 47.5663607 213.654292 47.5530667 213.355286 47.4766925 213.111383 47.2603504 212.999272 46.9720633 212.88716 46.6837761 212.920613 46.3589559 213.08911 46.0997333L216.741056 38.2517333 217.726502 36.3333333C218.088798 35.5776 218.2627 35.4758667 219.074244 35.97 222.523304 38.0482667 221.32048 41.5508 222.059564 43.4110667 222.552287 44.6464 224.262325 44.8644 224.784032 42.6844L226.899842 35.1561333 209.828444 27.3226667C208.292308 26.6396 206.930074 27.6133333 207.538732 29.2556 208.294787 30.5877017 208.261401 32.2283424 207.451781 33.5284L194.742429 61.4324C193.597573 63.9757333 192.55416 64.3390667 191.655665 64.6588 191.162942 64.0048 190.510809 63.0310667 191.336845 60.6766667L201.481139 32.0024C202.394125 29.4154667 203.611441 29.7061333 204.959183 28.6888 206.046071 27.8749333 205.785218 26.4652 204.046196 25.8693333L193.539606 22.1924C191.438287 21.4221333 190.641236 22.9336 191.206418 24.2270667 192.110261 25.4976108 192.296534 27.1458953 191.699141 28.5870667L181.554846 57.5374667C180.64186 60.1098667 179.830316 60.1825333 179.265134 60.3424 178.699952 60.5022667 177.815949 60.6330667 177.815949 60.6330667L187.786342 25.1717333C187.99626 24.4050264 188.56327 23.7876534 189.307986 23.5149333 190.307923 23.0062667 190.525301 21.6692 189.307986 21.2477333L183.293868 19.184C181.844683 18.6608 181.047632 19.5618667 181.728749 21.0152 182.181436 21.8811737 182.223968 22.9048616 181.844683 23.8056L177.1928 40.1556 173.12059 19.0532C172.830753 17.5998667 172.685835 16.7278667 171.46852 16.4226667L166.019584 15.042C163.860299 14.4606667 163.121215 16.1901333 164.10666 17.5562667 164.88209 18.3080025 165.230336 19.3993865 165.034139 20.4629333L158.251953 53.1338667C157.904149 54.4128 157.933133 54.9650667 157.411426 55.3865333 157.252016 55.2702667 156.831752 55.0958667 156.599882 53.0030667L153.397184 17.44C153.179806 14.9257333 153.092855 13.7921333 151.687146 13.6758667L143.644169 12.8765333C143.104797 12.7162954 142.52345 12.9168216 142.19648 13.3758904 141.86951 13.8349592 141.868909 14.4514914 142.194985 14.9112 142.644232 15.7396 143.238398 15.9430667 142.745675 17.5562667 141.29649 22.2796 136.137392 38.3825333 132.601381 49.5296 131.442033 53.1193333 130.818883 53.2937333 129.703011 54.4418667 128.775532 55.3284 128.99291 56.68 130.384128 56.68L137.992348 56.7817333C138.585018 56.8050332 139.11713 56.4199687 139.281886 55.8485547 139.446643 55.2771408 139.201565 54.6667035 138.687957 54.3692 138.122775 53.9186667 137.383691 53.6861333 137.84743 52.2182667L139.876289 45.998 145.397683 46.5357333 145.91939 52.1310667C146.122276 54.4709333 145.586077 54.7325333 145.165814 55.1249333 144.715982 55.5227046 144.556935 56.157253 144.765751 56.7210583 144.974566 57.2848635 145.508099 57.6614315 146.107784 57.6682667 151.25239 58.0170667 158.875103 58.6856 163.498003 59.3686667 164.217504 59.4288975 164.856528 58.9098062 164.947188 58.1914667 165.081396 57.572126 164.799917 56.936985 164.251579 56.6218667 164.048693 56.4910667 163.440035 56.0696 164.092168 52.9304L166.816636 39.7196 170.280188 60.0662667C170.351802 60.7693077 170.856597 61.3511928 171.540979 61.5196 176.584142 62.9729333 184.337281 65.3418667 190.525301 67.5945333 197.609726 70.220948 204.555564 73.2090291 211.335596 76.5470667 215.683151 78.7997333 220.030706 81.3866667 224.813016 84.0898667 224.798296 84.2202502 224.798296 84.3518832 224.813016 84.4822667 224.873895 84.8577728 225.096527 85.1873594 225.421673 85.3833333 225.658 85.5242269 225.929416 85.5947953 226.204233 85.5868 226.501305 85.5694112 226.796739 85.5305549 227.088236 85.4705333 227.388581 85.4050302 227.694085 85.366125 228.001223 85.3542667 228.2186 85.3542667 228.305551 85.3542667 228.305551 85.3542667 228.528068 85.6085736 228.722429 85.8863307 228.885225 86.1826667 229.9717 88.1119301 231.539846 89.7246322 233.435666 90.8624 234.822229 91.7332625 236.422574 92.2011563 238.058566 92.214 242.217726 92.214 245.565344 89.1038667 247.159447 86.4006667 250.796901 80.3257333 250.449097 73.3206667 250.144768 67.0713333 249.912898 62.7113333 249.724504 58.8890667 251.072246 56.6509333 251.999724 55.1104 254.115534 54.5726667 255.419801 57.0578667 256.350615 58.9181633 256.542266 61.0635348 255.955999 63.0601333 255.811081 63.7722667 255.637179 64.5134667 255.564719 65.0076 255.347342 66.6644 256.941445 67.2312 258.463089 65.182L262.274445 60.0226667C263.33235 58.5693333 263.201924 56.9561333 261.419426 57.116L261.491886 57.1014667zM243.81183 92.1413333C244.32087 92.1422393 244.820695 92.2775782 245.261015 92.5337333 245.717707 92.7881396 246.094223 93.1657334 246.347903 93.6237333 246.865647 94.5230591 246.865647 95.6310742 246.347903 96.5304 246.091955 96.9779885 245.721817 97.3491855 245.275507 97.6058667 244.833655 97.8583138 244.334825 97.9933836 243.826322 97.9982667 243.317281 97.9973607 242.817457 97.8620218 242.377137 97.6058667 241.921462 97.3566628 241.544834 96.9839934 241.290248 96.5304 241.034824 96.0888197 240.899871 95.5875642 240.898968 95.0770667 240.898968 93.471759 242.196613 92.1704 243.797338 92.1704L243.81183 92.1413333zM243.797338 92.6645333C242.880033 92.593612 242.000477 93.0442355 241.520182 93.8311894 241.039887 94.6181432 241.039887 95.6086568 241.520182 96.3956106 242.000477 97.1825645 242.880033 97.633188 243.797338 97.5622667 244.454607 97.576729 245.088819 97.3191642 245.550852 96.8501333 246.49935 95.8876793 246.49935 94.3391207 245.550852 93.3766667 245.086905 92.9105218 244.453979 92.6534792 243.797338 92.6645333zM243.130713 96.7048L242.623498 96.7048 242.623498 93.5074667 243.724879 93.5074667C244.003056 93.4937922 244.281673 93.5232043 244.550914 93.5946667 244.708294 93.6489735 244.841652 93.7569942 244.927702 93.8998667 245.022874 94.0306045 245.073673 94.1885333 245.072621 94.3504 245.082221 94.5842604 244.992725 94.8112798 244.826259 94.9753333 244.644552 95.1450257 244.407786 95.2431001 244.159634 95.2514667 244.295448 95.3012747 244.415524 95.3865721 244.507439 95.4985333 244.658688 95.6702477 244.794476 95.8550586 244.91321 96.0508L245.289998 96.6757333 244.666849 96.6757333 244.391504 96.1670667C244.26312 95.919046 244.102289 95.6893273 243.913273 95.484 243.778723 95.3738502 243.608583 95.3169747 243.435042 95.3241333L243.130713 95.3241333 243.130713 96.7048zM243.130713 93.958L243.130713 94.9172 243.81183 94.9172C244.016488 94.9292381 244.220862 94.8892459 244.405996 94.8009333 244.525131 94.7187734 244.595742 94.5825929 244.59439 94.4376 244.603617 94.286895 244.531752 94.1427537 244.405996 94.0597333 244.208259 93.9803064 243.995494 93.9455711 243.782846 93.958L243.130713 93.958zM141.412425 40.766L144.107909 32.3802667 144.861485 41.1002667 141.412425 40.766z"/>
    <path fill="#9B9B9B" d="M244.116159 43.7308C243.985732 42.2774667 245.376949 41.7833333 245.898656 41.6234667 244.730117 40.2464333 244.427371 38.329766 245.114333 36.6579675 245.801294 34.9861689 247.362647 33.8398736 249.159322 33.6882667L249.608569 33.6882667C252.083128 33.6792092 254.150668 35.5756651 254.361896 38.0482667 254.500361 40.2642496 253.33258 42.3563547 251.376575 43.3965333 249.914825 44.328705 248.258553 44.9105571 246.536297 45.0969333 245.174064 45.2132 244.188618 44.472 244.13065 43.6436M76.7353026 61.9992C77.3336235 61.2518566 77.5912934 60.2867834 77.4454032 59.3396L69.4314107 26.0437333C69.2472344 25.1540897 68.6719892 24.3955837 67.866291 23.98 66.7069431 23.1952 66.7214349 21.7418667 68.4894405 21.3349333L78.9380637 18.8933333C80.822004 18.5009333 81.3147269 20.1577333 80.532167 21.146 79.7496072 22.1342667 79.5467213 22.5993333 79.764099 23.4568L81.7204987 31.9733333 85.2854935 22.454C85.7057571 21.0006667 85.4883794 20.6518667 84.8797217 20.274 84.3949857 19.9553968 84.1461481 19.3777988 84.2470483 18.8054484 84.3479485 18.233098 84.7791799 17.7760774 85.3434609 17.6434667L92.4589588 15.9866667C93.9081437 15.6524 95.0095242 17.2365333 93.2705023 18.53 92.8067632 18.8933333 91.7053826 19.7072 90.3721325 23.5876L88.0824204 29.6334667C87.7201242 30.6362667 87.3723198 31.5518667 87.0824828 32.3657333 86.6017084 33.4768809 86.2233424 34.6298224 85.9521186 35.8101333 85.9521186 35.8828 86.0535615 36.2606667 87.2274013 36.2606667 88.3174705 36.2018314 89.3970687 36.0165063 90.4445918 35.7084L90.9083309 35.5921333C91.0670839 35.5716009 91.227809 35.5716009 91.3865619 35.5921333 92.133391 35.6342658 92.7859354 36.1122714 93.0531246 36.8129333L100.878723 54.9069333C101.197544 55.5464 101.632299 55.6917333 102.327908 55.8952 103.023517 56.0986667 103.994471 56.3166667 104.153881 57.3485333 104.280325 57.7250713 104.211337 58.1400396 103.96992 58.4550707 103.728504 58.7701018 103.346415 58.9437573 102.951057 58.9181333L93.7342415 60.3714667C93.5269264 60.3897824 93.318407 60.3897824 93.111092 60.3714667 92.1907344 60.3732472 91.370408 59.78979 91.0677413 58.9181333L84.4014907 43.818 87.444779 56.68C87.7201242 57.8862667 87.9519937 57.9734667 89.1113417 58.3949333 89.6559679 58.5950794 90.0003729 59.1352089 89.9530425 59.7149708 89.9057121 60.2947327 89.4782908 60.7714909 88.9084558 60.8801333L78.0685527 63.9757333C76.7642863 64.3536 76.0976612 63.3798667 76.7353026 61.9556"/>
    <path fill="#9B9B9B" d="M50.5340396,48.5122667 C49.1521102,44.3334266 48.5766701,39.9288195 48.8384933,35.534 C49.2732487,30.2584 51.4180424,26.814 55.0410046,25.6658667 C55.8960237,25.3897333 59.7508556,24.634 60.3305295,24.5032 C60.8556744,24.3857831 61.2799493,23.9989745 61.4464019,23.4858667 C62.1275188,22.1488 63.6201793,22.0325333 64.1853614,23.6166667 L66.5620246,30.8833333 C67.0692393,32.4238667 65.7359892,33.354 64.5186739,32.4093333 C63.069489,31.2466667 61.5478448,28.5725333 59.3161001,28.5725333 C57.3741923,28.5725333 56.2873037,30.2148 57.8669152,35.1706667 C60.765285,44.8934667 64.8374946,57.7990667 66.7069431,60.5313333 C69.1270819,64.5861333 71.6486636,64.2809333 71.5762044,58.5112 C71.4444074,56.5245406 70.8110778,54.6041095 69.7357395,52.9304 C68.2865546,50.8666667 69.7357395,50.2562667 70.8516119,50.5033333 C74.199229,51.2445333 75.1991666,53.9186667 75.8802835,56.1277333 C77.1410744,60.0953333 75.5614628,65.5308 71.0979733,67.0422667 C62.9825379,69.7745333 54.3164122,60.1825333 50.4905641,48.4541333"/>
    <path fill="#9B9B9B" d="M36.3610113,80.4274667 C36.679832,79.2357333 37.5058673,78.698 37.1290793,76.6197333 L28.6078721,43.6 C28.0426899,41.5217333 27.7818367,41.7688 26.6514724,41.4054667 C25.9734193,41.176079 25.5001096,40.5594127 25.452509,39.8433597 C25.4049084,39.1273067 25.7924048,38.453089 26.4340947,38.1354667 C27.8832796,37.4233333 33.1583126,34.8364 33.8684132,34.4876 L34.6219894,34.1097333 L58.7799017,64.3972 C59.3165751,65.2641524 60.2075781,65.8492173 61.2145323,65.9958667 C61.8717604,66.0472362 62.4383927,66.4791095 62.6637172,67.1004 C62.9100787,67.9578667 62.3593884,68.4084 61.6203041,68.7862667 C59.6639045,69.7745333 57.8669152,70.7628 56.1134015,71.6929333 C54.3598877,72.6230667 52.4904392,73.6985333 50.5340396,74.6868 C49.4036754,75.2536 47.9689823,74.8466667 48.4906889,73.3206667 C48.8384933,72.2597333 50.0703004,70.7773333 48.9689199,69.6146667 L45.6068109,65.4581333 L40.9259437,67.9578667 L42.3751286,73.7712 C42.722933,75.0792 43.3605743,75.4134667 44.259069,75.4716 C44.8474266,75.4066738 45.3970777,75.7755822 45.5615759,76.3458015 C45.7260741,76.9160207 45.4577353,77.5222578 44.925694,77.7824 C44.7083163,77.9132 38.9985278,81.4738667 38.114525,81.9098667 C36.9696689,82.5057333 36.0421906,81.6918667 36.3755031,80.4565333 L36.3610113,80.4274667 Z M39.4767588,62.4933333 L42.0997835,61.2289333 L37.7522288,55.8225333 L39.4767588,62.4933333 Z"/>
    <path fill="#9B9B9B" d="M20.4489611,91.996 C15.4848741,91.9893441 10.8784344,89.4045533 8.2758079,85.1653333 C5.3774381,80.3693333 5.24701145,72.9718667 9.60905801,70.2250667 C10.734857,69.4829082 12.0446826,69.0702141 13.3914306,69.0333333 C16.2898004,69.0333333 18.6809555,71.5330667 19.1881702,74.8466667 C16.9709173,75.3117333 16.0144553,76.3 15.7970775,77.2592 C15.4575632,79.1848135 15.8284481,81.1685288 16.8404907,82.84 C17.9184333,84.8921724 19.9574629,86.2590619 22.2604422,86.4733333 C23.2937114,86.4378562 24.2969624,86.1158969 25.158812,85.5432 C28.3904943,83.5230667 26.9268176,78.8869333 23.8255619,73.9165333 L4.56589455,43.2076 C3.75435101,41.8996 3.11670965,41.638 2.18923131,41.6816 C1.42088311,41.9705554 0.564437843,41.5801477 0.276307266,40.8096 C-0.01182331,40.0390523 0.377469987,39.1801554 1.14581819,38.8912 C2.78339712,37.8593333 4.33402497,36.7838667 5.97160391,35.6502667 C7.60918284,34.5166667 9.33371287,33.3104 11.1741777,32.1622667 C12.5364115,31.3338667 13.6957594,32.3221333 13.3044795,33.8045333 C13.0581181,34.7346667 12.8262485,35.2578667 14.029072,37.2489333 L31.5931929,65.4726667 C33.8875965,69.0257552 35.1888397,73.1313856 35.3610737,77.3609333 C35.3712937,82.5104116 32.59787,87.2609794 28.1151492,89.7724 C25.8176241,91.2185174 23.161507,91.9889319 20.4489611,91.996"/>
    <path fill="#000000" fill-rule="nonzero" d="M231.145954 77.2446667C231.435791 76.8377333 231.711136 76.6342667 231.914022 76.7505333 232.392253 77.0412 232.232842 77.5208 232.029957 77.8405333 231.051252 79.3143754 230.758981 81.141806 231.228977 82.8486749 231.698973 84.5555439 232.884909 85.9736083 234.479079 86.7349333 236.478954 87.9557333 238.304927 87.3308 240.174376 84.2061333 242.043824 81.0814667 238.391878 63.0310667 243.275631 54.8924 244.724816 52.4217333 250.651983 49.268 254.695208 51.7096 257.492135 53.3954667 258.767418 57.0724 260.173127 57.9298667 261.578837 58.7873333 261.187557 57.9298667 261.810706 58.2786667 262.057068 58.4385333 261.810706 58.9326667 261.506377 59.3977333L257.695021 64.5716C257.231282 65.1529333 256.82551 65.6906667 256.50669 65.4872 256.187869 65.2837333 256.970429 63.5106667 257.21679 62.5805333 257.781972 60.3424 257.013904 56.1277333 254.666225 54.7034667 253.878609 54.2846546 252.95566 54.202789 252.10697 54.4764606 251.258281 54.7501323 250.555874 55.3561163 250.15926 56.1568 246.63774 61.9701333 252.347529 75.7186667 246.231969 85.9065333 244.232093 89.2346667 239.319357 93.1732 233.957372 89.9613333 230.305427 87.7522667 229.769228 85.02 228.856242 84.4677333 227.943255 83.9154667 226.349152 84.6857333 225.957872 84.4677333 225.566592 84.2497333 226.189741 83.6974667 226.276693 83.5812L231.145954 77.2446667zM212.176123 45.6346667C211.863492 46.1525251 211.804741 46.7855038 212.016695 47.3523318 212.228649 47.9191597 212.687931 48.35732 213.263012 48.5413333 215.668659 49.6458667 217.378697 44.5301333 218.65398 45.1114667 219.059752 45.3004 219.001784 46.0125333 218.726439 46.5648L213.944129 57.1014667C213.610816 57.8136 213.219537 58.2205333 212.842748 58.0461333 211.393564 57.3630667 214.060064 52.2328 211.929762 51.2154667 211.453621 50.9243198 210.872732 50.8615528 210.345677 51.0443009 209.818622 51.227049 209.40044 51.6362284 209.205294 52.1601333L202.568028 66.6934667C202.031829 67.8997333 202.162256 68.3212 204.017212 69.1641333 205.872169 70.0070667 209.915395 68.0596 211.263137 67.362 211.437145 67.4520571 211.560245 67.6173003 211.597014 67.8101811 211.633783 68.0030618 211.580143 68.20219 211.451531 68.3502667L207.582207 73.4078667 192.061437 66.9696C191.568714 66.7516 191.307861 66.4173333 191.467271 66.0830667 191.916519 65.0948 193.626557 66.3737333 195.669907 61.8829333L208.379259 33.9789333C210.42261 29.4736 207.857552 29.43 208.379259 28.4417333 208.538669 28.0929333 208.958933 28.0784 209.437164 28.2964L225.639051 35.6793333 223.769603 42.3356C223.392815 43.8616 222.49432 42.9314667 222.682714 41.5362667 222.871108 40.1410667 222.045073 36.0572 219.001784 34.6474667 217.552599 34.008 217.349714 34.4876 215.857053 37.7866667L212.176123 45.6346667zM182.830129 23.6166667C183.569213 20.8262667 182.192488 21.0588 182.337406 20.4629333 182.438849 20.0850667 182.859113 20.1286667 183.69964 20.4629333L187.757358 21.8290667C188.452967 22.0616 188.771787 22.1778667 188.670344 22.5702667 188.568901 22.9626667 187.453029 21.9598667 186.511059 25.4769333L176.627618 60.6476C176.352273 61.7085333 176.787028 61.4469333 176.627618 61.7521333 176.468207 62.0573333 176.308797 61.8974667 176.062436 61.8393333L171.714881 60.386C171.42908 60.342534 171.21889 60.0945447 171.222158 59.8046667L167.120965 35.6793333C166.990538 35.0834667 166.570275 34.9672 166.45434 35.6066667L162.947312 52.5670667C161.845932 57.8717333 164.005217 57.0288 163.802331 57.77 163.71538 58.1188 163.55597 58.206 163.106723 58.1333333L158.107035 57.3194667C157.744739 57.3194667 157.382442 57.1450667 157.454902 56.8689333 157.672279 56.0114667 158.179494 56.9997333 158.904086 54.2238667L166.034076 19.8525333C166.468832 17.8469333 164.309546 16.9458667 164.468956 16.2046667 164.570399 15.8558667 164.947188 15.8413333 165.570337 16.0012L171.019272 17.4545333C171.598946 17.5853333 171.62793 17.8614667 171.917767 19.4165333L176.004468 40.5189333C176.424732 42.4954667 177.062373 43.8325333 177.337718 42.8733333L182.830129 23.6166667zM155.411551 53.0612L152.339279 17.44C152.150885 15.0856 152.092917 14.6786667 151.585703 14.6350667L143.557218 13.8502667C143.354332 13.8502667 143.122463 13.8502667 143.107971 14.0392 143.107971 14.5914667 144.339778 15.1292 144.209352 16.35 144.1224 17.2946667 133.601318 49.7766667 133.601318 49.7766667 131.804329 55.3429333 130.282685 54.4564 130.224717 55.1104 130.224717 55.4592 130.340652 55.5609333 130.702948 55.5609333L137.948873 55.5609333C138.209726 55.5609333 138.383628 55.5609333 138.412612 55.2702667 138.485071 54.4273333 135.746112 55.0086667 136.804017 51.7241333L139.093729 44.7045333 146.339653 45.4021333 146.948311 52.3926667C147.25264 56.026 145.644045 55.0522667 145.571585 55.9097333 145.571585 56.3457333 145.817947 56.4474667 146.412113 56.4765333L156.049192 57.1596C156.527423 57.1596 156.933195 57.1596 156.976671 56.7381333 157.063622 55.9388 155.860798 56.8689333 155.527486 53.0176L155.411551 53.0612zM140.006715 41.6961333L143.615186 30.52C144.383254 28.122 144.832501 28.5289333 145.064371 30.6653333L146.064308 42.292 140.006715 41.6961333zM133.833188 23.3841333C133.239022 8.3276 124.978668.712133333 115.892279 1.07546667L108.791273 1.36613333C106.9653 1.4388 105.892903 1.59866667 105.892903 2.10733333 105.892903 3.03746667 107.588449 2.0056 107.762351 6.2784L109.588324 52.8722667C109.689767 55.3138667 107.762351 55.1830667 107.805827 56.1132 107.805827 56.3166667 108.110156 56.4474667 108.907207 56.4184L118.399368 56.026C127.094478 55.6917333 134.644731 44.5446667 133.818696 23.3841333M120.167374 52.32C118.906583 52.32 118.210974 52.538 118.167499 51.448L116.413985 5.15933333C116.413985 4.4036 116.790773 4.24373333 118.008089 4.20013333 122.48607 4.02573333 124.036698 11.1325333 124.239584 16.5825333L125.051127 37.2634667C125.225029 41.6234667 123.601942 52.2182667 120.167374 52.3490667M190.336907 60.3278667C188.699328 64.9930667 191.264385 64.8041333 190.902089 65.836 190.786154 66.1848 190.365891 66.2429333 189.873168 66.0685333L179.279626 62.6386667C178.772411 62.4497333 178.482574 62.1445333 178.613001 61.7957333 178.975297 60.7784 180.844746 62.5224 182.482325 57.8572L192.626619 28.9068C194.264198 24.2416 191.699141 24.4450667 192.061437 23.4132 192.177372 23.0498667 192.597635 23.0062667 193.10485 23.1806667L203.625933 26.8721333C204.133147 27.0465333 204.422984 27.3517333 204.292558 27.7005333 203.930261 28.7324 202.060813 26.9884 200.423234 31.6390667L190.336907 60.3278667z"/>
    <path fill="#000000" fill-rule="nonzero" d="M221.291496 74.4106667C219.958246 76.736 220.161132 77.1865333 221.508874 77.9713333 224.001472 79.4246667 229.377948 76.6633333 229.972114 77.0121333 230.305427 77.1865333 230.117032 77.6370667 229.856179 77.8550667L224.740557 82.84 209.683525 74.5124C209.205294 74.2508 208.973425 73.902 209.161819 73.5822667 209.698017 72.6230667 211.799335 74.3961333 213.987605 70.5738667L229.319981 43.6C231.769103 39.24 229.218538 39.0365333 229.754736 38.0918667 229.94313 37.7576 230.363394 37.7866667 230.827133 38.0918667L240.478705 43.6C240.942444 43.8616 241.159821 44.2104 240.985919 44.5301333 240.435229 45.4893333 238.913585 43.4256 236.464462 47.7129333L221.291496 74.4106667zM253.289499 38.1790667C253.1381 36.4642123 251.84174 35.0730763 250.145926 34.8056697 248.450113 34.538263 246.790606 35.4632992 246.121751 37.0488107 245.452896 38.6343223 245.946564 40.472892 247.318857 41.5072 247.449284 43.0332 245.043637 42.2629333 245.174064 43.6581333 245.174064 44.0214667 245.507376 44.1668 246.434854 44.0796 248.550664 43.9052 253.680779 42.1321333 253.289499 38.1790667M78.1120283 63.0165333C77.4888788 63.1473333 77.2859929 63.1764 77.1990418 62.7985333 76.981664 61.8974667 78.8366207 61.7957333 78.3004223 59.514L70.3299053 25.2298667C69.7502314 22.7737333 68.445965 23.5730667 68.2865546 22.8318667 68.2140954 22.5702667 68.2865546 22.4685333 68.7213101 22.3668L79.4162947 19.8670667C79.4972873 19.8404539 79.5858546 19.8509401 79.6584407 19.8957363 79.7310268 19.9405326 79.7802734 20.0150977 79.7930827 20.0996 79.9814768 20.928 78.0540609 20.7972 78.5322919 22.8754667L81.0973492 33.9789333C81.0973492 34.2114667 81.3147269 34.5021333 81.5465965 34.444 81.7784661 34.3858667 82.1552541 33.7754667 82.3726319 33.2958667L86.2854311 22.8464C86.586486 22.0597811 86.6715645 21.2065611 86.5317925 20.3757333 86.2999229 19.3874667 85.3434609 19.6345333 85.2130343 19.0822667 85.140575 18.7770667 85.2130343 18.7625333 85.618806 18.6753333L92.5748936 17.0476C92.7777795 17.0476 92.8937142 17.0476 92.9371898 17.2801333 93.0821083 17.9050667 91.4010538 17.3818667 89.4011786 23.2678667L87.1114665 29.2846667C85.7927082 32.9616 84.7492951 35.2869333 84.9231973 36.0281333 85.4738876 38.3825333 89.9953444 36.9292 91.1691842 36.6530667 91.574956 36.5513333 91.8213174 36.6530667 92.1256462 37.2634667L99.922261 55.2993333C100.922199 57.334 103.009025 56.4038667 103.211911 57.3194667 103.298862 57.6828 103.211911 57.8136 102.849615 57.8572L93.589323 59.3105333C92.6183691 59.4558667 92.3720077 59.1942667 92.053187 58.5402667L84.4014907 40.9404C84.1696211 40.4026667 83.7638494 39.7486667 83.4450287 39.8358667 83.126208 39.9230667 82.6914525 40.7224 82.8073873 41.1874667L86.7056947 58.1333333C86.9810399 59.3396 88.7055699 58.7437333 88.8649802 59.4268 88.8649802 59.6157333 88.8649802 59.7901333 88.6620943 59.8482667L78.1120283 63.0165333zM63.4897526 55.8370667C64.4172309 58.6565333 67.1706823 65.4 70.4458401 64.3245333 73.1703077 63.4234667 72.8225034 57.3049333 72.3877479 56.0114667 71.9503208 54.6894101 71.3098003 53.4439298 70.4893157 52.32 69.8951499 51.5206667 70.3154135 51.3026667 70.8081364 51.448 73.3587018 51.8549333 74.5760171 54.2674667 75.3295933 56.5492 76.4889412 60.1244 74.9238215 65.0366667 70.8805956 66.3737333 64.3592636 68.5101333 56.1713689 62.3916 51.5339772 48.1634667 49.2007895 40.9985333 48.1718682 29.0666667 55.4177927 26.6832 56.9684206 26.16 60.1131518 25.7530667 61.5043693 25.2298667 62.2869291 24.9828 62.3159128 23.6602667 62.8086357 23.5004 63.0115216 23.5004 63.1709319 23.6893333 63.2433912 23.9073333L65.6200544 31.174C65.7214974 31.4937333 65.6200544 31.5518667 65.4171685 31.61 64.9244457 31.7698667 61.8521737 26.4797333 58.3741299 27.6278667 54.8960862 28.776 56.3597629 33.6010667 57.0118961 35.5776L63.4897526 55.8370667z"/>
    <path fill="#000000" fill-rule="nonzero" d="M60.9971546 66.6644C59.8378067 66.7806667 59.4465267 66.4754667 58.2002277 64.9494667L34.3466443 35.4322667C32.7235572 36.2461333 29.6802689 37.6558667 27.2021627 38.9057333 26.2746844 39.3708 26.0283229 40.8241333 27.6079345 40.5334667 28.3615106 40.4317333 29.0571194 41.1148 29.6367933 43.4401333L38.1724924 76.4308C38.5587953 77.7699401 38.2424088 79.2141667 37.3319652 80.2676 37.1000956 80.5292 37.3319652 81.1250667 37.636294 80.9942667 39.0854789 80.2821333 43.7663461 77.2010667 44.447463 76.8522667 44.8097592 76.6778667 44.3750038 76.2128 43.969232 76.3145333 42.2157183 76.7650667 41.8099465 75.8494667 41.3317155 74.0618667L39.650661 67.4201333 45.795205 64.1356 49.6210531 68.9170667C50.1272659 69.4573679 50.3955705 70.1791142 50.3655881 70.9198853 50.3356057 71.6606565 50.0098552 72.3582208 49.4616428 72.8556 48.8095096 73.3352 49.3022324 74.0909333 49.9398738 73.7566667 53.8961486 71.7801333 57.1857983 69.7309333 61.3304671 67.6817333 61.9391248 67.3765333 61.5188611 66.6062667 60.953679 66.6644L60.9971546 66.6644zM38.7376745 63.9466667L35.998715 53.4245333C35.8393047 52.8577333 35.5494677 52.1746667 35.810321 52.0584 36.0711743 51.9421333 36.679832 52.8286667 36.8392423 53.0466667L43.7228706 61.5632 38.7376745 63.9466667zM5.46438919 42.6408C4.47894346 41.0566667 3.43553033 40.3009333 1.94286988 40.6933333 1.29073668 40.8677333 1.29073668 40.0974667 1.72549215 39.8213333 5.07310927 37.714 8.15987311 35.3450667 11.724868 33.1069333 12.3480175 32.7290667 12.391493 33.3104 12.2465745 33.6882667 11.5364739 35.1416 11.6958843 35.5485333 13.1305773 37.8448L30.6946983 66.0394667C34.4625791 72.0853333 37.6073103 82.5784 27.5644589 88.8713333 24.5671981 90.7743585 20.9345603 91.393613 17.4786419 90.590659 14.0227234 89.7877051 11.0317256 87.629504 9.17430254 84.5985333 6.37737568 80.1077333 6.52229417 73.4224 10.1742401 71.1261333 12.5943789 69.6728 15.3478302 69.6728 17.0143928 72.2742667 17.3621972 72.8410667 17.4346565 73.5677333 17.8549201 74.2072 17.2027869 74.6141333 16.9129499 74.3816 16.043439 74.9193333 13.9855964 76.2128 14.1450067 80.5728 15.941996 83.4649333 17.7389853 86.3570667 21.5503416 89.1329333 25.7529778 86.5024 30.7381739 83.3777333 26.7529154 76.6052 24.7530402 73.4224L5.46438919 42.6408z"/>
  </g>
</svg>
