<svg xmlns="http://www.w3.org/2000/svg" width="250" height="232" viewBox="0 0 250 232">
  <g fill="none" fill-rule="evenodd" transform="translate(0 1)">
    <path fill="#FFFFFF" fill-rule="nonzero" d="M221.273585,126.012857 C220.443178,117.790902 217.939038,109.82555 213.915094,102.606429 C210.126997,95.6960323 204.384469,90.0551731 197.40566,86.3892857 C195.363555,85.2748457 193.233843,84.3288479 191.037736,83.5607143 C191.162464,82.6937868 191.233354,81.8199716 191.25,80.9442857 C191.309609,78.3580554 190.303372,75.8609471 188.466981,74.0378571 C185.613208,71.1385714 180.943396,69.7242857 174.316038,69.7007143 C158.75,69.7007143 132.193396,75.4285714 114.150943,80.1428571 C79.9528302,89.3121429 52.6650943,101.357143 46.2971698,109.960714 C43.1313432,114.087719 43.5041222,119.917873 47.1698113,123.608571 C47.5943396,124.056429 48.0424528,124.480714 48.490566,124.881429 C38.6351311,137.085651 35.659012,153.458271 40.5896226,168.347143 C43.6446668,178.090116 49.1600079,186.882017 56.6037736,193.875 C70.754717,207.24 92.5707547,212.590714 101.037736,214.264286 C106.061321,224.612143 118.254717,230.481429 135.165094,230.481429 C142.177027,230.463856 149.153067,229.480313 155.896226,227.558571 C180.872642,220.251429 193.632075,207.004286 200,197.175 C204.343969,190.646393 206.186241,182.770996 205.188679,174.994286 C209.850668,168.522547 213.663195,161.480135 216.533019,154.039286 C220.407178,145.23284 222.028192,135.601421 221.25,126.012857"/>
    <path fill="#010202" fill-rule="nonzero" d="M57.995283,166.862143 C62.0244316,166.955694 65.9561108,168.119066 69.3867925,170.232857 C69.5588221,169.805089 69.7976369,169.407292 70.0943396,169.054286 C70.9494336,168.02619 72.2010788,167.409293 73.5377358,167.357143 C75.5896226,167.357143 77.6415094,167.074286 79.6933962,166.885714 C79.6933962,166.532143 145.306604,148.971429 145.306604,148.617857 L187.169811,128.535 L190.754717,126.177857 C194.343126,123.726391 198.438364,122.115014 202.735849,121.463571 C202.712548,121.181194 202.712548,120.897378 202.735849,120.615 C202.770892,119.099135 203.512435,117.686648 204.740566,116.796429 C207.099057,115.146429 209.457547,113.425714 211.627358,111.705 C210.762784,109.588385 209.786572,107.519054 208.70283,105.505714 C204.55391,98.0737049 197.850818,92.39608 189.834906,89.5242857 C189.00076,91.9083183 187.665844,94.0863637 185.919811,95.9121429 C181.499016,100.001643 176.083394,102.862317 170.212264,104.209286 C168.945146,104.510537 167.64681,104.660868 166.34434,104.657143 C166.34434,104.657143 176.108491,99.66 180.495283,94.7335714 C181.95458,92.5966272 183.120627,90.2737935 183.962264,87.8271429 L184.386792,86.6721429 C184.972452,84.798868 185.313327,82.8577794 185.400943,80.8971429 C185.400943,77.8328571 181.957547,75.7585714 174.339623,75.735 C160.495283,75.735 135.731132,80.685 115.801887,86.0357143 C78.0660377,96.1714286 55.495283,107.815714 51.2028302,113.614286 C49.8641448,115.368018 49.9939459,117.83283 51.509434,119.436429 C52.6434759,120.557984 53.848815,121.605163 55.1179245,122.571429 C58.6519756,124.841758 62.4344616,126.700286 66.3915094,128.110714 C73.9150943,130.467857 90.9669811,127.639286 90.9669811,127.639286 C90.9669811,127.639286 82.0283019,134.922857 65.8018868,133.060714 C61.2671039,132.759258 56.8986483,131.236059 53.1603774,128.652857 C49.7422496,132.906809 47.2156752,137.804761 45.7311321,143.055 C43.3657134,151.741904 43.8703091,160.959982 47.1698113,169.337143 C50.4902288,167.658162 54.1821099,166.847223 57.9009434,166.98 M54.9764151,115.665 C54.245283,111.940714 63.6792453,107.061429 65.0235849,106.401429 C66.3679245,105.741429 60.0471698,111.115714 60.3066038,112.718571 C60.5660377,114.321429 73.6084906,112.718571 80.1179245,111.657857 C84.5918394,110.894983 89.0237409,109.903685 93.3962264,108.687857 C93.3962264,108.687857 98.75,105.364286 121.886792,98.4814286 C145.023585,91.5985714 154.90566,91.9757143 154.90566,91.9757143 C159.259706,90.4090593 163.506244,88.5586587 167.617925,86.4364286 C172.59434,83.6785714 174.882075,82.0521429 174.976415,80.9914286 C175.070755,79.9307143 168.65566,77.7857143 168.65566,77.7857143 C172.099057,77.5971429 183.183962,78.0685714 180.990566,81.3214286 C178.79717,84.5742857 164.834906,94.2857143 123.820755,105.93 C82.8066038,117.574286 55.6603774,119.412857 54.9764151,115.665"/>
    <path fill="#FFFFFF" fill-rule="nonzero" d="M79.245283,187.864286 C79.2384572,192.042995 78.0354528,196.132508 75.7783019,199.65 C77.5550314,200.514286 79.3238994,201.3 81.0849057,202.007143 L81.0849057,183.715714 L78.8443396,183.927857 C79.082168,185.226467 79.2005863,186.544104 79.1981132,187.864286"/>
    <path fill="#010202" fill-rule="nonzero" d="M195.165094,184.635 C192.232301,193.164844 186.496406,200.451083 178.891509,205.307143 C168.816423,212.251665 156.620716,215.438591 144.433962,214.311429 C153.077376,212.718495 161.422661,209.800507 169.174528,205.660714 C175.343324,202.623491 180.800523,198.318061 185.188679,193.026429 C165.141509,207.9 149.929245,207.169286 149.929245,207.169286 C149.929245,207.169286 169.363208,203.633571 188.278302,184.729286 C191.99256,181.078392 195.48168,177.205557 198.726415,173.132143 C202.455402,168.332101 205.620773,163.120132 208.160377,157.598571 C206.367925,158.871429 204.575472,160.120714 202.759434,161.346429 C201.543967,162.1804 200.00825,162.398417 198.608491,161.935714 C196.816038,161.37 195.023585,160.804286 193.231132,160.191429 L192.948113,160.38 L193.537736,163.821429 C193.911185,165.760625 193.035723,167.726937 191.34434,168.747857 C187.287736,171.246429 183.160377,173.674286 179.056604,175.960714 C177.800344,176.669848 176.288443,176.765374 174.95283,176.22 C174.673074,177.64636 173.750621,178.863998 172.45283,179.52 C163.923985,184.032786 155.170486,188.108075 146.226415,191.73 C144.74216,192.378509 143.02877,192.220468 141.688346,191.311415 C140.347923,190.402362 139.567997,188.869476 139.622642,187.251429 L139.622642,170.020714 C138.066038,170.61 136.485849,171.175714 134.90566,171.717857 L134.90566,192.531429 C134.92862,194.609455 133.587379,196.457395 131.603774,197.080714 C127.806604,198.353571 123.938679,199.437857 120.165094,200.592857 C118.694998,201.056741 117.090857,200.773381 115.868925,199.833971 C114.646994,198.894561 113.961487,197.417659 114.033019,195.878571 L114.033019,177.893571 C112.429245,178.317857 110.801887,178.695 109.198113,179.072143 L108.79717,179.072143 C106.438679,179.590714 104.080189,180.085714 101.721698,180.557143 L101.721698,200.781429 C101.750007,203.124492 100.052114,205.132684 97.7358491,205.495714 C96.4150943,205.755 95.0943396,205.967143 93.75,206.179286 C97.5801628,207.262175 101.470464,208.12007 105.400943,208.748571 C109.316038,209.361429 114.834906,209.927143 114.834906,209.927143 C115.924794,210.827898 117.102028,211.617536 118.349057,212.284286 C121.738417,213.627888 125.30593,214.469625 128.938679,214.782857 C122.431807,215.599977 115.86571,215.844487 109.316038,215.513571 C118.561321,225.767143 139.504717,225.885 154.316038,221.547857 C175.306604,215.419286 188.089623,204.505714 195.070755,193.686429 C197.742928,189.59765 199.273686,184.869661 199.504717,179.991429 C198.160377,181.476429 196.721698,182.961429 195.188679,184.399286"/>
    <path fill="#FFFFFF" fill-rule="nonzero" d="M44.8113208,45.4457143 L44.6462264,45.4457143 C43.1160005,44.701997 41.9569868,43.3647826 41.4386792,41.745 C40.3301097,37.2929839 40.9450476,32.5867664 43.1603774,28.5685714 C46.745283,21.0257143 52.5943396,16.9478571 57.004717,18.8571429 L57.1698113,18.8571429 C57.6215606,19.0652193 58.0422381,19.3349337 58.4198113,19.6585714 L61.6981132,21.8507143 C63.0519773,22.5942271 64.072209,23.8245471 64.5518868,25.2921429 C65.5905355,29.4901226 65.009539,33.9250524 62.9245283,37.7142857 C59.5754717,44.7857143 54.1037736,48.6514286 49.8584906,46.9071429 L46.0849057,45.8228571 C45.644703,45.7578112 45.2159244,45.6308383 44.8113208,45.4457143"/>
    <path fill="#010202" fill-rule="nonzero" d="M46.2264151,42.0042857 L46.3915094,42.0042857 L46.6981132,42.0042857 C48.9150943,42.3578571 52.7122642,39.3878571 55.2830189,33.99 C57.0173172,30.8530376 57.5774924,27.2014457 56.8632075,23.6892857 C56.7017547,23.1945272 56.4178051,22.7485757 56.0377358,22.3928571 C55.9039282,22.2696561 55.7529947,22.1664448 55.5896226,22.0864286 C53.4198113,21.1671429 49.3160377,24.1135714 46.5566038,29.9592857 C44.8062705,33.0905525 44.2372524,36.745241 44.9528302,40.26 C45.139467,40.9462288 45.5999204,41.5257277 46.2264151,41.8628571"/>
    <path fill="#010202" fill-rule="nonzero" d="M61.0377358,26.565 C60.8696152,25.9399423 60.451719,25.4114778 59.8820755,25.1035714 L59.7641509,25.1035714 L58.9622642,24.5142857 C59.3231252,28.1081388 58.6263868,31.7291081 56.9575472,34.9328571 C55.5267141,38.2618763 53.1586685,41.1035451 50.1415094,43.1121429 L51.1320755,43.395 C53.0660377,44.2435714 56.9575472,41.4385714 59.4811321,36.1114286 C61.0878595,33.1955937 61.6140099,29.8067844 60.9669811,26.5414286"/>
    <path fill="#FFFFFF" fill-rule="nonzero" d="M211.320755,65.505 L212.948113,63.4778571 C213.259169,63.1651806 213.521524,62.8076291 213.726415,62.4171429 C214.504717,60.9085714 215,57.7028571 209.716981,53.5071429 C208.248617,52.3677876 206.668165,51.3805698 205,50.5607143 C202.506086,49.214044 199.789692,48.327728 196.981132,47.9442857 C192.54717,47.4492857 190.919811,49.3114286 190.306604,50.4664286 C190.113244,50.8695678 189.978244,51.2981461 189.90566,51.7392857 L189.268868,54.2142857 C188.65566,55.7228571 188.443396,58.6457143 193.207547,62.4407143 C194.553824,63.5155296 196.008169,64.4476744 197.54717,65.2221429 C199.90241,66.4506737 202.458262,67.248921 205.09434,67.5792857 C209.033019,68.0271429 210.683962,66.4714286 211.320755,65.4107143"/>
    <path fill="#010202" fill-rule="nonzero" d="M208.443396,63.4778571 L208.65566,63.2185714 C208.192456,63.2528064 207.727355,63.2528064 207.264151,63.2185714 C204.678837,62.8621235 202.173918,62.0648345 199.858491,60.8614286 C198.323138,60.080584 196.869421,59.1488421 195.518868,58.08 C194.812671,57.5355335 194.157459,56.9280337 193.561321,56.265 C193.240194,55.9205476 192.948306,55.549983 192.688679,55.1571429 L192.54717,55.6521429 C192.193396,56.3121429 193.066038,58.0092857 195.400943,59.8242857 C196.572878,60.7277112 197.828597,61.5170205 199.150943,62.1814286 C201.12675,63.2460164 203.274054,63.9560566 205.495283,64.2792857 C207.287736,64.4914286 208.160377,64.1142857 208.349057,63.7135714 L208.443396,63.4778571 Z"/>
    <path fill="#010202" fill-rule="nonzero" d="M193.396226,52.305 C193.396226,52.8235714 193.65566,53.7428571 194.787736,54.9921429 C196.466328,56.7132551 198.428977,58.1325718 200.589623,59.1878571 C202.712412,60.3285753 205.019691,61.0865898 207.40566,61.4271429 C208.421478,61.6770003 209.494604,61.5249906 210.400943,61.0028571 C210.400943,61.0028571 210.400943,60.885 210.542453,60.8142857 C210.919811,60.06 210,58.2685714 207.476415,56.265 C206.209253,55.2745121 204.850973,54.4063409 203.419811,53.6721429 C201.292488,52.542015 198.987106,51.7846232 196.603774,51.4328571 C194.646226,51.2207143 193.70283,51.6214286 193.466981,52.0692857 L193.466981,52.305"/>
    <path fill="#FFFFFF" fill-rule="nonzero" d="M8.44339623,127.592143 C6.98136347,127.301062 5.68846503,126.456513 4.83490566,125.235 L1.86320755,122.1 C1.41973202,121.736952 1.04439146,121.297974 0.754716981,120.803571 C-0.117924528,119.389286 -0.990566038,116.277857 2.80660377,111.375 C5.60757801,108.033142 8.96707636,105.20193 12.7358491,103.007143 C19.3396226,99 25.9433962,97.1142857 30.1650943,98.01 C31.7782148,98.2980374 33.1975568,99.2465731 34.0801887,100.626429 C34.3710001,101.115134 34.5782442,101.648881 34.6933962,102.205714 L36.2028302,106.354286 C36.9811321,107.815714 37.5,110.691429 34.1273585,115.028571 C31.4595936,118.182465 28.2683038,120.853643 24.6933962,122.925 C18.5141509,126.649286 12.240566,128.440714 8.3254717,127.639286"/>
    <path fill="#010202" fill-rule="nonzero" d="M3.72641509,119.012143 C3.80073712,119.137825 3.89652611,119.249515 4.00943396,119.342143 C5.66931527,120.247622 7.62279766,120.451347 9.43396226,119.907857 C13.2763122,119.070717 16.9460945,117.579723 20.2830189,115.5 C27.7830189,110.950714 31.8632075,105.529286 31.2971698,103.007143 C31.2971698,103.007143 31.2971698,103.007143 31.2971698,103.007143 C31.2559643,102.860722 31.200675,102.718631 31.1320755,102.582857 C30.7371899,102.021574 30.1171938,101.660116 29.4339623,101.592857 C26.2264151,100.885714 20.259434,102.724286 14.5754717,106.165714 C11.1458495,108.132099 8.09487578,110.69441 5.56603774,113.732143 C3.77358491,116.089286 3.20754717,118.069286 3.75,119.177143"/>
    <path fill="#010202" fill-rule="nonzero" d="M33.0188679,107.886429 L33.0188679,107.721429 L32.4056604,106.071429 C29.7649333,110.663724 25.8929783,114.427335 21.2264151,116.937857 C17.7078582,119.161231 13.8293718,120.756404 9.76415094,121.652143 C8.65943054,121.850068 7.53666656,121.929091 6.41509434,121.887857 L7.68867925,123.302143 C8.05917481,123.797765 8.60978369,124.127941 9.22169811,124.221429 C12.2169811,124.881429 17.759434,123.160714 23.0424528,119.955 C26.2311971,118.103549 29.072493,115.710567 31.4386792,112.883571 C33.0896226,110.762143 33.7971698,108.876429 33.1367925,107.886429"/>
    <path fill="#FFFFFF" fill-rule="nonzero" d="M234.528302,76.0885714 C232.561766,77.5270905 229.967087,77.7800852 227.759434,76.7485714 L223.679245,75.2164286 C223.122263,75.0887932 222.588957,74.8740019 222.099057,74.58 C216.886792,71.3035714 219.740566,61.3328571 224.764151,53.3657143 C227.379904,48.9582928 230.979967,45.2150762 235.283019,42.4285714 C237.409699,40.8300066 240.271021,40.6093234 242.617925,41.8628571 C243.105535,42.1624668 243.536628,42.5454419 243.891509,42.9942857 L247.075472,45.9878571 C248.396226,46.9542857 250.188679,49.2642857 249.103774,54.615 C248.194466,58.5780506 246.598046,62.3514266 244.386792,65.7642857 C241.958375,69.9514887 238.581946,73.5116671 234.528302,76.1592857"/>
    <path fill="#010202" fill-rule="nonzero" d="M224.056604,71.6335714 L224.457547,71.7985714 C226.957547,72.3878571 232.40566,68.4278571 237.004717,61.05 C241.603774,53.6721429 242.924528,47.1428571 241.179245,45.1157143 C241.086565,45.0028709 240.974811,44.9071367 240.849057,44.8328571 C240.04717,44.3378571 238.679245,44.55 237.075472,45.4692857 C233.265787,48.0210179 230.087883,51.4066957 227.783019,55.3692857 C222.759434,63.195 221.698113,70.2428571 224.056604,71.6335714"/>
    <path fill="#010202" fill-rule="nonzero" d="M244.834906,48.5807143 L243.584906,47.4021429 C243.272171,52.6544944 241.499786,57.7155575 238.466981,62.0164286 C236.093546,66.204061 232.774243,69.7797567 228.773585,72.4585714 L227.59434,73.0714286 L229.339623,73.7314286 C230.070755,74.1792857 231.320755,73.9671429 232.806604,73.1185714 C236.350592,70.7556283 239.303934,67.6104225 241.438679,63.9257143 C243.419996,60.8724813 244.856382,57.498904 245.683962,53.955 C246.226415,51.315 245.943396,49.3821429 244.95283,48.7457143 L244.834906,48.5807143 Z"/>
    <path fill="#FFFFFF" fill-rule="nonzero" d="M29.5518868,79.9542857 C25.1179245,76.0414286 23.4433962,71.3742857 25.2358491,67.98 L26.9811321,63.6428571 C27.1242139,63.135837 27.3219115,62.6458273 27.5707547,62.1814286 C30.2358491,57.4671429 37.9481132,57.3021429 45.5188679,61.6392857 C46.986634,62.4768763 48.3689894,63.4558141 49.6462264,64.5621429 C54.3632075,68.7578571 56.1792453,73.7785714 54.1273585,77.3614286 C53.8601152,77.8114625 53.5437123,78.2304569 53.1839623,78.6107143 L50.2830189,82.3585714 C47.6650943,86.5778571 40.4716981,86.7664286 33.4198113,82.7592857 C32.0451188,81.9659033 30.7498618,81.042376 29.5518868,80.0014286"/>
    <path fill="#010202" fill-rule="nonzero" d="M30.6603774,63.855 C30.5709332,64.0113535 30.4997138,64.1774372 30.4481132,64.35 C30.4378866,64.3965889 30.4378866,64.4448397 30.4481132,64.4914286 C29.5990566,67.3435714 32.8066038,71.8928571 38.0188679,74.8392857 C40.5554677,76.378628 43.4293243,77.2767007 46.3915094,77.4557143 C47.9860599,77.6567303 49.59064,77.1679131 50.8018868,76.1121429 L50.9198113,76.1121429 L51.2028302,75.7114286 C52.3820755,73.6607143 50.8726415,70.2428571 47.4292453,67.2492857 C46.343762,66.2737094 45.1486604,65.4273332 43.8679245,64.7271429 C38.3254717,61.545 32.2877358,61.215 30.7075472,63.9728571"/>
    <path fill="#010202" fill-rule="nonzero" d="M47.4292453,80.2842857 L48.3962264,79.0585714 C47.6797277,79.18 46.9526251,79.2273926 46.2264151,79.2 C42.9836493,78.9982868 39.836988,78.0200646 37.0518868,76.3478571 C35.6756186,75.5659728 34.3800168,74.6500952 33.1839623,73.6135714 C31.3536043,72.0890696 29.9142612,70.1494913 28.9858491,67.9564286 L28.3490566,69.5121429 C27.2641509,71.4214286 28.6792453,74.5564286 31.8396226,77.3378571 C32.8624112,78.2271494 33.9680908,79.0164693 35.1415094,79.695 C40.3066038,82.6414286 45.8962264,82.9478571 47.3584906,80.4021429 L47.4292453,80.2842857 Z"/>
    <path fill="#010101" fill-rule="nonzero" d="M59.8584906,114.368571 C69.9946208,114.417011 80.1044563,113.333868 90,111.139286 C80.3066038,-7.51928571 232.523585,40.3542857 245.943396,0 C226.20283,35.8521429 49.5283019,-22.9585714 59.8584906,114.368571"/>
    <path stroke="#FFFFFF" stroke-width="2.358" d="M59.8584906,114.368571 C69.9946208,114.417011 80.1044563,113.333868 90,111.139286 C80.3066038,-7.51928571 232.523585,40.3542857 245.943396,0 C226.20283,35.8521429 49.5283019,-22.9585714 59.8584906,114.368571" stroke-linecap="round"/>
    <path fill="#010101" fill-rule="nonzero" d="M90,111.139286 C98.490566,109.512857 108.325472,107.226429 119.221698,104.232857 C108.349057,1.98 238.79717,45.0685714 245.943396,0 C232.523585,40.3542857 80.3066038,-7.51928571 90,111.139286"/>
    <path stroke="#FFFFFF" stroke-width="2.358" d="M90,111.139286 C98.490566,109.512857 108.325472,107.226429 119.221698,104.232857 C108.349057,1.98 238.79717,45.0685714 245.943396,0 C232.523585,40.3542857 80.3066038,-7.51928571 90,111.139286" stroke-linecap="round"/>
    <path fill="#010101" fill-rule="nonzero" d="M119.221698,104.232857 L123.938679,102.936429 C133.372642,100.202143 141.533019,97.6092857 148.325472,95.1342857 C138.301887,12.1392857 245.117925,49.5 245.943396,0 C238.867925,45.0685714 108.349057,1.98 119.221698,104.232857"/>
    <path stroke="#FFFFFF" stroke-width="2.358" d="M119.221698,104.232857 L123.938679,102.936429 C133.372642,100.202143 141.533019,97.6092857 148.325472,95.1342857 C138.301887,12.1392857 245.117925,49.5 245.943396,0 C238.867925,45.0685714 108.349057,1.98 119.221698,104.232857" stroke-linecap="round"/>
    <path fill="#010101" fill-rule="nonzero" d="M148.207547,95.1342857 C158.024943,91.9129472 167.447658,87.5956823 176.29717,82.2642857 C165.707547,16.3114286 251.415094,54.2142857 245.943396,0 C245.117925,49.5 138.301887,12.1392857 148.207547,95.1342857"/>
    <path stroke="#FFFFFF" stroke-width="2.358" d="M148.207547,95.1342857 C158.024943,91.9129472 167.447658,87.5956823 176.29717,82.2642857 C165.707547,16.3114286 251.415094,54.2142857 245.943396,0 C245.117925,49.5 138.301887,12.1392857 148.207547,95.1342857" stroke-linecap="round"/>
    <path fill="#FFFFFF" fill-rule="nonzero" d="M245.849057,88.9114286 C246.724825,86.676734 245.928234,84.1340088 243.933673,82.7975107 C241.939113,81.4610126 239.283021,81.690194 237.54717,83.3485714 C234.033019,86.6957143 230.471698,90.0192857 226.721698,93.225 C226.105358,93.749076 225.634286,94.4228115 225.353774,95.1814286 C223.985849,98.5521429 222.617925,101.993571 221.226415,105.435 L219.764151,104.28 C217.901461,102.820541 215.282502,102.820541 213.419811,104.28 C209.669811,107.226429 205.825472,110.125714 202.028302,112.86 C200.71845,113.802126 199.924473,115.301972 199.882075,116.914286 C199.882075,117.126429 199.882075,117.315 199.882075,117.503571 C195.661042,118.220767 191.641133,119.827812 188.089623,122.217857 C182.45283,125.847857 176.674528,129.289286 170.896226,132.471429 C169.349692,133.339686 168.360199,134.943352 168.278302,136.714286 L168.042453,136.714286 C166.565829,135.938901 164.802095,135.938901 163.325472,136.714286 C155.259434,140.862857 147.028302,144.610714 138.84434,147.84 C138.297897,148.044172 137.794091,148.347882 137.358491,148.735714 C136.777915,148.749523 136.203828,148.861087 135.660377,149.065714 C125.064744,153.10478 114.196404,156.389412 103.136792,158.895 L102.806604,158.895 C92.3286888,161.240851 81.6828519,162.761941 70.9669811,163.444286 C69.5160046,163.521105 68.167714,164.216322 67.2641509,165.353571 C67.0326452,165.63614 66.8347773,165.944637 66.6745283,166.272857 C63.2755084,164.242577 59.4069823,163.129793 55.4481132,163.043571 C49.8381976,162.725042 44.3456489,164.735784 40.2688961,168.600462 C36.1921433,172.465139 33.8930414,177.840721 33.9150943,183.456429 C33.9145404,184.29914 33.961786,185.141205 34.0566038,185.978571 L33.4669811,185.978571 L33.4669811,165.848571 C33.4659465,163.397089 31.7247423,161.29104 29.3160377,160.827857 C25.6603774,160.097143 22.0754717,159.272143 18.6556604,158.470714 C16.9975191,158.019299 15.2233771,158.429757 13.9323853,159.563473 C12.6413936,160.697189 12.0059176,162.402795 12.240566,164.104286 L13.1603774,170.751429 L13.1603774,195.171429 C13.1483401,197.493856 14.7103472,199.530093 16.9575472,200.121429 C24.4083011,202.085435 31.9907602,203.511257 39.6462264,204.387857 C41.2311557,204.577115 42.8127377,204.009468 43.9150943,202.855714 L44.1273585,202.62 C47.3550917,204.812847 51.1455935,206.031988 55.0471698,206.132143 L55.6367925,206.132143 C61.2330358,206.107441 66.5855087,203.840308 70.495283,199.838571 C74.6268487,195.703873 76.9505679,190.101316 76.9575472,184.257857 C76.9824972,183.01806 76.8877186,181.778749 76.6745283,180.557143 L78.254717,180.415714 L78.254717,198.942857 C78.2792744,200.389505 78.9129229,201.758773 80,202.714286 C81.0970942,203.699701 82.5706088,204.156143 84.0330189,203.963571 C87.8301887,203.515714 91.6509434,202.926429 95.3773585,202.29 C97.8128041,201.837864 99.5841625,199.721361 99.5990566,197.245714 L99.5990566,177.351429 C101.816038,176.903571 104.056604,176.432143 106.29717,175.913571 L106.768868,175.913571 C108.246855,175.583571 109.732704,175.23 111.226415,174.852857 L111.226415,192.437143 C111.240919,193.991734 111.971866,195.452792 113.207547,196.397143 C114.480025,197.377939 116.140938,197.701195 117.688679,197.269286 C121.462264,196.208571 125.306604,194.912143 129.150943,193.757143 C131.233863,193.051326 132.636909,191.099554 132.641509,188.901429 L132.641509,168.3 L136.792453,166.838571 L136.792453,183.645 C136.814416,185.365757 137.700691,186.96014 139.150943,187.887857 C140.550136,188.80379 142.302977,188.996493 143.867925,188.406429 C152.91226,184.767824 161.767783,180.676943 170.400943,176.149286 C171.661506,175.489771 172.592252,174.337671 172.971698,172.967143 C174.277219,173.368537 175.689777,173.22396 176.886792,172.566429 C180.943396,170.209286 185.070755,167.852143 189.174528,165.353571 C190.963182,164.260494 191.899139,162.183856 191.533019,160.120714 L191.037736,156.891429 C192.783019,157.457143 194.528302,158.046429 196.273585,158.588571 C197.753311,159.035263 199.355603,158.792893 200.636792,157.928571 C205.353774,154.793571 209.834906,151.493571 214.339623,148.099286 C215.799777,146.996464 216.563274,145.201026 216.34434,143.385 C218.031657,144.024912 219.931472,143.729355 221.34434,142.607143 C225.212264,139.519286 229.080189,136.266429 232.877358,132.99 C234.21487,131.814519 234.848401,130.030943 234.551887,128.275714 L233.632075,122.854286 L233.632075,119.342143 C237.783019,109.277143 241.886792,99.0471429 245.849057,88.9114286"/>
    <path fill="#010101" fill-rule="nonzero" d="M28.4433962,190.08 C31.9811321,190.763571 35.5188679,191.329286 39.1981132,191.777143 L40.3301887,199.296429 C32.9218838,198.446924 25.5839418,197.068399 18.3726415,195.171429 C18.3726415,186.874286 18.3726415,178.671429 18.3726415,170.28 C18.0660377,167.922857 17.7358491,165.565714 17.4056604,163.208571 C21.0377358,164.198571 24.7169811,165.047143 28.4433962,165.777857 C28.4433962,173.839286 28.4433962,181.916429 28.4433962,190.009286 M71.9339623,184.234286 C71.9653582,188.670421 70.2256918,192.935982 67.1003071,196.086127 C63.9749225,199.236272 59.7217974,201.010979 55.2830189,201.017143 C46.2264151,200.781429 39.1745283,192.484286 39.1273585,183.338571 C39.0973145,179.103373 40.8362641,175.047609 43.9253287,172.148233 C47.0143932,169.248856 51.173551,167.768693 55.4009434,168.064286 C64.4226039,167.985735 71.8067197,175.218034 71.9103774,184.234286 M55.4009434,175.89 C52.5,175.89 50.0707547,179.543571 50.0943396,184.328571 C50.1179245,189.113571 52.4528302,193.144286 55.3773585,193.215 C58.3018868,193.285714 60.6132075,189.396429 60.6603774,184.611429 C60.7075472,179.826429 58.3018868,175.960714 55.4009434,175.89 M137.570755,153.685714 C126.814036,157.797344 115.780324,161.14495 104.551887,163.703571 L104.127358,163.703571 C93.3903978,166.1443 82.4749263,167.720778 71.4858491,168.417857 C71.8632075,170.775 72.2641509,173.320714 72.6415094,175.748571 C76.2735849,175.512857 79.9292453,175.159286 83.6084906,174.711429 L83.6084906,198.966429 C87.2641509,198.518571 90.9669811,197.952857 94.6698113,197.316429 C94.6698113,189.239286 94.6698113,181.154286 94.6698113,173.061429 C98.2311321,172.448571 101.745283,171.717857 105.377358,170.892857 L105.801887,170.892857 C109.386792,170.075714 112.971698,169.156429 116.556604,168.135 L116.556604,192.413571 C120.283019,191.352857 124.033019,190.221429 127.759434,188.972143 C127.759434,180.879286 127.759434,172.794286 127.759434,164.717143 C131.509434,163.467857 135.235849,162.124286 138.985849,160.686429 L137.783019,153.756429 M142.122642,158.800714 C141.745283,156.702857 141.391509,154.605 141.014151,152.507143 C149.394654,149.207143 157.720126,145.427857 165.990566,141.169286 C166.367925,143.526429 166.768868,145.695 167.169811,147.957857 C162.45283,150.315 157.924528,152.672143 153.301887,154.699286 C153.301887,156.231429 153.301887,157.763571 153.301887,159.413571 C157.688679,157.433571 162.028302,155.335714 166.367925,153.096429 L167.45283,159.696429 C162.735849,162.147857 158.018868,164.457857 153.301887,166.626429 C153.301887,168.252857 153.301887,169.855714 153.301887,171.482143 C157.877358,169.407857 162.444969,167.192143 167.004717,164.835 C167.40566,167.192143 167.806604,169.360714 168.183962,171.623571 C159.708301,176.073566 151.009759,180.085984 142.122642,183.645 C142.122642,175.324286 142.122642,167.145 142.122642,158.73 M211.462264,144.045 C207.004717,147.415714 202.523585,150.621429 197.971698,153.709286 C195.613208,152.931429 192.995283,152.106429 190.495283,151.352143 C189.033019,152.295 185.613208,154.416429 185.613208,154.416429 C185.601502,154.62841 185.601502,154.840876 185.613208,155.052857 L186.674528,161.134286 C182.665094,163.601429 178.639937,165.958571 174.599057,168.205714 C174.599057,159.908571 174.599057,151.705714 174.599057,143.290714 C174.221698,141.24 173.867925,139.212857 173.514151,137.162143 C179.386792,133.932857 185.306604,130.444286 190.990566,126.743571 C199.95283,121.015714 207.099057,121.133571 207.122642,127.804286 C207.122642,131.528571 204.764151,136.549286 201.226415,141.287143 C204.646226,142.324286 208.018868,143.290714 211.367925,144.162857 M196.415094,135.3 C196.415094,132.777857 193.372642,132.636429 189.646226,134.993571 C188.985849,135.417857 185.542453,137.562857 185.542453,137.539286 C185.542453,140.697857 185.542453,143.832857 185.542453,146.967857 L189.575472,144.445714 C193.372642,142.088571 196.367925,137.845714 196.391509,135.276429 M228.514151,118.328571 L228.514151,123.349286 L229.504717,129.218571 C225.778302,132.471429 221.988994,135.614286 218.136792,138.647143 C218.136792,134.710714 218.136792,130.797857 218.136792,126.861429 C213.79717,123.718571 209.402516,120.418571 204.95283,116.961429 C208.84434,114.18 212.712264,111.257143 216.533019,108.263571 L223.372642,113.567143 C225.605346,108.067143 227.830189,102.567143 230.04717,97.0671429 C233.75,93.8142857 237.429245,90.4907143 241.037736,87.0492857 C236.949686,97.6092857 232.775157,108.035714 228.514151,118.328571"/>
    <path fill="#FFFFFF" fill-rule="nonzero" d="M90.2830189 153.662143L90.2830189 137.445C91.6509434 137.162143 93.0424528 136.879286 94.4103774 136.549286L94.4103774 153.049286C93.0424528 153.237857 91.6509434 153.426429 90.2830189 153.567857M102.075472 151.493571C98.5377358 152.13 98.490566 150.338571 98.490566 147.957857L98.490566 139.849286C98.5349983 138.393653 98.4798384 136.936687 98.3254717 135.488571L102.45283 134.097857C102.593911 135.081344 102.657001 136.074435 102.641509 137.067857L102.641509 145.977857C102.641509 148.099286 102.641509 148.641429 103.65566 148.476429L104.080189 148.311429C104.316038 149.112857 104.551887 149.890714 104.764151 150.668571 103.923422 151.11315 103.014954 151.4158 102.075472 151.564286M110.683962 149.772857C107.122642 150.574286 107.051887 148.782857 107.051887 146.402143L107.051887 138.222857C107.090132 136.775619 107.04288 135.327387 106.910377 133.885714L111.061321 132.282857C111.201166 133.258562 111.264253 134.243724 111.25 135.229286L111.25 144.162857C111.25 146.260714 111.25 146.826429 112.264151 146.52 112.422737 146.481758 112.574071 146.418074 112.712264 146.331429 112.924528 147.132857 113.160377 147.910714 113.372642 148.688571 112.534853 149.169869 111.628048 149.519664 110.683962 149.725714M117.924528 134.710714C117.389635 134.911338 116.79036 134.837611 116.320118 134.513329 115.849876 134.189048 115.568214 133.655275 115.566038 133.084286 115.670607 131.710655 116.606589 130.541347 117.924528 130.137857 118.455363 129.913728 119.063706 129.97395 119.540232 130.297802 120.016758 130.621655 120.296431 131.164938 120.283019 131.740714 120.181331 133.120685 119.246125 134.298372 117.924528 134.710714M115.825472 148.17L115.825472 136.384286C117.240566 135.889286 118.632075 135.394286 120.04717 134.852143L120.04717 147.062143C118.632075 147.462857 117.240566 147.863571 115.825472 148.217143M130.778302 143.644286L130.778302 135.912857C130.778302 134.616429 130.330189 134.757857 129.740566 134.97 129.192761 135.251499 128.716752 135.654666 128.349057 136.148571L128.349057 144.422143C126.957547 144.893571 125.542453 145.365 124.150943 145.789286L124.150943 138.152143C124.180884 136.876481 124.054151 135.601965 123.773585 134.357143L127.641509 132.495C127.772131 132.828165 127.859325 133.17674 127.900943 133.532143 128.905625 132.478616 130.140697 131.671841 131.509434 131.175 134.433962 130.137857 135.023585 131.552143 135.023585 133.225714L135.023585 142.23C133.608491 142.748571 132.193396 143.267143 130.801887 143.738571M144.150943 138.906429C140.566038 140.415 138.349057 138.906429 138.349057 134.993571 138.424491 131.115214 140.796565 127.651742 144.386792 126.177857 147.45283 124.881429 150.070755 125.376429 150.070755 129.69 150.13859 133.674405 147.803916 137.309208 144.150943 138.906429M144.150943 129.077143C143.278302 129.430714 142.830189 130.255714 142.830189 133.225714 142.830189 135.582857 142.971698 136.525714 144.174528 136.030714 145.377358 135.535714 145.471698 134.451429 145.471698 131.575714 145.471698 129.218571 145.141509 128.652857 144.150943 129.077143M155.377358 120.544286C154.103774 121.180714 153.018868 120.662143 153.018868 119.412857 153.16606 117.932803 154.054011 116.628262 155.377358 115.947857 156.721698 115.287857 157.735849 115.806429 157.735849 117.055714 157.59634 118.544437 156.707307 119.859454 155.377358 120.544286M153.301887 134.357143L153.301887 122.571429 157.476415 120.214286 157.476415 132.424286 153.301887 134.357143M165.872642 128.205C164.232242 129.102717 162.389014 129.565289 160.518868 129.548571 161.014151 128.322857 161.509434 127.191429 161.981132 125.847857 163.357323 125.968657 164.74215 125.750125 166.014151 125.211429 166.675428 124.899564 167.154574 124.298797 167.311321 123.585 167.311321 122.925 166.910377 122.972143 165.683962 123.396429L164.080189 123.938571C162.099057 124.598571 161.20283 123.938571 161.20283 122.194286 161.581675 119.193689 163.492904 116.605185 166.25 115.358571 167.72915 114.482859 169.393227 113.966159 171.108491 113.85L169.834906 117.102857C168.771582 117.145688 167.731621 117.427687 166.792453 117.927857 166.254241 118.15659 165.859189 118.630381 165.731132 119.200714 165.731132 119.601429 166.014151 119.79 167.028302 119.436429L168.537736 118.917857C170.707547 118.14 171.580189 118.776429 171.580189 120.685714 171.08073 123.999033 168.930683 126.831566 165.872642 128.205M237.5 126.39C237.423039 124.391613 238.568238 122.546802 240.393918 121.728165 242.219599 120.909527 244.359792 121.281163 245.802187 122.667288 247.244581 124.053414 247.70004 126.176172 246.953132 128.031497 246.206224 129.886823 244.40667 131.102806 242.40566 131.104286 241.122279 131.155633 239.873443 130.681713 238.947599 129.791986 238.021754 128.90226 237.498972 127.673675 237.5 126.39zM242.40566 122.571429C240.834359 122.484589 239.368771 123.363642 238.706294 124.790293 238.043816 126.216944 238.318244 127.903066 239.398991 129.046319 240.479737 130.189573 242.148535 130.559067 243.611289 129.978978 245.074043 129.398889 246.035335 127.986372 246.037736 126.413571 246.089313 125.416426 245.730312 124.441628 245.044211 123.715846 244.358111 122.990063 243.404695 122.576539 242.40566 122.571429zM241.580189 129.006429L240.566038 129.006429 240.566038 123.773571 242.523585 123.773571C243.867925 123.773571 244.646226 124.150714 244.646226 125.352857 244.646226 126.555 244.080189 126.672857 243.207547 126.72L244.551887 129.077143 243.419811 129.077143 242.216981 126.885 241.674528 126.885 241.580189 129.006429zM241.580189 125.942143L242.570755 125.942143C243.183962 125.942143 243.419811 125.659286 243.419811 125.258571 243.419811 124.857857 243.066038 124.669286 242.523585 124.669286L241.580189 124.669286 241.580189 125.942143z"/>
  </g>
</svg>
