<svg xmlns="http://www.w3.org/2000/svg" width="222" height="248" viewBox="0 0 222 248">
  <g fill="none" fill-rule="evenodd">
    <path fill="#FFFFFF" fill-rule="nonzero" d="M200.123563,246.331636 L200.123563,228.674036 L213.533441,228.674036 L213.533441,246.331636 L200.123563,246.331636 Z M9.61700405,76.6545455 L24.482915,76.6545455 L24.482915,14.7808 L34.0909312,14.7808 L34.0909312,0 L0,0 L0,14.7808 L9.61700405,14.7808 L9.61700405,76.6545455 Z M53.1631579,44.0628364 L61.728583,44.0628364 L61.728583,76.6545455 L76.5944939,76.6545455 L76.5944939,0 L61.728583,0 L61.728583,28.7048727 L53.1631579,28.7048727 L53.1631579,0 L38.297247,0 L38.297247,76.6545455 L53.1631579,76.6545455 L53.1631579,44.0628364 Z M116.976923,61.9098182 L98.1024291,61.9098182 L98.1024291,44.8293818 L114.019919,44.8293818 L114.019919,30.0485818 L98.0844534,30.0485818 L98.0844534,14.7808 L116.257895,14.7808 L116.257895,0 L83.2185425,0 L83.2185425,76.6545455 L116.985911,76.6545455 L116.976923,61.9098182 Z M21.0855061,163.229091 C36.5985425,163.229091 41.2812146,151.036509 41.2812146,143.650618 C41.2812146,128.193455 34.4144939,124.450909 28.922915,118.688291 C22.8651012,113.277382 16.5646154,108.037818 16.5646154,103.429527 C16.5646154,99.8763636 18.5059919,97.6669091 21.6517409,97.6669091 C25.8490688,97.6669091 26.334413,102.2752 26.334413,106.116945 L26.334413,110.247273 L40.2386235,110.247273 L40.2386235,103.330327 C40.2386235,91.5255273 34.5762753,84.0404364 21.6517409,84.0404364 C9.77878543,84.0224 2.69635628,90.4523636 2.69635628,105.512727 C2.69635628,117.236364 8.67327935,121.447855 14.6502024,127.300655 C20.5462348,132.386909 26.4422672,136.905018 26.4422672,143.623564 C26.4422672,146.978327 24.6446964,149.575564 21.274251,149.575564 C17.0769231,149.575564 16.2680162,145.733818 16.2680162,141.603491 L16.2680162,135.940073 L1.88744939,135.940073 L1.88744939,144.200727 C1.86048583,152.1728 6.38137652,163.229091 21.0855061,163.229091 Z M47.8333603,161.984582 L62.6992713,161.984582 L62.6992713,85.3300364 L47.8333603,85.3300364 L47.8333603,161.984582 Z M84.6835628,85.3300364 L69.808664,85.3300364 L69.808664,161.966545 L100.825749,161.966545 L100.825749,147.185745 L84.6476113,147.185745 L84.6835628,85.3300364 Z M122.819028,85.3300364 L117.884696,139.781818 L117.740891,139.781818 L113.696356,85.2578909 L98.5068826,85.2578909 L108.393522,161.957527 L126.728745,161.957527 L137.720891,85.3029818 L122.819028,85.3300364 Z M175.415951,147.248873 L156.541457,147.248873 L156.541457,130.114327 L172.458947,130.114327 L172.458947,115.315491 L156.496518,115.315491 L156.496518,100.101818 L174.678947,100.101818 L174.678947,85.2669091 L141.630607,85.2669091 L141.630607,161.966545 L175.406964,161.966545 L175.415951,147.248873 Z M220.175466,147.537455 L220.175466,134.010182 C220.175466,127.580218 216.778057,123.062109 211.52915,121.8176 L211.52915,121.628218 C219.447449,118.7424 220.517004,112.8896 220.517004,103.871418 C220.517004,90.0465455 214.944534,85.3390545 201.687449,85.3390545 L182.031012,85.3390545 L182.031012,161.966545 L196.896923,161.966545 L196.896923,128.851782 L199.647206,128.851782 C203.844534,128.851782 205.300567,130.772655 205.300567,135.164509 L205.300567,147.456291 C205.300567,152.542545 205.300567,159.450473 206.999271,161.948509 L221.703401,161.948509 C220.004696,159.468509 220.202429,152.560582 220.202429,147.474327 L220.175466,147.537455 Z M200.528016,115.793455 L196.932874,115.793455 L196.932874,98.2981818 L199.844939,98.2981818 C205.660081,98.2981818 205.660081,101.373382 205.660081,106.748218 C205.62413,111.762327 205.62413,115.793455 200.528016,115.793455 Z M40.5442105,231.839418 L40.5442105,218.312145 C40.5442105,211.882182 37.1468016,207.373091 31.8978947,206.128582 L31.8978947,205.930182 C39.8161943,203.053382 40.885749,197.200582 40.885749,188.173382 C40.885749,174.348509 35.3132794,169.650036 22.0651822,169.650036 L2.42672065,169.650036 L2.42672065,246.304582 L17.2926316,246.304582 L17.2926316,213.216873 L20.0339271,213.216873 C24.2402429,213.216873 25.6962753,215.137745 25.6962753,219.5296 L25.6962753,231.812364 C25.6962753,236.898618 25.6962753,243.815564 27.3859919,246.304582 L42.0901215,246.304582 C40.4453441,243.842618 40.5621862,236.925673 40.5621862,231.839418 L40.5442105,231.839418 Z M20.9237247,200.203636 L17.328583,200.203636 L17.328583,182.690327 L20.2316599,182.690327 C26.0468016,182.690327 26.0468016,185.765527 26.0468016,191.140364 C26.0108502,196.136436 26.0108502,200.203636 20.9237247,200.203636 Z M165.376518,207.652655 L165.214737,207.652655 L161.008421,169.641018 L137.595061,169.641018 L137.595061,246.295564 L151.975628,246.295564 L151.975628,186.730473 L152.137409,186.730473 L160.451174,246.331636 L170.149069,246.331636 L178.471822,186.730473 L178.633603,186.730473 L178.633603,246.331636 L193.01417,246.331636 L193.01417,169.677091 L169.582834,169.677091 L165.376518,207.652655 Z M84.9262348,188.065164 C85.0511148,194.191582 83.2801174,200.206196 79.857085,205.280873 C77.3764372,208.888145 73.9340891,212.278982 70.7703644,215.723927 L70.7703644,226.942545 C70.7703644,228.746182 70.7703644,232.957673 67.6785425,233.796364 L84.422915,240.199273 L84.422915,240.650182 C85.2138462,238.025891 85.6362753,228.665018 85.6362753,225.409455 L85.6362753,190.5632 C85.707804,186.890229 85.0982603,183.235916 83.8387045,179.786473 C84.5970682,182.479004 84.9633693,185.267426 84.9262348,188.065164 Z"/>
    <path fill="#F2E9D8" fill-rule="nonzero" d="M66.5101215,233.949673 C66.9107226,233.9534 67.3099305,233.901813 67.6965182,233.796364 L65.305749,233.796364 C65.6982504,233.902894 66.103542,233.954485 66.5101215,233.949673 Z"/>
    <path fill="#A3A3A3" fill-rule="nonzero" d="M92.2693117,190.5632 C92.2693117,175.593018 100.358381,168.396509 111.413441,168.396509 C122.468502,168.396509 130.557571,175.611055 130.557571,190.5632 L130.557571,225.454545 C130.557571,239.081018 123.205506,247.630255 111.413441,247.630255 C99.6213765,247.630255 92.2693117,239.081018 92.2693117,225.454545 L92.2693117,190.5632 Z M107.135223,226.942545 C107.135223,228.962618 107.135223,233.949673 111.413441,233.949673 C115.69166,233.949673 115.69166,228.962618 115.69166,226.942545 L115.69166,189.066182 C115.69166,186.477964 115.69166,182.059055 111.413441,182.059055 C107.135223,182.059055 107.135223,186.477964 107.135223,189.066182 L107.135223,226.942545 Z M66.5101215,233.949673 C66.1095541,233.952834 65.7104227,233.901257 65.3237247,233.796364 L59.9939271,233.796364 C60.4928154,231.689638 61.2379784,229.649417 62.2139271,227.718109 C64.1083111,224.017526 66.4574685,220.56976 69.2064777,217.455418 C69.7097976,216.878255 70.2310931,216.301091 70.7523887,215.723927 C73.9161134,212.278982 77.3584615,208.906182 79.8391093,205.280873 C83.2621417,200.206196 85.0331391,194.191582 84.9082591,188.065164 C84.9483169,185.267864 84.5850441,182.47945 83.8297166,179.786473 C81.4838866,171.904582 75.4260729,167.999709 66.5730364,167.999709 C55.2123887,167.999709 49.8196761,173.022836 48.0221053,183.538036 C47.67999,185.605883 47.466863,187.693142 47.3839676,189.787636 L47.3839676,195.739636 L61.4948988,195.739636 L61.4948988,188.155345 C61.4948988,184.602182 61.9173279,181.058036 65.6562753,181.058036 C66.9133842,180.968355 68.1192628,181.573329 68.8020243,182.636218 C69.7008097,184.006982 69.8176518,186.081164 69.8176518,188.155345 C69.8176518,195.577309 66.4292308,200.131491 62.2139271,204.802909 C56.9470445,210.637673 50.3948988,216.670836 47.5008097,228.692073 C46.6332484,232.399092 46.1453718,236.18534 46.0447773,239.991855 L46.0447773,246.403782 L85.3127126,246.403782 L85.3127126,233.778327 L67.6785425,233.778327 C67.2985937,233.888244 66.9055293,233.945885 66.5101215,233.949673 Z"/>
    <rect width="14.012" height="1" x="47.402" y="195.686"/>
    <rect width="1" height="1" x="61.414" y="195.686" fill="#070405" fill-rule="nonzero"/>
    <path fill="#FFFFFF" fill-rule="nonzero" d="M47.4019433,195.694545 L47.3480162,195.694545 L47.3480162,225.454545 C47.3480162,226.581818 47.4019433,227.682036 47.5008097,228.737164 C50.3948988,216.715927 56.1561134,211.485382 61.4140081,205.650618 L61.4140081,195.739636 L47.4019433,195.739636 L47.4019433,195.694545 Z"/>
  </g>
</svg>
