<svg xmlns="http://www.w3.org/2000/svg" width="453" height="153" viewBox="0 0 453 153">
  <path fill="#FFFFFF" d="M50.6311572,78.0365385 L79.1266376,39.9807692 L67.2576419,39.9807692 C61.9462664,39.9807692 58.5042576,41.8564103 55.695262,45.5978205 L40.6315284,65.7165385 L26.1018996,45.5978205 C23.2830131,41.8564103 19.8508952,39.9807692 14.5296288,39.9807692 L2.66063319,39.9807692 L30.7901528,78.0365385 L0,119.527692 L11.2557642,119.527692 C16.5671397,119.527692 19.9992576,117.652051 22.8181441,113.910641 L40.6216376,90.3565385 L82.351048,147.918974 C85.0017904,151.660385 88.6020524,153.526154 93.9134279,153.526154 L106.09893,153.526154 L50.6311572,78.0365385 Z M278.327948,119.498077 L294.420328,119.498077 L294.420328,39.9807692 L278.327948,39.9807692 L278.327948,119.498077 Z M150.647227,119.498077 L166.749498,119.498077 L166.749498,39.9807692 L150.647227,39.9807692 L150.647227,119.498077 Z M394.752904,147.573462 L453,39.9807692 L444.246616,39.9807692 C438.93524,39.9807692 434.870109,41.5405128 432.684236,45.5978205 L409.757293,88.1748718 L389.906397,45.5978205 C387.928231,41.3825641 383.655393,39.9807692 378.344017,39.9807692 L369.917031,39.9807692 L400.578603,104.868077 L373.873362,153.526154 L382.616856,153.526154 C388.02714,153.526154 392.408777,151.818333 394.752904,147.603077 L394.752904,147.573462 Z M185.947598,39.9807692 L185.947598,119.527692 L202.039978,119.527692 L202.039978,64.9366667 C207.044738,57.9178205 214.235371,53.5544872 223.137118,53.5544872 C235.006114,53.5544872 243.146266,61.0373077 243.146266,76.0128205 L243.146266,111.886923 C243.034007,113.917971 243.782285,115.90258 245.208281,117.355874 C246.634276,118.809168 248.606651,119.597292 250.643515,119.527692 L259.238646,119.527692 L259.238646,73.199359 C259.238646,52.6166667 246.113515,38.2630769 227.043996,38.2630769 C217.792587,38.1038533 208.836202,41.5126109 202.039978,47.7794872 L202.039978,39.9807692 L185.947598,39.9807692 Z M324.25107,91.3141026 C324.25107,108.629231 334.873821,120.929487 353.923559,120.929487 C357.885561,120.979814 361.833812,120.454393 365.644192,119.369744 L362.4,105.332051 C359.991078,105.868109 357.52901,106.129739 355.061004,106.111923 C347.247249,106.111923 340.363231,101.906538 340.363231,90.9883333 L340.363231,54.2948718 L362.87476,54.2948718 L356.307249,39.9807692 L340.363231,39.9807692 L340.363231,8.00602564 L324.270852,15.0248718 L324.270852,39.9807692 L307.238843,39.9807692 L307.238843,54.2948718 L324.270852,54.2948718 L324.25107,91.3141026 Z M101.113952,54.2948718 L101.113952,119.448718 L117.206332,119.448718 L117.206332,54.2948718 L137.838603,54.2948718 L137.838603,39.9807692 L117.206332,39.9807692 L117.206332,34.0576923 C117.206332,20.4839744 125.336594,15.9626923 133.298712,15.9626923 C135.150264,15.9551276 136.992972,16.217865 138.768341,16.7425641 L142.052096,2.54692308 C138.840892,1.42744602 135.452775,0.898967017 132.052467,0.987179487 C112.05321,0.987179487 101.113952,15.7948718 101.113952,33.7417949 L101.113952,39.9807692 L92.6671834,39.9807692 L82.5093013,54.2948718 L101.113952,54.2948718 Z" transform="translate(0 -1)"/>
</svg>
