<svg xmlns="http://www.w3.org/2000/svg" width="336" height="450" viewBox="0 0 336 450">
  <g fill="none" fill-rule="evenodd" transform="translate(0 1)">
    <path fill="#FFFFFF" d="M105.734702 394.9573C105.734702 386.5093 102.487702 379.5863 95.9957022 374.1883 89.5017022 368.7913 80.7017022 366.0923 69.5947022 366.0923L25.7107022 366.0923C24.8487022 366.0923 24.1067022 366.4063 23.4807022 367.0313 22.8547022 367.6583 22.5427022 368.4013 22.5427022 369.2603L22.5427022 445.0603C22.5427022 445.9213 22.8547022 446.6643 23.4807022 447.2893 24.1067022 447.9173 24.8487022 448.2283 25.7107022 448.2283L50.9387022 448.2283C51.7977022 448.2283 52.5407022 447.9173 53.1677022 447.2893 53.7927022 446.6643 54.1067022 445.9213 54.1067022 445.0603L54.1067022 422.5313 69.5947022 422.5313C82.7367022 422.5313 92.0447022 420.0493 97.5207022 415.0803 102.995702 410.1143 105.734702 403.4053 105.734702 394.9573M75.2267022 394.6053C75.2267022 396.5613 74.6587022 398.0873 73.5257022 399.1813 72.3907022 400.2783 70.9247022 400.8243 69.1257022 400.8243L54.2237022 400.8243 54.2237022 387.9173 69.1257022 387.9173C71.0027022 387.9173 72.4877022 388.5443 73.5847022 389.7943 74.6787022 391.0473 75.2267022 392.6503 75.2267022 394.6053M159.708802 369.2605C159.708802 368.4005 159.394802 367.6585 158.769802 367.0305 158.142802 366.4055 157.400802 366.0925 156.540802 366.0925L131.195802 366.0925C130.333802 366.0925 129.591802 366.4055 128.966802 367.0305 128.339802 367.6585 128.027802 368.4005 128.027802 369.2605L128.027802 445.0605C128.027802 445.9225 128.339802 446.6645 128.966802 447.2895 129.591802 447.9165 130.333802 448.2285 131.195802 448.2285L199.720802 448.2285C200.580802 448.2285 201.323802 447.9165 201.949802 447.2895 202.575802 446.6645 202.888802 445.9225 202.888802 445.0605L202.888802 427.3425C202.888802 426.4825 202.575802 425.7395 201.949802 425.1135 201.323802 424.4875 200.580802 424.1745 199.720802 424.1745L159.708802 424.1745 159.708802 369.2605zM263.199102 417.9554L302.390102 417.9554C303.249102 417.9554 303.992102 417.6434 304.619102 417.0164 305.244102 416.3914 305.558102 415.6484 305.558102 414.7874L305.558102 399.5334C305.558102 398.6734 305.244102 397.9314 304.619102 397.3044 303.992102 396.6784 303.249102 396.3654 302.390102 396.3654L263.199102 396.3654 263.199102 388.9734 308.843102 388.9734C309.703102 388.9734 310.446102 388.6614 311.072102 388.0344 311.698102 387.4094 312.011102 386.6664 312.011102 385.8054L312.011102 369.2604C312.011102 368.4004 311.698102 367.6584 311.072102 367.0314 310.446102 366.4064 309.703102 366.0924 308.843102 366.0924L235.859102 366.0924C234.998102 366.0924 234.255102 366.4064 233.630102 367.0314 233.003102 367.6584 232.691102 368.4004 232.691102 369.2604L232.691102 445.0604C232.691102 445.9224 233.003102 446.6644 233.630102 447.2894 234.255102 447.9164 234.998102 448.2284 235.859102 448.2284L310.016102 448.2284C310.877102 448.2284 311.619102 447.9164 312.246102 447.2894 312.871102 446.6644 313.185102 445.9224 313.185102 445.0604L313.185102 428.5164C313.185102 427.6554 312.871102 426.9134 312.246102 426.2864 311.619102 425.6614 310.877102 425.3474 310.016102 425.3474L263.199102 425.3474 263.199102 417.9554zM105.734702 303.4343C105.734702 294.9863 102.487702 288.0633 95.9957022 282.6653 89.5017022 277.2683 80.7017022 274.5693 69.5947022 274.5693L25.7107022 274.5693C24.8487022 274.5693 24.1067022 274.8823 23.4807022 275.5083 22.8547022 276.1353 22.5427022 276.8783 22.5427022 277.7373L22.5427022 353.5373C22.5427022 354.3983 22.8547022 355.1413 23.4807022 355.7663 24.1067022 356.3943 24.8487022 356.7053 25.7107022 356.7053L50.9387022 356.7053C51.7977022 356.7053 52.5407022 356.3943 53.1677022 355.7663 53.7927022 355.1413 54.1067022 354.3983 54.1067022 353.5373L54.1067022 331.0083 69.5947022 331.0083C82.7367022 331.0083 92.0447022 328.5263 97.5207022 323.5573 102.995702 318.5903 105.734702 311.8823 105.734702 303.4343M75.2267022 303.0823C75.2267022 305.0383 74.6587022 306.5643 73.5257022 307.6583 72.3907022 308.7553 70.9247022 309.3013 69.1257022 309.3013L54.2237022 309.3013 54.2237022 296.3943 69.1257022 296.3943C71.0027022 296.3943 72.4877022 297.0213 73.5847022 298.2713 74.6787022 299.5243 75.2267022 301.1273 75.2267022 303.0823M158.535402 326.4324L197.726402 326.4324C198.585402 326.4324 199.328402 326.1204 199.955402 325.4934 200.580402 324.8684 200.894402 324.1254 200.894402 323.2644L200.894402 308.0104C200.894402 307.1504 200.580402 306.4084 199.955402 305.7814 199.328402 305.1554 198.585402 304.8424 197.726402 304.8424L158.535402 304.8424 158.535402 297.4504 204.179402 297.4504C205.039402 297.4504 205.782402 297.1384 206.408402 296.5114 207.034402 295.8864 207.347402 295.1434 207.347402 294.2824L207.347402 277.7374C207.347402 276.8774 207.034402 276.1354 206.408402 275.5084 205.782402 274.8834 205.039402 274.5694 204.179402 274.5694L131.195402 274.5694C130.334402 274.5694 129.591402 274.8834 128.966402 275.5084 128.339402 276.1354 128.027402 276.8774 128.027402 277.7374L128.027402 353.5374C128.027402 354.3994 128.339402 355.1414 128.966402 355.7664 129.591402 356.3934 130.334402 356.7054 131.195402 356.7054L205.352402 356.7054C206.213402 356.7054 206.955402 356.3934 207.582402 355.7664 208.207402 355.1414 208.521402 354.3994 208.521402 353.5374L208.521402 336.9934C208.521402 336.1324 208.207402 335.3904 207.582402 334.7634 206.955402 334.1384 206.213402 333.8244 205.352402 333.8244L158.535402 333.8244 158.535402 326.4324zM316.587602 322.6153L316.587602 308.6593C316.587602 297.2963 312.539602 288.7523 304.442602 283.0323 296.347602 277.3123 285.845602 274.4523 272.938602 274.4523 260.031602 274.4523 249.529602 277.3123 241.432602 283.0323 233.336602 288.7523 229.288602 297.3713 229.288602 308.8863L229.288602 322.3883C229.288602 330.3963 231.242602 337.0333 235.155602 342.2953 239.066602 347.5573 244.190602 351.2953 250.526602 353.5063 256.862602 355.7173 264.332602 356.8223 272.938602 356.8223 281.542602 356.8223 289.013602 355.7173 295.349602 353.5063 301.685602 351.2953 306.808602 347.5573 310.720602 342.2953 314.631602 337.0333 316.587602 330.4733 316.587602 322.6153zM284.906602 324.4013C284.906602 327.4333 283.830602 329.7823 281.679602 331.4473 279.527602 333.1113 276.614602 333.9423 272.938602 333.9423 269.260602 333.9423 266.347602 333.1303 264.196602 331.5023 262.044602 329.8753 260.969602 327.5453 260.969602 324.5133L260.969602 306.7623C260.969602 303.7293 262.044602 301.4013 264.196602 299.7733 266.347602 298.1463 269.260602 297.3333 272.938602 297.3333 276.614602 297.3333 279.527602 298.1653 281.679602 299.8303 283.830602 301.4943 284.906602 303.8413 284.906602 306.8743L284.906602 324.4013zM23.4813022 183.985C22.8543022 184.612 22.5423022 185.355 22.5423022 186.215L22.5423022 262.014C22.5423022 262.876 22.8543022 263.618 23.4813022 264.243 24.1063022 264.871 24.8493022 265.182 25.7113022 265.182L51.0553022 265.182C51.9153022 265.182 52.6583022 264.871 53.2843022 264.243 53.9103022 263.618 54.2233022 262.876 54.2233022 262.014L54.2233022 238.781 92.7103022 238.781C93.5703022 238.781 94.3133022 238.47 94.9393022 237.843 95.5653022 237.218 95.8783022 236.475 95.8783022 235.613L95.8783022 217.895C95.8783022 217.036 95.5653022 216.293 94.9393022 215.666 94.3133022 215.041 93.5703022 214.727 92.7103022 214.727L54.2233022 214.727 54.2233022 207.218 100.337302 207.218C101.197302 207.218 101.939302 206.906 102.566302 206.279 103.191302 205.654 103.505302 204.911 103.505302 204.05L103.505302 186.215C103.505302 185.355 103.191302 184.612 102.566302 183.985 101.939302 183.36 101.197302 183.046 100.337302 183.046L25.7113022 183.046C24.8493022 183.046 24.1063022 183.36 23.4813022 183.985M210.163802 230.4286L210.163802 186.1736C210.163802 185.3256 209.849802 184.5916 209.224802 183.9746 208.597802 183.3566 207.855802 183.0466 206.995802 183.0466L182.471802 183.0466C181.610802 183.0466 180.867802 183.3546 180.242802 183.9686 179.615802 184.5846 179.303802 185.3146 179.303802 186.1596L179.303802 232.0346C179.303802 235.1866 178.227802 237.6066 176.077802 239.2966 173.924802 240.9876 171.011802 241.8326 167.335802 241.8326 163.657802 241.8326 160.744802 240.9876 158.593802 239.2966 156.441802 237.6066 155.367802 235.1866 155.367802 232.0346L155.367802 186.1596C155.367802 185.3146 155.053802 184.5846 154.428802 183.9686 153.801802 183.3546 153.058802 183.0466 152.199802 183.0466L127.675802 183.0466C126.813802 183.0466 126.071802 183.3566 125.446802 183.9746 124.819802 184.5916 124.507802 185.3256 124.507802 186.1736L124.507802 230.4286C124.507802 242.4006 128.359802 251.2046 136.065802 256.8426 143.769802 262.4816 154.193802 265.2996 167.335802 265.2996 180.477802 265.2996 190.900802 262.4816 198.605802 256.8426 206.309802 251.2046 210.163802 242.4006 210.163802 230.4286M264.372502 186.2145C264.372502 185.3545 264.058502 184.6125 263.433502 183.9845 262.806502 183.3595 262.064502 183.0465 261.204502 183.0465L235.859502 183.0465C234.997502 183.0465 234.255502 183.3595 233.630502 183.9845 233.003502 184.6125 232.691502 185.3545 232.691502 186.2145L232.691502 262.0145C232.691502 262.8765 233.003502 263.6185 233.630502 264.2435 234.255502 264.8705 234.997502 265.1825 235.859502 265.1825L304.384502 265.1825C305.244502 265.1825 305.987502 264.8705 306.613502 264.2435 307.239502 263.6185 307.552502 262.8765 307.552502 262.0145L307.552502 244.2965C307.552502 243.4365 307.239502 242.6935 306.613502 242.0675 305.987502 241.4415 305.244502 241.1285 304.384502 241.1285L264.372502 241.1285 264.372502 186.2145zM108.198802 138.9056L108.198802 94.6506C108.198802 93.8026 107.884802 93.0686 107.259802 92.4516 106.632802 91.8336 105.890802 91.5236 105.030802 91.5236L80.5068022 91.5236C79.6458022 91.5236 78.9028022 91.8316 78.2778022 92.4456 77.6508022 93.0616 77.3388022 93.7916 77.3388022 94.6366L77.3388022 140.5116C77.3388022 143.6636 76.2628022 146.0836 74.1128022 147.7736 71.9598022 149.4636 69.0468022 150.3096 65.3708022 150.3096 61.6928022 150.3096 58.7798022 149.4636 56.6288022 147.7736 54.4768022 146.0836 53.4028022 143.6636 53.4028022 140.5116L53.4028022 94.6366C53.4028022 93.7916 53.0888022 93.0616 52.4638022 92.4456 51.8368022 91.8316 51.0938022 91.5236 50.2348022 91.5236L25.7108022 91.5236C24.8498022 91.5236 24.1058022 91.8336 23.4818022 92.4516 22.8548022 93.0686 22.5428022 93.8026 22.5428022 94.6506L22.5428022 138.9056C22.5428022 150.8776 26.3948022 159.6816 34.1008022 165.3196 41.8048022 170.9586 52.2288022 173.7766 65.3708022 173.7766 78.5128022 173.7766 88.9358022 170.9586 96.6408022 165.3196 104.344802 159.6816 108.198802 150.8776 108.198802 138.9056M124.625002 92.462C123.998002 93.089 123.686002 93.831 123.686002 94.692L123.686002 113.583C123.686002 114.445 123.998002 115.187 124.625002 115.812 125.250002 116.439 125.993002 116.751 126.855002 116.751L152.082002 116.751 152.082002 170.491C152.082002 171.353 152.394002 172.095 153.020002 172.721 153.646002 173.348 154.388002 173.659 155.250002 173.659L179.421002 173.659C180.281002 173.659 181.024002 173.348 181.651002 172.721 182.276002 172.095 182.589002 171.353 182.589002 170.491L182.589002 116.751 207.817002 116.751C208.677002 116.751 209.420002 116.439 210.046002 115.812 210.672002 115.187 210.985002 114.445 210.985002 113.583L210.985002 94.692C210.985002 93.831 210.672002 93.089 210.046002 92.462 209.420002 91.837 208.677002 91.523 207.817002 91.523L126.855002 91.523C125.993002 91.523 125.250002 91.837 124.625002 92.462M312.480802 114.6388C313.105802 114.0138 313.419802 113.2708 313.419802 112.4088L313.419802 94.6918C313.419802 93.8318 313.105802 93.0898 312.480802 92.4618 311.853802 91.8368 311.111802 91.5238 310.250802 91.5238L235.859802 91.5238C234.997802 91.5238 234.255802 91.8368 233.630802 92.4618 233.002802 93.0898 232.691802 93.8318 232.691802 94.6918L232.691802 112.4088C232.691802 113.2708 233.002802 114.0138 233.630802 114.6388 234.255802 115.2658 234.997802 115.5778 235.859802 115.5778L257.332802 115.5778 257.332802 149.6058 235.859802 149.6058C234.997802 149.6058 234.255802 149.9188 233.630802 150.5438 233.002802 151.1708 232.691802 151.9138 232.691802 152.7728L232.691802 170.4918C232.691802 171.3528 233.002802 172.0958 233.630802 172.7208 234.255802 173.3478 234.997802 173.6598 235.859802 173.6598L310.250802 173.6598C311.111802 173.6598 311.853802 173.3478 312.480802 172.7208 313.105802 172.0958 313.419802 171.3528 313.419802 170.4918L313.419802 152.7728C313.419802 151.9138 313.105802 151.1708 312.480802 150.5438 311.853802 149.9188 311.111802 149.6058 310.250802 149.6058L289.012802 149.6058 289.012802 115.5778 310.250802 115.5778C311.111802 115.5778 311.853802 115.2658 312.480802 114.6388M102.332002 34.2628C104.365002 31.6048 105.383002 28.3958 105.383002 24.6408L105.383002 24.2888C105.383002 16.1548 102.743002 10.0728 97.4630022 6.0438 92.1820022 2.0158 83.9870022.0008 72.8800022.0008L25.7110022.0008C24.8490022.0008 24.1070022.3138 23.4820022.9388 22.8540022 1.5658 22.5430022 2.3088 22.5430022 3.1688L22.5430022 78.9688C22.5430022 79.8298 22.8540022 80.5728 23.4820022 81.1978 24.1070022 81.8248 24.8490022 82.1368 25.7110022 82.1368L74.0540022 82.1368C96.1130022 82.1368 107.143002 73.5328 107.143002 56.3228 107.143002 52.2558 106.047002 48.6368 103.857002 45.4688 101.666002 42.3008 99.0470022 40.2468 95.9960022 39.3088 98.1850022 38.6038 100.297002 36.9228 102.332002 34.2628zM73.5850022 25.3458C73.5850022 26.7538 73.1740022 28.0258 72.3530022 29.1588 71.5310022 30.2938 70.3380022 30.8608 68.7740022 30.8608L53.0500022 30.8608 53.0500022 20.1828 68.7740022 20.1828C70.3380022 20.1828 71.5310022 20.6918 72.3530022 21.7078 73.1740022 22.7248 73.5850022 23.9378 73.5850022 25.3458zM75.4620022 56.0878C75.4620022 57.5748 75.0110022 58.9238 74.1120022 60.1358 73.2120022 61.3488 71.8630022 61.9548 70.0640022 61.9548L53.0500022 61.9548 53.0500022 50.4558 70.0640022 50.4558C71.7070022 50.4558 73.0160022 51.0038 73.9950022 52.0978 74.9720022 53.1948 75.4620022 54.4858 75.4620022 55.9708L75.4620022 56.0878zM158.535402 51.8634L197.726402 51.8634C198.585402 51.8634 199.328402 51.5514 199.955402 50.9244 200.580402 50.2994 200.894402 49.5564 200.894402 48.6954L200.894402 33.4414C200.894402 32.5814 200.580402 31.8394 199.955402 31.2124 199.328402 30.5864 198.585402 30.2734 197.726402 30.2734L158.535402 30.2734 158.535402 22.8814 204.179402 22.8814C205.039402 22.8814 205.782402 22.5694 206.408402 21.9424 207.034402 21.3174 207.347402 20.5744 207.347402 19.7134L207.347402 3.1684C207.347402 2.3084 207.034402 1.5664 206.408402.9394 205.782402.3144 205.039402.0004 204.179402.0004L131.195402.0004C130.334402.0004 129.591402.3144 128.966402.9394 128.339402 1.5664 128.027402 2.3084 128.027402 3.1684L128.027402 78.9684C128.027402 79.8304 128.339402 80.5724 128.966402 81.1974 129.591402 81.8244 130.334402 82.1364 131.195402 82.1364L205.352402 82.1364C206.213402 82.1364 206.955402 81.8244 207.582402 81.1974 208.207402 80.5724 208.521402 79.8304 208.521402 78.9684L208.521402 62.4244C208.521402 61.5634 208.207402 60.8214 207.582402 60.1944 206.955402 59.5694 206.213402 59.2554 205.352402 59.2554L158.535402 59.2554 158.535402 51.8634zM320.342402 79.907C320.342402 79.438 320.302402 79.085 320.225402 78.851L294.645402 3.873C293.941402 1.291 292.181402 0 289.365402 0L256.745402 0C253.929402 0 252.169402 1.291 251.465402 3.873L225.886402 78.851C225.807402 79.085 225.768402 79.438 225.768402 79.907 225.768402 80.376 226.021402 80.866 226.531402 81.374 227.039402 81.883 227.646402 82.137 228.349402 82.137L250.526402 82.137C253.029402 82.137 254.789402 80.807 255.807402 78.147L258.740402 69.933 287.371402 69.933 290.304402 78.147C291.319402 80.807 293.080402 82.137 295.584402 82.137L317.760402 82.137C318.465402 82.137 319.070402 81.883 319.580402 81.374 320.087402 80.866 320.342402 80.376 320.342402 79.907zM281.386402 47.053L264.724402 47.053 273.055402 22.646 281.386402 47.053z"/>
    <path fill="#000000" d="M98.2021022 394.9573C100.466102 386.5093 99.0741022 379.5863 94.0281022 374.1883 88.9801022 368.7913 80.9031022 366.0923 69.7961022 366.0923L25.9121022 366.0923C25.0511022 366.0923 24.2241022 366.4063 23.4311022 367.0313 22.6371022 367.6583 22.1261022 368.4013 21.8961022 369.2603L1.58510217 445.0603C1.35410217 445.9213 1.46710217 446.6643 1.92610217 447.2893 2.38310217 447.9173 3.04210217 448.2283 3.90410217 448.2283L29.1321022 448.2283C29.9911022 448.2283 30.8171022 447.9173 31.6121022 447.2893 32.4051022 446.6643 32.9181022 445.9213 33.1481022 445.0603L39.1851022 422.5313 54.6731022 422.5313C67.8161022 422.5313 77.7891022 420.0493 84.5961022 415.0803 91.4021022 410.1143 95.9381022 403.4053 98.2021022 394.9573M67.7891022 394.6053C67.2641022 396.5613 66.2871022 398.0873 64.8611022 399.1813 63.4331022 400.2783 61.8201022 400.8243 60.0211022 400.8243L45.1191022 400.8243 48.5771022 387.9173 63.4791022 387.9173C65.3561022 387.9173 66.6741022 388.5443 67.4351022 389.7943 68.1941022 391.0473 68.3121022 392.6503 67.7891022 394.6053M159.061602 369.2605C159.291602 368.4005 159.177602 367.6585 158.720602 367.0305 158.260602 366.4055 157.602602 366.0925 156.742602 366.0925L131.397602 366.0925C130.535602 366.0925 129.709602 366.4055 128.916602 367.0305 128.121602 367.6585 127.610602 368.4005 127.380602 369.2605L107.069602 445.0605C106.838602 445.9225 106.951602 446.6645 107.411602 447.2895 107.868602 447.9165 108.527602 448.2285 109.389602 448.2285L177.914602 448.2285C178.774602 448.2285 179.600602 447.9165 180.394602 447.2895 181.187602 446.6645 181.700602 445.9225 181.931602 445.0605L186.678602 427.3425C186.909602 426.4825 186.794602 425.7395 186.337602 425.1135 185.877602 424.4875 185.219602 424.1745 184.359602 424.1745L144.347602 424.1745 159.061602 369.2605zM249.504202 417.9554L288.695202 417.9554C289.554202 417.9554 290.380202 417.6434 291.176202 417.0164 291.969202 416.3914 292.481202 415.6484 292.711202 414.7874L296.799202 399.5334C297.029202 398.6734 296.915202 397.9314 296.458202 397.3044 295.998202 396.6784 295.339202 396.3654 294.480202 396.3654L255.289202 396.3654 257.270202 388.9734 302.914202 388.9734C303.774202 388.9734 304.600202 388.6614 305.395202 388.0344 306.187202 387.4094 306.700202 386.6664 306.931202 385.8054L311.364202 369.2604C311.595202 368.4004 311.480202 367.6584 311.023202 367.0314 310.563202 366.4064 309.905202 366.0924 309.045202 366.0924L236.061202 366.0924C235.199202 366.0924 234.373202 366.4064 233.580202 367.0314 232.785202 367.6584 232.274202 368.4004 232.044202 369.2604L211.734202 445.0604C211.503202 445.9224 211.615202 446.6644 212.075202 447.2894 212.532202 447.9164 213.191202 448.2284 214.053202 448.2284L288.210202 448.2284C289.070202 448.2284 289.896202 447.9164 290.691202 447.2894 291.484202 446.6644 291.996202 445.9224 292.227202 445.0604L296.660202 428.5164C296.891202 427.6554 296.776202 426.9134 296.319202 426.2864 295.859202 425.6614 295.201202 425.3474 294.341202 425.3474L247.523202 425.3474 249.504202 417.9554zM113.556102 303.4343C111.292102 294.9863 106.190102 288.0633 98.2521022 282.6653 90.3121022 277.2683 80.7881022 274.5693 69.6821022 274.5693L25.7981022 274.5693C24.9361022 274.5693 24.2771022 274.8823 23.8201022 275.5083 23.3611022 276.1353 23.2481022 276.8783 23.4791022 277.7373L43.7891022 353.5373C44.0201022 354.3983 44.5311022 355.1413 45.3251022 355.7663 46.1181022 356.3943 46.9441022 356.7053 47.8061022 356.7053L73.0341022 356.7053C73.8931022 356.7053 74.5521022 356.3943 75.0111022 355.7663 75.4691022 355.1413 75.5831022 354.3983 75.3531022 353.5373L69.3161022 331.0083 84.8051022 331.0083C97.9471022 331.0083 106.590102 328.5263 110.734102 323.5573 114.878102 318.5903 115.820102 311.8823 113.556102 303.4343M82.9541022 303.0823C83.4781022 305.0383 83.3191022 306.5643 82.4791022 307.6583 81.6381022 308.7553 80.3181022 309.3013 78.5191022 309.3013L63.6171022 309.3013 60.1581022 296.3943 75.0601022 296.3943C76.9381022 296.3943 78.5911022 297.0213 80.0221022 298.2713 81.4521022 299.5243 82.4301022 301.1273 82.9541022 303.0823M172.519102 326.4324L211.710102 326.4324C212.569102 326.4324 213.228102 326.1204 213.688102 325.4934 214.145102 324.8684 214.260102 324.1254 214.029102 323.2644L209.941102 308.0104C209.711102 307.1504 209.199102 306.4084 208.406102 305.7814 207.611102 305.1554 206.784102 304.8424 205.925102 304.8424L166.734102 304.8424 164.753102 297.4504 210.398102 297.4504C211.257102 297.4504 211.916102 297.1384 212.375102 296.5114 212.833102 295.8864 212.948102 295.1434 212.717102 294.2824L208.284102 277.7374C208.053102 276.8774 207.541102 276.1354 206.747102 275.5084 205.953102 274.8834 205.126102 274.5694 204.267102 274.5694L131.283102 274.5694C130.421102 274.5694 129.763102 274.8834 129.305102 275.5084 128.846102 276.1354 128.733102 276.8774 128.963102 277.7374L149.274102 353.5374C149.505102 354.3994 150.015102 355.1414 150.810102 355.7664 151.603102 356.3934 152.429102 356.7054 153.291102 356.7054L227.448102 356.7054C228.308102 356.7054 228.967102 356.3934 229.426102 355.7664 229.884102 355.1414 229.998102 354.3994 229.767102 353.5374L225.334102 336.9934C225.104102 336.1324 224.591102 335.3904 223.798102 334.7634 223.004102 334.1384 222.177102 333.8244 221.317102 333.8244L174.500102 333.8244 172.519102 326.4324zM329.548502 322.6153L325.809502 308.6593C322.764502 297.2963 316.426502 288.7523 306.797502 283.0323 297.169502 277.3123 285.900502 274.4523 272.993502 274.4523 260.086502 274.4523 250.351502 277.3123 243.787502 283.0323 237.224502 288.7523 235.485502 297.3713 238.571502 308.8863L242.188502 322.3883C244.334502 330.3963 248.067502 337.0333 253.389502 342.2953 258.710502 347.5573 264.836502 351.2953 271.764502 353.5063 278.693502 355.7173 286.459502 356.8223 295.064502 356.8223 303.669502 356.8223 310.843502 355.7173 316.587502 353.5063 322.331502 351.2953 326.452502 347.5573 328.954502 342.2953 331.455502 337.0333 331.654502 330.4733 329.548502 322.6153zM298.345502 324.4013C299.158502 327.4333 298.711502 329.7823 297.007502 331.4473 295.300502 333.1113 292.609502 333.9423 288.934502 333.9423 285.256502 333.9423 282.125502 333.1303 279.538502 331.5023 276.950502 329.8753 275.251502 327.5453 274.438502 324.5133L269.682502 306.7623C268.870502 303.7293 269.320502 301.4013 271.037502 299.7733 272.751502 298.1463 275.446502 297.3333 279.124502 297.3333 282.800502 297.3333 285.936502 298.1653 288.535502 299.8303 291.131502 301.4943 292.836502 303.8413 293.649502 306.8743L298.345502 324.4013zM21.9630022 183.985C21.1680022 184.612 20.6570022 185.355 20.4270022 186.215L.116002174 262.014C-.114997826 262.876-.000997826087 263.618.458002174 264.243.915002174 264.871 1.57400217 265.182 2.43600217 265.182L27.7810022 265.182C28.6400022 265.182 29.4660022 264.871 30.2610022 264.243 31.0540022 263.618 31.5670022 262.876 31.7970022 262.014L38.0230022 238.781 76.5090022 238.781C77.3690022 238.781 78.1950022 238.47 78.9900022 237.843 79.7830022 237.218 80.2960022 236.475 80.5260022 235.613L85.2740022 217.895C85.5040022 217.036 85.3900022 216.293 84.9320022 215.666 84.4730022 215.041 83.8150022 214.727 82.9540022 214.727L44.4680022 214.727 46.4800022 207.218 92.5940022 207.218C93.4530022 207.218 94.2800022 206.906 95.0740022 206.279 95.8670022 205.654 96.3800022 204.911 96.6110022 204.05L101.389002 186.215C101.620002 185.355 101.505002 184.612 101.048002 183.985 100.589002 183.36 99.9300022 183.046 99.0700022 183.046L24.4440022 183.046C23.5820022 183.046 22.7560022 183.36 21.9630022 183.985M196.200902 230.4286L208.058902 186.1736C208.285902 185.3256 208.168902 184.5916 207.709902 183.9746 207.247902 183.3566 206.588902 183.0466 205.728902 183.0466L181.204902 183.0466C180.343902 183.0466 179.518902 183.3546 178.728902 183.9686 177.936902 184.5846 177.429902 185.3146 177.202902 186.1596L164.910902 232.0346C164.066902 235.1866 162.341902 237.6066 159.738902 239.2966 157.132902 240.9876 153.993902 241.8326 150.316902 241.8326 146.639902 241.8326 143.952902 240.9876 142.254902 239.2966 140.555902 237.6066 140.129902 235.1866 140.973902 232.0346L153.266902 186.1596C153.492902 185.3146 153.374902 184.5846 152.914902 183.9686 152.452902 183.3546 151.791902 183.0466 150.932902 183.0466L126.408902 183.0466C125.546902 183.0466 124.721902 183.3566 123.930902 183.9746 123.137902 184.5916 122.629902 185.3256 122.402902 186.1736L110.544902 230.4286C107.336902 242.4006 108.829902 251.2046 115.024902 256.8426 121.217902 262.4816 130.886902 265.2996 144.028902 265.2996 157.170902 265.2996 168.348902 262.4816 177.565902 256.8426 186.779902 251.2046 192.992902 242.4006 196.200902 230.4286M262.256802 186.2144C262.486802 185.3544 262.372802 184.6124 261.915802 183.9844 261.455802 183.3594 260.797802 183.0464 259.937802 183.0464L234.592802 183.0464C233.730802 183.0464 232.904802 183.3594 232.111802 183.9844 231.316802 184.6124 230.805802 185.3544 230.575802 186.2144L210.264802 262.0144C210.033802 262.8764 210.146802 263.6184 210.606802 264.2434 211.063802 264.8704 211.722802 265.1824 212.584802 265.1824L281.109802 265.1824C281.969802 265.1824 282.795802 264.8704 283.589802 264.2434 284.382802 263.6184 284.895802 262.8764 285.126802 262.0144L289.873802 244.2964C290.104802 243.4364 289.989802 242.6934 289.532802 242.0674 289.072802 241.4414 288.414802 241.1284 287.554802 241.1284L247.542802 241.1284 262.256802 186.2144zM121.337202 138.9056L109.479202 94.6506C109.252202 93.8026 108.741202 93.0686 107.951202 92.4516 107.158202 91.8336 106.333202 91.5236 105.473202 91.5236L80.9492022 91.5236C80.0882022 91.5236 79.4282022 91.8316 78.9672022 92.4456 78.5052022 93.0616 78.3892022 93.7916 78.6152022 94.6366L90.9082022 140.5116C91.7522022 143.6636 91.3252022 146.0836 89.6272022 147.7736 87.9272022 149.4636 85.2412022 150.3096 81.5642022 150.3096 77.8872022 150.3096 74.7472022 149.4636 72.1432022 147.7736 69.5382022 146.0836 67.8152022 143.6636 66.9712022 140.5116L54.6792022 94.6366C54.4522022 93.7916 53.9432022 93.0616 53.1532022 92.4456 52.3612022 91.8316 51.5362022 91.5236 50.6772022 91.5236L26.1532022 91.5236C25.2912022 91.5236 24.6312022 91.8336 24.1722022 92.4516 23.7112022 93.0686 23.5952022 93.8026 23.8232022 94.6506L35.6812022 138.9056C38.8892022 150.8776 45.1002022 159.6816 54.3162022 165.3196 63.5312022 170.9586 74.7112022 173.7766 87.8522022 173.7766 100.995202 173.7766 110.662202 170.9586 116.857202 165.3196 123.050202 159.6816 124.545202 150.8776 121.337202 138.9056M125.318802 92.462C124.859802 93.089 124.746802 93.831 124.977802 94.692L130.038802 113.583C130.269802 114.445 130.780802 115.187 131.575802 115.812 132.368802 116.439 133.194802 116.751 134.056802 116.751L159.283802 116.751 173.683802 170.491C173.914802 171.353 174.424802 172.095 175.219802 172.721 176.012802 173.348 176.838802 173.659 177.700802 173.659L201.871802 173.659C202.731802 173.659 203.390802 173.348 203.849802 172.721 204.307802 172.095 204.421802 171.353 204.190802 170.491L189.790802 116.751 215.018802 116.751C215.878802 116.751 216.537802 116.439 216.996802 115.812 217.454802 115.187 217.569802 114.445 217.338802 113.583L212.276802 94.692C212.045802 93.831 211.533802 93.089 210.739802 92.462 209.945802 91.837 209.118802 91.523 208.258802 91.523L127.296802 91.523C126.434802 91.523 125.776802 91.837 125.318802 92.462M319.116902 114.6388C319.574902 114.0138 319.688902 113.2708 319.457902 112.4088L314.710902 94.6918C314.480902 93.8318 313.967902 93.0898 313.174902 92.4618 312.379902 91.8368 311.553902 91.5228 310.693902 91.5228L236.301902 91.5228C235.439902 91.5228 234.781902 91.8368 234.323902 92.4618 233.864902 93.0898 233.751902 93.8318 233.982902 94.6918L238.729902 112.4088C238.960902 113.2708 239.471902 114.0138 240.266902 114.6388 241.059902 115.2658 241.885902 115.5778 242.746902 115.5778L264.219902 115.5778 273.337902 149.6058 251.864902 149.6058C251.003902 149.6058 250.344902 149.9188 249.886902 150.5438 249.427902 151.1708 249.314902 151.9138 249.545902 152.7728L254.292902 170.4918C254.523902 171.3528 255.034902 172.0958 255.828902 172.7208 256.622902 173.3478 257.448902 173.6598 258.309902 173.6598L332.701902 173.6598C333.561902 173.6598 334.220902 173.3478 334.679902 172.7208 335.137902 172.0958 335.251902 171.3528 335.020902 170.4918L330.273902 152.7728C330.043902 151.9138 329.530902 151.1708 328.737902 150.5438 327.942902 149.9188 327.116902 149.6058 326.256902 149.6058L305.018902 149.6058 295.900902 115.5778 317.138902 115.5778C317.998902 115.5778 318.657902 115.2658 319.116902 114.6388M92.2357022 34.2628C94.9817022 31.6048 96.8587022 28.3958 97.8647022 24.6408L97.9587022 24.2888C100.138702 16.1548 99.1277022 10.0728 94.9277022 6.0438 90.7267022 2.0158 83.0717022.0008 71.9647022.0008L24.7947022.0008C23.9337022.0008 23.1067022.3138 22.3147022.9388 21.5187022 1.5658 21.0087022 2.3088 20.7777022 3.1688L.467702174 78.9688C.236702174 79.8298.349702174 80.5728.808702174 81.1978 1.26670217 81.8248 1.92570217 82.1368 2.78670217 82.1368L51.1297022 82.1368C73.1897022 82.1368 86.5237022 73.5328 91.1357022 56.3228 92.2247022 52.2558 92.0987022 48.6368 90.7587022 45.4688 89.4167022 42.3008 87.3467022 40.2468 84.5477022 39.3088 86.9257022 38.6038 89.4877022 36.9228 92.2357022 34.2628zM65.8777022 25.3458C65.5007022 26.7538 64.7487022 28.0258 63.6237022 29.1588 62.4977022 30.2938 61.1527022 30.8608 59.5887022 30.8608L43.8657022 30.8608 46.7267022 20.1828 62.4497022 20.1828C64.0137022 20.1828 65.0707022 20.6918 65.6207022 21.7078 66.1687022 22.7248 66.2547022 23.9378 65.8777022 25.3458zM59.5177022 56.0878C59.1197022 57.5748 58.3067022 58.9238 57.0837022 60.1358 55.8587022 61.3488 54.3467022 61.9548 52.5477022 61.9548L35.5347022 61.9548 38.6157022 50.4558 55.6287022 50.4558C57.2717022 50.4558 58.4337022 51.0038 59.1197022 52.0978 59.8037022 53.1948 59.9467022 54.4858 59.5487022 55.9708L59.5177022 56.0878zM143.723102 51.8634L182.914102 51.8634C183.773102 51.8634 184.599102 51.5514 185.395102 50.9244 186.188102 50.2994 186.700102 49.5564 186.930102 48.6954L191.018102 33.4414C191.248102 32.5814 191.134102 31.8394 190.677102 31.2124 190.217102 30.5864 189.558102 30.2734 188.699102 30.2734L149.508102 30.2734 151.489102 22.8814 197.133102 22.8814C197.993102 22.8814 198.819102 22.5694 199.614102 21.9424 200.406102 21.3174 200.919102 20.5754 201.150102 19.7134L205.583102 3.1684C205.814102 2.3084 205.699102 1.5664 205.242102.9394 204.782102.3144 204.124102.0004 203.264102.0004L130.280102.0004C129.418102.0004 128.592102.3144 127.799102.9394 127.004102 1.5664 126.493102 2.3084 126.263102 3.1684L105.953102 78.9684C105.722102 79.8304 105.834102 80.5724 106.294102 81.1974 106.751102 81.8244 107.410102 82.1364 108.272102 82.1364L182.429102 82.1364C183.289102 82.1364 184.115102 81.8244 184.910102 81.1974 185.703102 80.5724 186.215102 79.8304 186.446102 78.9684L190.879102 62.4244C191.110102 61.5634 190.995102 60.8214 190.538102 60.1944 190.078102 59.5694 189.420102 59.2554 188.560102 59.2554L141.742102 59.2554 143.723102 51.8634zM298.015702 79.907C298.141702 79.438 298.195702 79.085 298.181702 78.851L292.692702 3.873C292.679702 1.291 291.265702 0 288.449702 0L255.829702 0C253.013702 0 250.907702 1.291 249.511702 3.873L203.842702 78.851C203.700702 79.085 203.567702 79.438 203.441702 79.907 203.316702 80.376 203.437702 80.866 203.811702 81.374 204.182702 81.883 204.721702 82.137 205.425702 82.137L227.602702 82.137C230.105702 82.137 232.221702 80.807 233.951702 78.147L239.085702 69.933 267.716702 69.933 268.448702 78.147C268.751702 80.807 270.155702 82.137 272.659702 82.137L294.836702 82.137C295.540702 82.137 296.213702 81.883 296.860702 81.374 297.503702 80.866 297.889702 80.376 298.015702 79.907zM267.862702 47.053L251.200702 47.053 266.071702 22.646 267.862702 47.053z"/>
  </g>
</svg>
