<svg xmlns="http://www.w3.org/2000/svg" width="336" height="450" viewBox="0 0 336 450">
  <g fill="#FFFFFF" fill-rule="evenodd" transform="translate(19)">
    <path d="M83.1924 394.9573C83.1924 386.5093 79.9454 379.5863 73.4534 374.1883 66.9594 368.7913 58.1594 366.0923 47.0524 366.0923L3.1684 366.0923C2.3064 366.0923 1.5644 366.4063.9384 367.0313.3124 367.6583.0004 368.4013.0004 369.2603L.0004 445.0603C.0004 445.9213.3124 446.6643.9384 447.2893 1.5644 447.9173 2.3064 448.2283 3.1684 448.2283L28.3964 448.2283C29.2554 448.2283 29.9984 447.9173 30.6254 447.2893 31.2504 446.6643 31.5644 445.9213 31.5644 445.0603L31.5644 422.5313 47.0524 422.5313C60.1944 422.5313 69.5024 420.0493 74.9784 415.0803 80.4534 410.1143 83.1924 403.4053 83.1924 394.9573M52.6844 394.6053C52.6844 396.5613 52.1164 398.0873 50.9834 399.1813 49.8484 400.2783 48.3824 400.8243 46.5834 400.8243L31.6814 400.8243 31.6814 387.9173 46.5834 387.9173C48.4604 387.9173 49.9454 388.5443 51.0424 389.7943 52.1364 391.0473 52.6844 392.6503 52.6844 394.6053M137.1665 369.2606C137.1665 368.4006 136.8525 367.6586 136.2275 367.0306 135.6005 366.4056 134.8585 366.0926 133.9985 366.0926L108.6535 366.0926C107.7915 366.0926 107.0495 366.4056 106.4245 367.0306 105.7975 367.6586 105.4855 368.4006 105.4855 369.2606L105.4855 445.0606C105.4855 445.9226 105.7975 446.6646 106.4245 447.2896 107.0495 447.9166 107.7915 448.2286 108.6535 448.2286L177.1785 448.2286C178.0385 448.2286 178.7815 447.9166 179.4075 447.2896 180.0335 446.6646 180.3465 445.9226 180.3465 445.0606L180.3465 427.3426C180.3465 426.4826 180.0335 425.7396 179.4075 425.1136 178.7815 424.4876 178.0385 424.1746 177.1785 424.1746L137.1665 424.1746 137.1665 369.2606zM240.6568 417.9555L279.8478 417.9555C280.7068 417.9555 281.4498 417.6435 282.0768 417.0165 282.7018 416.3915 283.0158 415.6485 283.0158 414.7875L283.0158 399.5335C283.0158 398.6735 282.7018 397.9315 282.0768 397.3045 281.4498 396.6785 280.7068 396.3655 279.8478 396.3655L240.6568 396.3655 240.6568 388.9735 286.3008 388.9735C287.1608 388.9735 287.9038 388.6615 288.5298 388.0345 289.1558 387.4095 289.4688 386.6665 289.4688 385.8055L289.4688 369.2605C289.4688 368.4005 289.1558 367.6585 288.5298 367.0315 287.9038 366.4065 287.1608 366.0925 286.3008 366.0925L213.3168 366.0925C212.4558 366.0925 211.7128 366.4065 211.0878 367.0315 210.4608 367.6585 210.1488 368.4005 210.1488 369.2605L210.1488 445.0605C210.1488 445.9225 210.4608 446.6645 211.0878 447.2895 211.7128 447.9165 212.4558 448.2285 213.3168 448.2285L287.4738 448.2285C288.3348 448.2285 289.0768 447.9165 289.7038 447.2895 290.3288 446.6645 290.6428 445.9225 290.6428 445.0605L290.6428 428.5165C290.6428 427.6555 290.3288 426.9135 289.7038 426.2865 289.0768 425.6615 288.3348 425.3475 287.4738 425.3475L240.6568 425.3475 240.6568 417.9555zM83.1924 303.4343C83.1924 294.9863 79.9454 288.0633 73.4534 282.6653 66.9594 277.2683 58.1594 274.5693 47.0524 274.5693L3.1684 274.5693C2.3064 274.5693 1.5644 274.8823.9384 275.5083.3124 276.1353.0004 276.8783.0004 277.7373L.0004 353.5373C.0004 354.3983.3124 355.1413.9384 355.7663 1.5644 356.3943 2.3064 356.7053 3.1684 356.7053L28.3964 356.7053C29.2554 356.7053 29.9984 356.3943 30.6254 355.7663 31.2504 355.1413 31.5644 354.3983 31.5644 353.5373L31.5644 331.0083 47.0524 331.0083C60.1944 331.0083 69.5024 328.5263 74.9784 323.5573 80.4534 318.5903 83.1924 311.8823 83.1924 303.4343M52.6844 303.0823C52.6844 305.0383 52.1164 306.5643 50.9834 307.6583 49.8484 308.7553 48.3824 309.3013 46.5834 309.3013L31.6814 309.3013 31.6814 296.3943 46.5834 296.3943C48.4604 296.3943 49.9454 297.0213 51.0424 298.2713 52.1364 299.5243 52.6844 301.1273 52.6844 303.0823M135.9931 326.4325L175.1841 326.4325C176.0431 326.4325 176.7861 326.1205 177.4131 325.4935 178.0381 324.8685 178.3521 324.1255 178.3521 323.2645L178.3521 308.0105C178.3521 307.1505 178.0381 306.4085 177.4131 305.7815 176.7861 305.1555 176.0431 304.8425 175.1841 304.8425L135.9931 304.8425 135.9931 297.4505 181.6371 297.4505C182.4971 297.4505 183.2401 297.1385 183.8661 296.5115 184.4921 295.8865 184.8051 295.1435 184.8051 294.2825L184.8051 277.7375C184.8051 276.8775 184.4921 276.1355 183.8661 275.5085 183.2401 274.8835 182.4971 274.5695 181.6371 274.5695L108.6531 274.5695C107.7921 274.5695 107.0491 274.8835 106.4241 275.5085 105.7971 276.1355 105.4851 276.8775 105.4851 277.7375L105.4851 353.5375C105.4851 354.3995 105.7971 355.1415 106.4241 355.7665 107.0491 356.3935 107.7921 356.7055 108.6531 356.7055L182.8101 356.7055C183.6711 356.7055 184.4131 356.3935 185.0401 355.7665 185.6651 355.1415 185.9791 354.3995 185.9791 353.5375L185.9791 336.9935C185.9791 336.1325 185.6651 335.3905 185.0401 334.7635 184.4131 334.1385 183.6711 333.8245 182.8101 333.8245L135.9931 333.8245 135.9931 326.4325zM294.0453 322.6153L294.0453 308.6593C294.0453 297.2963 289.9973 288.7523 281.9003 283.0323 273.8053 277.3123 263.3033 274.4523 250.3963 274.4523 237.4893 274.4523 226.9873 277.3123 218.8903 283.0323 210.7943 288.7523 206.7463 297.3713 206.7463 308.8863L206.7463 322.3883C206.7463 330.3963 208.7003 337.0333 212.6133 342.2953 216.5243 347.5573 221.6483 351.2953 227.9843 353.5063 234.3203 355.7173 241.7903 356.8223 250.3963 356.8223 259.0003 356.8223 266.4713 355.7173 272.8073 353.5063 279.1433 351.2953 284.2663 347.5573 288.1783 342.2953 292.0893 337.0333 294.0453 330.4733 294.0453 322.6153zM262.3643 324.4013C262.3643 327.4333 261.2883 329.7823 259.1373 331.4473 256.9853 333.1113 254.0723 333.9423 250.3963 333.9423 246.7183 333.9423 243.8053 333.1303 241.6543 331.5023 239.5023 329.8753 238.4273 327.5453 238.4273 324.5133L238.4273 306.7623C238.4273 303.7293 239.5023 301.4013 241.6543 299.7733 243.8053 298.1463 246.7183 297.3333 250.3963 297.3333 254.0723 297.3333 256.9853 298.1653 259.1373 299.8303 261.2883 301.4943 262.3643 303.8413 262.3643 306.8743L262.3643 324.4013zM.939 183.985C.312 184.612 0 185.355 0 186.215L0 262.014C0 262.876.312 263.618.939 264.243 1.564 264.871 2.307 265.182 3.169 265.182L28.513 265.182C29.373 265.182 30.116 264.871 30.742 264.243 31.368 263.618 31.681 262.876 31.681 262.014L31.681 238.781 70.168 238.781C71.028 238.781 71.771 238.47 72.397 237.843 73.023 237.218 73.336 236.475 73.336 235.613L73.336 217.895C73.336 217.036 73.023 216.293 72.397 215.666 71.771 215.041 71.028 214.727 70.168 214.727L31.681 214.727 31.681 207.218 77.795 207.218C78.655 207.218 79.397 206.906 80.024 206.279 80.649 205.654 80.963 204.911 80.963 204.05L80.963 186.215C80.963 185.355 80.649 184.612 80.024 183.985 79.397 183.36 78.655 183.046 77.795 183.046L3.169 183.046C2.307 183.046 1.564 183.36.939 183.985M187.6215 230.4286L187.6215 186.1736C187.6215 185.3256 187.3075 184.5916 186.6825 183.9746 186.0555 183.3566 185.3135 183.0466 184.4535 183.0466L159.9295 183.0466C159.0685 183.0466 158.3255 183.3546 157.7005 183.9686 157.0735 184.5846 156.7615 185.3146 156.7615 186.1596L156.7615 232.0346C156.7615 235.1866 155.6855 237.6066 153.5355 239.2966 151.3825 240.9876 148.4695 241.8326 144.7935 241.8326 141.1155 241.8326 138.2025 240.9876 136.0515 239.2966 133.8995 237.6066 132.8255 235.1866 132.8255 232.0346L132.8255 186.1596C132.8255 185.3146 132.5115 184.5846 131.8865 183.9686 131.2595 183.3546 130.5165 183.0466 129.6575 183.0466L105.1335 183.0466C104.2715 183.0466 103.5295 183.3566 102.9045 183.9746 102.2775 184.5916 101.9655 185.3256 101.9655 186.1736L101.9655 230.4286C101.9655 242.4006 105.8175 251.2046 113.5235 256.8426 121.2275 262.4816 131.6515 265.2996 144.7935 265.2996 157.9355 265.2996 168.3585 262.4816 176.0635 256.8426 183.7675 251.2046 187.6215 242.4006 187.6215 230.4286M241.8302 186.2145C241.8302 185.3545 241.5162 184.6125 240.8912 183.9845 240.2642 183.3595 239.5222 183.0465 238.6622 183.0465L213.3172 183.0465C212.4552 183.0465 211.7132 183.3595 211.0882 183.9845 210.4612 184.6125 210.1492 185.3545 210.1492 186.2145L210.1492 262.0145C210.1492 262.8765 210.4612 263.6185 211.0882 264.2435 211.7132 264.8705 212.4552 265.1825 213.3172 265.1825L281.8422 265.1825C282.7022 265.1825 283.4452 264.8705 284.0712 264.2435 284.6972 263.6185 285.0102 262.8765 285.0102 262.0145L285.0102 244.2965C285.0102 243.4365 284.6972 242.6935 284.0712 242.0675 283.4452 241.4415 282.7022 241.1285 281.8422 241.1285L241.8302 241.1285 241.8302 186.2145zM85.6565 138.9056L85.6565 94.6506C85.6565 93.8026 85.3425 93.0686 84.7175 92.4516 84.0905 91.8336 83.3485 91.5236 82.4885 91.5236L57.9645 91.5236C57.1035 91.5236 56.3605 91.8316 55.7355 92.4456 55.1085 93.0616 54.7965 93.7916 54.7965 94.6366L54.7965 140.5116C54.7965 143.6636 53.7205 146.0836 51.5705 147.7736 49.4175 149.4636 46.5045 150.3096 42.8285 150.3096 39.1505 150.3096 36.2375 149.4636 34.0865 147.7736 31.9345 146.0836 30.8605 143.6636 30.8605 140.5116L30.8605 94.6366C30.8605 93.7916 30.5465 93.0616 29.9215 92.4456 29.2945 91.8316 28.5515 91.5236 27.6925 91.5236L3.1685 91.5236C2.3075 91.5236 1.5635 91.8336.9395 92.4516.3125 93.0686.0005 93.8026.0005 94.6506L.0005 138.9056C.0005 150.8776 3.8525 159.6816 11.5585 165.3196 19.2625 170.9586 29.6865 173.7766 42.8285 173.7766 55.9705 173.7766 66.3935 170.9586 74.0985 165.3196 81.8025 159.6816 85.6565 150.8776 85.6565 138.9056M102.0827 92.4621C101.4557 93.0891 101.1437 93.8311 101.1437 94.6921L101.1437 113.5831C101.1437 114.4451 101.4557 115.1871 102.0827 115.8121 102.7077 116.4391 103.4507 116.7511 104.3127 116.7511L129.5397 116.7511 129.5397 170.4911C129.5397 171.3531 129.8517 172.0951 130.4777 172.7211 131.1037 173.3481 131.8457 173.6591 132.7077 173.6591L156.8787 173.6591C157.7387 173.6591 158.4817 173.3481 159.1087 172.7211 159.7337 172.0951 160.0467 171.3531 160.0467 170.4911L160.0467 116.7511 185.2747 116.7511C186.1347 116.7511 186.8777 116.4391 187.5037 115.8121 188.1297 115.1871 188.4427 114.4451 188.4427 113.5831L188.4427 94.6921C188.4427 93.8311 188.1297 93.0891 187.5037 92.4621 186.8777 91.8371 186.1347 91.5231 185.2747 91.5231L104.3127 91.5231C103.4507 91.5231 102.7077 91.8371 102.0827 92.4621M289.9385 114.6388C290.5635 114.0138 290.8775 113.2708 290.8775 112.4088L290.8775 94.6918C290.8775 93.8318 290.5635 93.0898 289.9385 92.4618 289.3115 91.8368 288.5695 91.5238 287.7085 91.5238L213.3175 91.5238C212.4555 91.5238 211.7135 91.8368 211.0885 92.4618 210.4605 93.0898 210.1495 93.8318 210.1495 94.6918L210.1495 112.4088C210.1495 113.2708 210.4605 114.0138 211.0885 114.6388 211.7135 115.2658 212.4555 115.5778 213.3175 115.5778L234.7905 115.5778 234.7905 149.6058 213.3175 149.6058C212.4555 149.6058 211.7135 149.9188 211.0885 150.5438 210.4605 151.1708 210.1495 151.9138 210.1495 152.7728L210.1495 170.4918C210.1495 171.3528 210.4605 172.0958 211.0885 172.7208 211.7135 173.3478 212.4555 173.6598 213.3175 173.6598L287.7085 173.6598C288.5695 173.6598 289.3115 173.3478 289.9385 172.7208 290.5635 172.0958 290.8775 171.3528 290.8775 170.4918L290.8775 152.7728C290.8775 151.9138 290.5635 151.1708 289.9385 150.5438 289.3115 149.9188 288.5695 149.6058 287.7085 149.6058L266.4705 149.6058 266.4705 115.5778 287.7085 115.5778C288.5695 115.5778 289.3115 115.2658 289.9385 114.6388M79.7897 34.2629C81.8227 31.6049 82.8407 28.3959 82.8407 24.6409L82.8407 24.2889C82.8407 16.1549 80.2007 10.0729 74.9207 6.0439 69.6397 2.0159 61.4447.0009 50.3377.0009L3.1687.0009C2.3067.0009 1.5647.3139.9397.9389.3117 1.5659.0007 2.3089.0007 3.1689L.0007 78.9689C.0007 79.8299.3117 80.5729.9397 81.1979 1.5647 81.8249 2.3067 82.1359 3.1687 82.1359L51.5117 82.1359C73.5707 82.1359 84.6007 73.5329 84.6007 56.3229 84.6007 52.2559 83.5047 48.6369 81.3147 45.4689 79.1237 42.3009 76.5047 40.2469 73.4537 39.3089 75.6427 38.6039 77.7547 36.9229 79.7897 34.2629zM51.0427 25.3459C51.0427 26.7539 50.6317 28.0259 49.8107 29.1589 48.9887 30.2939 47.7957 30.8599 46.2317 30.8599L30.5077 30.8599 30.5077 20.1829 46.2317 20.1829C47.7957 20.1829 48.9887 20.6919 49.8107 21.7079 50.6317 22.7249 51.0427 23.9369 51.0427 25.3459zM52.9197 56.0879C52.9197 57.5749 52.4687 58.9239 51.5697 60.1359 50.6697 61.3489 49.3207 61.9549 47.5217 61.9549L30.5077 61.9549 30.5077 50.4559 47.5217 50.4559C49.1647 50.4559 50.4737 51.0039 51.4527 52.0979 52.4297 53.1949 52.9197 54.4859 52.9197 55.9709L52.9197 56.0879zM135.9931 51.8634L175.1841 51.8634C176.0431 51.8634 176.7861 51.5514 177.4131 50.9244 178.0381 50.2994 178.3521 49.5564 178.3521 48.6954L178.3521 33.4414C178.3521 32.5814 178.0381 31.8394 177.4131 31.2124 176.7861 30.5864 176.0431 30.2734 175.1841 30.2734L135.9931 30.2734 135.9931 22.8814 181.6371 22.8814C182.4971 22.8814 183.2401 22.5694 183.8661 21.9424 184.4921 21.3174 184.8051 20.5744 184.8051 19.7134L184.8051 3.1684C184.8051 2.3084 184.4921 1.5664 183.8661.9394 183.2401.3144 182.4971.0004 181.6371.0004L108.6531.0004C107.7921.0004 107.0491.3144 106.4241.9394 105.7971 1.5664 105.4851 2.3084 105.4851 3.1684L105.4851 78.9684C105.4851 79.8304 105.7971 80.5724 106.4241 81.1974 107.0491 81.8244 107.7921 82.1364 108.6531 82.1364L182.8101 82.1364C183.6711 82.1364 184.4131 81.8244 185.0401 81.1974 185.6651 80.5724 185.9791 79.8304 185.9791 78.9684L185.9791 62.4244C185.9791 61.5634 185.6651 60.8214 185.0401 60.1944 184.4131 59.5694 183.6711 59.2554 182.8101 59.2554L135.9931 59.2554 135.9931 51.8634zM297.8001 79.907C297.8001 79.438 297.7601 79.085 297.6831 78.851L272.1031 3.873C271.3991 1.291 269.6391 0 266.8231 0L234.2031 0C231.3871 0 229.6271 1.291 228.9231 3.873L203.3441 78.851C203.2651 79.085 203.2261 79.438 203.2261 79.907 203.2261 80.376 203.4791 80.866 203.9891 81.374 204.4971 81.883 205.1041 82.137 205.8071 82.137L227.9841 82.137C230.4871 82.137 232.2471 80.807 233.2651 78.147L236.1981 69.933 264.8291 69.933 267.7621 78.147C268.7771 80.807 270.5381 82.137 273.0421 82.137L295.2181 82.137C295.9231 82.137 296.5281 81.883 297.0381 81.374 297.5451 80.866 297.8001 80.376 297.8001 79.907zM258.8441 47.053L242.1821 47.053 250.5131 22.646 258.8441 47.053z"/>
  </g>
</svg>
