<svg xmlns="http://www.w3.org/2000/svg" width="336" height="450" viewBox="0 0 336 450">
  <g fill="none" fill-rule="evenodd" transform="translate(9 1)">
    <path fill="#FFFFFF" d="M83.1924 394.9573C83.1924 386.5093 79.9454 379.5863 73.4534 374.1883 66.9594 368.7913 58.1594 366.0923 47.0524 366.0923L3.1684 366.0923C2.3064 366.0923 1.5644 366.4063.9384 367.0313.3124 367.6583.0004 368.4013.0004 369.2603L.0004 445.0603C.0004 445.9213.3124 446.6643.9384 447.2893 1.5644 447.9173 2.3064 448.2283 3.1684 448.2283L28.3964 448.2283C29.2554 448.2283 29.9984 447.9173 30.6254 447.2893 31.2504 446.6643 31.5644 445.9213 31.5644 445.0603L31.5644 422.5313 47.0524 422.5313C60.1944 422.5313 69.5024 420.0493 74.9784 415.0803 80.4534 410.1143 83.1924 403.4053 83.1924 394.9573M52.6844 394.6053C52.6844 396.5613 52.1164 398.0873 50.9834 399.1813 49.8484 400.2783 48.3824 400.8243 46.5834 400.8243L31.6814 400.8243 31.6814 387.9173 46.5834 387.9173C48.4604 387.9173 49.9454 388.5443 51.0424 389.7943 52.1364 391.0473 52.6844 392.6503 52.6844 394.6053M137.1665 369.2605C137.1665 368.4005 136.8525 367.6585 136.2275 367.0305 135.6005 366.4055 134.8585 366.0925 133.9985 366.0925L108.6535 366.0925C107.7915 366.0925 107.0495 366.4055 106.4245 367.0305 105.7975 367.6585 105.4855 368.4005 105.4855 369.2605L105.4855 445.0605C105.4855 445.9225 105.7975 446.6645 106.4245 447.2895 107.0495 447.9165 107.7915 448.2285 108.6535 448.2285L177.1785 448.2285C178.0385 448.2285 178.7815 447.9165 179.4075 447.2895 180.0335 446.6645 180.3465 445.9225 180.3465 445.0605L180.3465 427.3425C180.3465 426.4825 180.0335 425.7395 179.4075 425.1135 178.7815 424.4875 178.0385 424.1745 177.1785 424.1745L137.1665 424.1745 137.1665 369.2605zM240.6568 417.9554L279.8478 417.9554C280.7068 417.9554 281.4498 417.6434 282.0768 417.0164 282.7018 416.3914 283.0158 415.6484 283.0158 414.7874L283.0158 399.5334C283.0158 398.6734 282.7018 397.9314 282.0768 397.3044 281.4498 396.6784 280.7068 396.3654 279.8478 396.3654L240.6568 396.3654 240.6568 388.9734 286.3008 388.9734C287.1608 388.9734 287.9038 388.6614 288.5298 388.0344 289.1558 387.4094 289.4688 386.6664 289.4688 385.8054L289.4688 369.2604C289.4688 368.4004 289.1558 367.6584 288.5298 367.0314 287.9038 366.4064 287.1608 366.0924 286.3008 366.0924L213.3168 366.0924C212.4558 366.0924 211.7128 366.4064 211.0878 367.0314 210.4608 367.6584 210.1488 368.4004 210.1488 369.2604L210.1488 445.0604C210.1488 445.9224 210.4608 446.6644 211.0878 447.2894 211.7128 447.9164 212.4558 448.2284 213.3168 448.2284L287.4738 448.2284C288.3348 448.2284 289.0768 447.9164 289.7038 447.2894 290.3288 446.6644 290.6428 445.9224 290.6428 445.0604L290.6428 428.5164C290.6428 427.6554 290.3288 426.9134 289.7038 426.2864 289.0768 425.6614 288.3348 425.3474 287.4738 425.3474L240.6568 425.3474 240.6568 417.9554zM83.1924 303.4343C83.1924 294.9863 79.9454 288.0633 73.4534 282.6653 66.9594 277.2683 58.1594 274.5693 47.0524 274.5693L3.1684 274.5693C2.3064 274.5693 1.5644 274.8823.9384 275.5083.3124 276.1353.0004 276.8783.0004 277.7373L.0004 353.5373C.0004 354.3983.3124 355.1413.9384 355.7663 1.5644 356.3943 2.3064 356.7053 3.1684 356.7053L28.3964 356.7053C29.2554 356.7053 29.9984 356.3943 30.6254 355.7663 31.2504 355.1413 31.5644 354.3983 31.5644 353.5373L31.5644 331.0083 47.0524 331.0083C60.1944 331.0083 69.5024 328.5263 74.9784 323.5573 80.4534 318.5903 83.1924 311.8823 83.1924 303.4343M52.6844 303.0823C52.6844 305.0383 52.1164 306.5643 50.9834 307.6583 49.8484 308.7553 48.3824 309.3013 46.5834 309.3013L31.6814 309.3013 31.6814 296.3943 46.5834 296.3943C48.4604 296.3943 49.9454 297.0213 51.0424 298.2713 52.1364 299.5243 52.6844 301.1273 52.6844 303.0823M135.9931 326.4324L175.1841 326.4324C176.0431 326.4324 176.7861 326.1204 177.4131 325.4934 178.0381 324.8684 178.3521 324.1254 178.3521 323.2644L178.3521 308.0104C178.3521 307.1504 178.0381 306.4084 177.4131 305.7814 176.7861 305.1554 176.0431 304.8424 175.1841 304.8424L135.9931 304.8424 135.9931 297.4504 181.6371 297.4504C182.4971 297.4504 183.2401 297.1384 183.8661 296.5114 184.4921 295.8864 184.8051 295.1434 184.8051 294.2824L184.8051 277.7374C184.8051 276.8774 184.4921 276.1354 183.8661 275.5084 183.2401 274.8834 182.4971 274.5694 181.6371 274.5694L108.6531 274.5694C107.7921 274.5694 107.0491 274.8834 106.4241 275.5084 105.7971 276.1354 105.4851 276.8774 105.4851 277.7374L105.4851 353.5374C105.4851 354.3994 105.7971 355.1414 106.4241 355.7664 107.0491 356.3934 107.7921 356.7054 108.6531 356.7054L182.8101 356.7054C183.6711 356.7054 184.4131 356.3934 185.0401 355.7664 185.6651 355.1414 185.9791 354.3994 185.9791 353.5374L185.9791 336.9934C185.9791 336.1324 185.6651 335.3904 185.0401 334.7634 184.4131 334.1384 183.6711 333.8244 182.8101 333.8244L135.9931 333.8244 135.9931 326.4324zM294.0453 322.6153L294.0453 308.6593C294.0453 297.2963 289.9973 288.7523 281.9003 283.0323 273.8053 277.3123 263.3033 274.4523 250.3963 274.4523 237.4893 274.4523 226.9873 277.3123 218.8903 283.0323 210.7943 288.7523 206.7463 297.3713 206.7463 308.8863L206.7463 322.3883C206.7463 330.3963 208.7003 337.0333 212.6133 342.2953 216.5243 347.5573 221.6483 351.2953 227.9843 353.5063 234.3203 355.7173 241.7903 356.8223 250.3963 356.8223 259.0003 356.8223 266.4713 355.7173 272.8073 353.5063 279.1433 351.2953 284.2663 347.5573 288.1783 342.2953 292.0893 337.0333 294.0453 330.4733 294.0453 322.6153zM262.3643 324.4013C262.3643 327.4333 261.2883 329.7823 259.1373 331.4473 256.9853 333.1113 254.0723 333.9423 250.3963 333.9423 246.7183 333.9423 243.8053 333.1303 241.6543 331.5023 239.5023 329.8753 238.4273 327.5453 238.4273 324.5133L238.4273 306.7623C238.4273 303.7293 239.5023 301.4013 241.6543 299.7733 243.8053 298.1463 246.7183 297.3333 250.3963 297.3333 254.0723 297.3333 256.9853 298.1653 259.1373 299.8303 261.2883 301.4943 262.3643 303.8413 262.3643 306.8743L262.3643 324.4013zM.939 183.985C.312 184.612 0 185.355 0 186.215L0 262.014C0 262.876.312 263.618.939 264.243 1.564 264.871 2.307 265.182 3.169 265.182L28.513 265.182C29.373 265.182 30.116 264.871 30.742 264.243 31.368 263.618 31.681 262.876 31.681 262.014L31.681 238.781 70.168 238.781C71.028 238.781 71.771 238.47 72.397 237.843 73.023 237.218 73.336 236.475 73.336 235.613L73.336 217.895C73.336 217.036 73.023 216.293 72.397 215.666 71.771 215.041 71.028 214.727 70.168 214.727L31.681 214.727 31.681 207.218 77.795 207.218C78.655 207.218 79.397 206.906 80.024 206.279 80.649 205.654 80.963 204.911 80.963 204.05L80.963 186.215C80.963 185.355 80.649 184.612 80.024 183.985 79.397 183.36 78.655 183.046 77.795 183.046L3.169 183.046C2.307 183.046 1.564 183.36.939 183.985M187.6215 230.4286L187.6215 186.1736C187.6215 185.3256 187.3075 184.5916 186.6825 183.9746 186.0555 183.3566 185.3135 183.0466 184.4535 183.0466L159.9295 183.0466C159.0685 183.0466 158.3255 183.3546 157.7005 183.9686 157.0735 184.5846 156.7615 185.3146 156.7615 186.1596L156.7615 232.0346C156.7615 235.1866 155.6855 237.6066 153.5355 239.2966 151.3825 240.9876 148.4695 241.8326 144.7935 241.8326 141.1155 241.8326 138.2025 240.9876 136.0515 239.2966 133.8995 237.6066 132.8255 235.1866 132.8255 232.0346L132.8255 186.1596C132.8255 185.3146 132.5115 184.5846 131.8865 183.9686 131.2595 183.3546 130.5165 183.0466 129.6575 183.0466L105.1335 183.0466C104.2715 183.0466 103.5295 183.3566 102.9045 183.9746 102.2775 184.5916 101.9655 185.3256 101.9655 186.1736L101.9655 230.4286C101.9655 242.4006 105.8175 251.2046 113.5235 256.8426 121.2275 262.4816 131.6515 265.2996 144.7935 265.2996 157.9355 265.2996 168.3585 262.4816 176.0635 256.8426 183.7675 251.2046 187.6215 242.4006 187.6215 230.4286M241.8302 186.2145C241.8302 185.3545 241.5162 184.6125 240.8912 183.9845 240.2642 183.3595 239.5222 183.0465 238.6622 183.0465L213.3172 183.0465C212.4552 183.0465 211.7132 183.3595 211.0882 183.9845 210.4612 184.6125 210.1492 185.3545 210.1492 186.2145L210.1492 262.0145C210.1492 262.8765 210.4612 263.6185 211.0882 264.2435 211.7132 264.8705 212.4552 265.1825 213.3172 265.1825L281.8422 265.1825C282.7022 265.1825 283.4452 264.8705 284.0712 264.2435 284.6972 263.6185 285.0102 262.8765 285.0102 262.0145L285.0102 244.2965C285.0102 243.4365 284.6972 242.6935 284.0712 242.0675 283.4452 241.4415 282.7022 241.1285 281.8422 241.1285L241.8302 241.1285 241.8302 186.2145zM85.6565 138.9056L85.6565 94.6506C85.6565 93.8026 85.3425 93.0686 84.7175 92.4516 84.0905 91.8336 83.3485 91.5236 82.4885 91.5236L57.9645 91.5236C57.1035 91.5236 56.3605 91.8316 55.7355 92.4456 55.1085 93.0616 54.7965 93.7916 54.7965 94.6366L54.7965 140.5116C54.7965 143.6636 53.7205 146.0836 51.5705 147.7736 49.4175 149.4636 46.5045 150.3096 42.8285 150.3096 39.1505 150.3096 36.2375 149.4636 34.0865 147.7736 31.9345 146.0836 30.8605 143.6636 30.8605 140.5116L30.8605 94.6366C30.8605 93.7916 30.5465 93.0616 29.9215 92.4456 29.2945 91.8316 28.5515 91.5236 27.6925 91.5236L3.1685 91.5236C2.3075 91.5236 1.5635 91.8336.9395 92.4516.3125 93.0686.0005 93.8026.0005 94.6506L.0005 138.9056C.0005 150.8776 3.8525 159.6816 11.5585 165.3196 19.2625 170.9586 29.6865 173.7766 42.8285 173.7766 55.9705 173.7766 66.3935 170.9586 74.0985 165.3196 81.8025 159.6816 85.6565 150.8776 85.6565 138.9056M102.0827 92.462C101.4557 93.089 101.1437 93.831 101.1437 94.692L101.1437 113.583C101.1437 114.445 101.4557 115.187 102.0827 115.812 102.7077 116.439 103.4507 116.751 104.3127 116.751L129.5397 116.751 129.5397 170.491C129.5397 171.353 129.8517 172.095 130.4777 172.721 131.1037 173.348 131.8457 173.659 132.7077 173.659L156.8787 173.659C157.7387 173.659 158.4817 173.348 159.1087 172.721 159.7337 172.095 160.0467 171.353 160.0467 170.491L160.0467 116.751 185.2747 116.751C186.1347 116.751 186.8777 116.439 187.5037 115.812 188.1297 115.187 188.4427 114.445 188.4427 113.583L188.4427 94.692C188.4427 93.831 188.1297 93.089 187.5037 92.462 186.8777 91.837 186.1347 91.523 185.2747 91.523L104.3127 91.523C103.4507 91.523 102.7077 91.837 102.0827 92.462M289.9385 114.6388C290.5635 114.0138 290.8775 113.2708 290.8775 112.4088L290.8775 94.6918C290.8775 93.8318 290.5635 93.0898 289.9385 92.4618 289.3115 91.8368 288.5695 91.5238 287.7085 91.5238L213.3175 91.5238C212.4555 91.5238 211.7135 91.8368 211.0885 92.4618 210.4605 93.0898 210.1495 93.8318 210.1495 94.6918L210.1495 112.4088C210.1495 113.2708 210.4605 114.0138 211.0885 114.6388 211.7135 115.2658 212.4555 115.5778 213.3175 115.5778L234.7905 115.5778 234.7905 149.6058 213.3175 149.6058C212.4555 149.6058 211.7135 149.9188 211.0885 150.5438 210.4605 151.1708 210.1495 151.9138 210.1495 152.7728L210.1495 170.4918C210.1495 171.3528 210.4605 172.0958 211.0885 172.7208 211.7135 173.3478 212.4555 173.6598 213.3175 173.6598L287.7085 173.6598C288.5695 173.6598 289.3115 173.3478 289.9385 172.7208 290.5635 172.0958 290.8775 171.3528 290.8775 170.4918L290.8775 152.7728C290.8775 151.9138 290.5635 151.1708 289.9385 150.5438 289.3115 149.9188 288.5695 149.6058 287.7085 149.6058L266.4705 149.6058 266.4705 115.5778 287.7085 115.5778C288.5695 115.5778 289.3115 115.2658 289.9385 114.6388M79.7897 34.2628C81.8227 31.6048 82.8407 28.3958 82.8407 24.6408L82.8407 24.2888C82.8407 16.1548 80.2007 10.0728 74.9207 6.0438 69.6397 2.0158 61.4447.0008 50.3377.0008L3.1687.0008C2.3067.0008 1.5647.3138.9397.9388.3117 1.5658.0007 2.3088.0007 3.1688L.0007 78.9688C.0007 79.8298.3117 80.5728.9397 81.1978 1.5647 81.8248 2.3067 82.1368 3.1687 82.1368L51.5117 82.1368C73.5707 82.1368 84.6007 73.5328 84.6007 56.3228 84.6007 52.2558 83.5047 48.6368 81.3147 45.4688 79.1237 42.3008 76.5047 40.2468 73.4537 39.3088 75.6427 38.6038 77.7547 36.9228 79.7897 34.2628zM51.0427 25.3458C51.0427 26.7538 50.6317 28.0258 49.8107 29.1588 48.9887 30.2938 47.7957 30.8608 46.2317 30.8608L30.5077 30.8608 30.5077 20.1828 46.2317 20.1828C47.7957 20.1828 48.9887 20.6918 49.8107 21.7078 50.6317 22.7248 51.0427 23.9378 51.0427 25.3458zM52.9197 56.0878C52.9197 57.5748 52.4687 58.9238 51.5697 60.1358 50.6697 61.3488 49.3207 61.9548 47.5217 61.9548L30.5077 61.9548 30.5077 50.4558 47.5217 50.4558C49.1647 50.4558 50.4737 51.0038 51.4527 52.0978 52.4297 53.1948 52.9197 54.4858 52.9197 55.9708L52.9197 56.0878zM135.9931 51.8634L175.1841 51.8634C176.0431 51.8634 176.7861 51.5514 177.4131 50.9244 178.0381 50.2994 178.3521 49.5564 178.3521 48.6954L178.3521 33.4414C178.3521 32.5814 178.0381 31.8394 177.4131 31.2124 176.7861 30.5864 176.0431 30.2734 175.1841 30.2734L135.9931 30.2734 135.9931 22.8814 181.6371 22.8814C182.4971 22.8814 183.2401 22.5694 183.8661 21.9424 184.4921 21.3174 184.8051 20.5744 184.8051 19.7134L184.8051 3.1684C184.8051 2.3084 184.4921 1.5664 183.8661.9394 183.2401.3144 182.4971.0004 181.6371.0004L108.6531.0004C107.7921.0004 107.0491.3144 106.4241.9394 105.7971 1.5664 105.4851 2.3084 105.4851 3.1684L105.4851 78.9684C105.4851 79.8304 105.7971 80.5724 106.4241 81.1974 107.0491 81.8244 107.7921 82.1364 108.6531 82.1364L182.8101 82.1364C183.6711 82.1364 184.4131 81.8244 185.0401 81.1974 185.6651 80.5724 185.9791 79.8304 185.9791 78.9684L185.9791 62.4244C185.9791 61.5634 185.6651 60.8214 185.0401 60.1944 184.4131 59.5694 183.6711 59.2554 182.8101 59.2554L135.9931 59.2554 135.9931 51.8634zM297.8001 79.907C297.8001 79.438 297.7601 79.085 297.6831 78.851L272.1031 3.873C271.3991 1.291 269.6391 0 266.8231 0L234.2031 0C231.3871 0 229.6271 1.291 228.9231 3.873L203.3441 78.851C203.2651 79.085 203.2261 79.438 203.2261 79.907 203.2261 80.376 203.4791 80.866 203.9891 81.374 204.4971 81.883 205.1041 82.137 205.8071 82.137L227.9841 82.137C230.4871 82.137 232.2471 80.807 233.2651 78.147L236.1981 69.933 264.8291 69.933 267.7621 78.147C268.7771 80.807 270.5381 82.137 273.0421 82.137L295.2181 82.137C295.9231 82.137 296.5281 81.883 297.0381 81.374 297.5451 80.866 297.8001 80.376 297.8001 79.907zM258.8441 47.053L242.1821 47.053 250.5131 22.646 258.8441 47.053z"/>
    <path fill="#00FF00" d="M90.2828 394.9573C88.0188 386.5093 82.9168 379.5863 74.9788 374.1883 67.0388 368.7913 57.5148 366.0923 46.4088 366.0923L2.5248 366.0923C1.6628 366.0923 1.0038 366.4063.5468 367.0313.0878 367.6583-.0252 368.4013.2058 369.2603L20.5158 445.0603C20.7468 445.9213 21.2578 446.6643 22.0518 447.2893 22.8448 447.9173 23.6708 448.2283 24.5328 448.2283L49.7608 448.2283C50.6198 448.2283 51.2788 447.9173 51.7378 447.2893 52.1958 446.6643 52.3098 445.9213 52.0798 445.0603L46.0428 422.5313 61.5318 422.5313C74.6738 422.5313 83.3168 420.0493 87.4608 415.0803 91.6048 410.1143 92.5468 403.4053 90.2828 394.9573M59.6808 394.6053C60.2048 396.5613 60.0458 398.0873 59.2058 399.1813 58.3648 400.2783 57.0448 400.8243 55.2458 400.8243L40.3438 400.8243 36.8848 387.9173 51.7868 387.9173C53.6648 387.9173 55.3178 388.5443 56.7488 389.7943 58.1788 391.0473 59.1568 392.6503 59.6808 394.6053M137.3714 369.2605C137.1414 368.4005 136.6284 367.6585 135.8354 367.0305 135.0404 366.4055 134.2144 366.0925 133.3544 366.0925L108.0094 366.0925C107.1474 366.0925 106.4894 366.4055 106.0314 367.0305 105.5724 367.6585 105.4594 368.4005 105.6904 369.2605L126.0004 445.0605C126.2314 445.9225 126.7424 446.6645 127.5374 447.2895 128.3304 447.9165 129.1564 448.2285 130.0184 448.2285L198.5434 448.2285C199.4024 448.2285 200.0614 447.9165 200.5204 447.2895 200.9784 446.6645 201.0934 445.9225 200.8624 445.0605L196.1144 427.3425C195.8844 426.4825 195.3714 425.7395 194.5784 425.1135 193.7844 424.4875 192.9574 424.1745 192.0974 424.1745L152.0854 424.1745 137.3714 369.2605zM253.9095 417.9554L293.1005 417.9554C293.9595 417.9554 294.6185 417.6434 295.0785 417.0164 295.5355 416.3914 295.6505 415.6484 295.4195 414.7874L291.3315 399.5334C291.1015 398.6734 290.5895 397.9314 289.7965 397.3044 289.0015 396.6784 288.1745 396.3654 287.3155 396.3654L248.1245 396.3654 246.1435 388.9734 291.7885 388.9734C292.6475 388.9734 293.3065 388.6614 293.7655 388.0344 294.2235 387.4094 294.3385 386.6664 294.1075 385.8054L289.6745 369.2604C289.4435 368.4004 288.9315 367.6584 288.1375 367.0314 287.3435 366.4064 286.5175 366.0924 285.6575 366.0924L212.6735 366.0924C211.8115 366.0924 211.1535 366.4064 210.6955 367.0314 210.2365 367.6584 210.1235 368.4004 210.3535 369.2604L230.6645 445.0604C230.8955 445.9224 231.4055 446.6644 232.2005 447.2894 232.9935 447.9164 233.8195 448.2284 234.6815 448.2284L308.8385 448.2284C309.6985 448.2284 310.3575 447.9164 310.8165 447.2894 311.2745 446.6644 311.3885 445.9224 311.1575 445.0604L306.7245 428.5164C306.4945 427.6554 305.9815 426.9134 305.1885 426.2864 304.3945 425.6614 303.5675 425.3474 302.7075 425.3474L255.8905 425.3474 253.9095 417.9554zM96.8224 303.4343C99.0864 294.9863 97.6944 288.0633 92.6484 282.6653 87.6004 277.2683 79.5234 274.5693 68.4164 274.5693L24.5324 274.5693C23.6714 274.5693 22.8444 274.8823 22.0514 275.5083 21.2564 276.1353 20.7464 276.8783 20.5164 277.7373L.2054 353.5373C-.0256 354.3983.0874 355.1413.5464 355.7663 1.0034 356.3943 1.6624 356.7053 2.5244 356.7053L27.7524 356.7053C28.6114 356.7053 29.4374 356.3943 30.2324 355.7663 31.0254 355.1413 31.5384 354.3983 31.7684 353.5373L37.8054 331.0083 53.2944 331.0083C66.4364 331.0083 76.4094 328.5263 83.2164 323.5573 90.0224 318.5903 94.5584 311.8823 96.8224 303.4343M66.4094 303.0823C65.8844 305.0383 64.9074 306.5643 63.4814 307.6583 62.0534 308.7553 60.4404 309.3013 58.6414 309.3013L43.7394 309.3013 47.1974 296.3943 62.0994 296.3943C63.9764 296.3943 65.2944 297.0213 66.0554 298.2713 66.8144 299.5243 66.9324 301.1273 66.4094 303.0823M143.4607 326.4324L182.6517 326.4324C183.5107 326.4324 184.3367 326.1204 185.1327 325.4934 185.9257 324.8684 186.4377 324.1254 186.6677 323.2644L190.7557 308.0104C190.9857 307.1504 190.8717 306.4084 190.4147 305.7814 189.9547 305.1554 189.2957 304.8424 188.4367 304.8424L149.2457 304.8424 151.2267 297.4504 196.8707 297.4504C197.7307 297.4504 198.5567 297.1384 199.3517 296.5114 200.1437 295.8864 200.6567 295.1434 200.8877 294.2824L205.3207 277.7374C205.5517 276.8774 205.4367 276.1354 204.9797 275.5084 204.5197 274.8834 203.8617 274.5694 203.0017 274.5694L130.0177 274.5694C129.1557 274.5694 128.3297 274.8834 127.5367 275.5084 126.7417 276.1354 126.2307 276.8774 126.0007 277.7374L105.6907 353.5374C105.4597 354.3994 105.5717 355.1414 106.0317 355.7664 106.4887 356.3934 107.1477 356.7054 108.0097 356.7054L182.1667 356.7054C183.0267 356.7054 183.8527 356.3934 184.6477 355.7664 185.4407 355.1414 185.9527 354.3994 186.1837 353.5374L190.6167 336.9934C190.8477 336.1324 190.7327 335.3904 190.2757 334.7634 189.8157 334.1384 189.1577 333.8244 188.2977 333.8244L141.4797 333.8244 143.4607 326.4324zM302.5357 322.6153L306.2747 308.6593C309.3197 297.2963 307.5607 288.7523 300.9977 283.0323 294.4337 277.3123 284.6987 274.4523 271.7917 274.4523 258.8847 274.4523 247.6167 277.3123 237.9877 283.0323 228.3587 288.7523 222.0007 297.3713 218.9157 308.8863L215.2977 322.3883C213.1517 330.3963 213.3277 337.0333 215.8307 342.2953 218.3307 347.5573 222.4537 351.2953 228.1977 353.5063 233.9417 355.7173 241.1147 356.8223 249.7207 356.8223 258.3247 356.8223 266.0917 355.7173 273.0207 353.5063 279.9487 351.2953 286.0737 347.5573 291.3957 342.2953 296.7157 337.0333 300.4297 330.4733 302.5357 322.6153zM270.3757 324.4013C269.5637 327.4333 267.8577 329.7823 265.2617 331.4473 262.6627 333.1113 259.5277 333.9423 255.8517 333.9423 252.1737 333.9423 249.4777 333.1303 247.7637 331.5023 246.0467 329.8753 245.5967 327.5453 246.4097 324.5133L251.1657 306.7623C251.9777 303.7293 253.6767 301.4013 256.2657 299.7733 258.8517 298.1463 261.9827 297.3333 265.6607 297.3333 269.3367 297.3333 272.0267 298.1653 273.7327 299.8303 275.4377 301.4943 275.8847 303.8413 275.0727 306.8743L270.3757 324.4013zM.5309 183.985C.0719 184.612-.0411 185.355.1899 186.215L20.4999 262.014C20.7309 262.876 21.2419 263.618 22.0359 264.243 22.8289 264.871 23.6549 265.182 24.5169 265.182L49.8619 265.182C50.7219 265.182 51.3809 264.871 51.8399 264.243 52.2969 263.618 52.4119 262.876 52.1809 262.014L45.9559 238.781 84.4419 238.781C85.3029 238.781 85.9619 238.47 86.4199 237.843 86.8779 237.218 86.9929 236.475 86.7619 235.613L82.0139 217.895C81.7839 217.036 81.2709 216.293 80.4779 215.666 79.6839 215.041 78.8569 214.727 77.9969 214.727L39.5109 214.727 37.4989 207.218 83.6119 207.218C84.4719 207.218 85.1309 206.906 85.5899 206.279 86.0469 205.654 86.1619 204.911 85.9309 204.05L81.1519 186.215C80.9219 185.355 80.4089 184.612 79.6159 183.985 78.8219 183.36 77.9949 183.046 77.1349 183.046L2.5089 183.046C1.6469 183.046.9889 183.36.5309 183.985M199.6578 230.4286L187.7998 186.1736C187.5728 185.3256 187.0618 184.5916 186.2718 183.9746 185.4788 183.3566 184.6538 183.0466 183.7938 183.0466L159.2698 183.0466C158.4088 183.0466 157.7488 183.3546 157.2878 183.9686 156.8258 184.5846 156.7098 185.3146 156.9358 186.1596L169.2288 232.0346C170.0728 235.1866 169.6458 237.6066 167.9478 239.2966 166.2478 240.9876 163.5618 241.8326 159.8848 241.8326 156.2078 241.8326 153.0678 240.9876 150.4638 239.2966 147.8588 237.6066 146.1358 235.1866 145.2918 232.0346L132.9998 186.1596C132.7728 185.3146 132.2638 184.5846 131.4738 183.9686 130.6818 183.3546 129.8568 183.0466 128.9978 183.0466L104.4738 183.0466C103.6118 183.0466 102.9518 183.3566 102.4928 183.9746 102.0318 184.5916 101.9158 185.3256 102.1438 186.1736L114.0018 230.4286C117.2098 242.4006 123.4208 251.2046 132.6368 256.8426 141.8518 262.4816 153.0318 265.2996 166.1728 265.2996 179.3158 265.2996 188.9828 262.4816 195.1778 256.8426 201.3708 251.2046 202.8658 242.4006 199.6578 230.4286M242.0194 186.2144C241.7894 185.3544 241.2764 184.6124 240.4834 183.9844 239.6884 183.3594 238.8624 183.0464 238.0024 183.0464L212.6574 183.0464C211.7954 183.0464 211.1374 183.3594 210.6794 183.9844 210.2214 184.6124 210.1074 185.3544 210.3384 186.2144L230.6484 262.0144C230.8794 262.8764 231.3904 263.6184 232.1854 264.2434 232.9784 264.8704 233.8044 265.1824 234.6664 265.1824L303.1914 265.1824C304.0504 265.1824 304.7094 264.8704 305.1684 264.2434 305.6264 263.6184 305.7414 262.8764 305.5104 262.0144L300.7624 244.2964C300.5324 243.4364 300.0194 242.6934 299.2264 242.0674 298.4324 241.4414 297.6054 241.1284 296.7454 241.1284L256.7334 241.1284 242.0194 186.2144zM94.3405 138.9056L106.1985 94.6506C106.4255 93.8026 106.3085 93.0686 105.8495 92.4516 105.3875 91.8336 104.7285 91.5236 103.8685 91.5236L79.3445 91.5236C78.4835 91.5236 77.6585 91.8316 76.8685 92.4456 76.0765 93.0616 75.5695 93.7916 75.3425 94.6366L63.0505 140.5116C62.2055 143.6636 60.4815 146.0836 57.8775 147.7736 55.2725 149.4636 52.1335 150.3096 48.4565 150.3096 44.7795 150.3096 42.0925 149.4636 40.3945 147.7736 38.6955 146.0836 38.2695 143.6636 39.1135 140.5116L51.4065 94.6366C51.6325 93.7916 51.5145 93.0616 51.0545 92.4456 50.5915 91.8316 49.9315 91.5236 49.0725 91.5236L24.5485 91.5236C23.6865 91.5236 22.8605 91.8336 22.0705 92.4516 21.2775 93.0686 20.7695 93.8026 20.5425 94.6506L8.6845 138.9056C5.4765 150.8776 6.9695 159.6816 13.1645 165.3196 19.3575 170.9586 29.0265 173.7766 42.1685 173.7766 55.3105 173.7766 66.4885 170.9586 75.7055 165.3196 84.9195 159.6816 91.1325 150.8776 94.3405 138.9056M123.2112 92.462C122.4162 93.089 121.9052 93.831 121.6752 94.692L116.6132 113.583C116.3822 114.445 116.4952 115.187 116.9542 115.812 117.4122 116.439 118.0712 116.751 118.9322 116.751L144.1602 116.751 129.7602 170.491C129.5292 171.353 129.6422 172.095 130.1012 172.721 130.5582 173.348 131.2172 173.659 132.0792 173.659L156.2512 173.659C157.1102 173.659 157.9362 173.348 158.7322 172.721 159.5252 172.095 160.0372 171.353 160.2672 170.491L174.6672 116.751 199.8952 116.751C200.7552 116.751 201.5812 116.439 202.3762 115.812 203.1692 115.187 203.6812 114.445 203.9122 113.583L208.9742 94.692C209.2042 93.831 209.0902 93.089 208.6322 92.462 208.1732 91.837 207.5142 91.523 206.6542 91.523L125.6922 91.523C124.8302 91.523 124.0042 91.837 123.2112 92.462M305.1247 114.6388C305.9177 114.0138 306.4297 113.2708 306.6607 112.4088L311.4087 94.6918C311.6387 93.8318 311.5237 93.0898 311.0667 92.4618 310.6067 91.8368 309.9497 91.5228 309.0887 91.5228L234.6967 91.5228C233.8357 91.5228 233.0097 91.8368 232.2167 92.4618 231.4207 93.0898 230.9107 93.8318 230.6807 94.6918L225.9327 112.4088C225.7017 113.2708 225.8147 114.0138 226.2747 114.6388 226.7317 115.2658 227.3907 115.5778 228.2517 115.5778L249.7247 115.5778 240.6067 149.6058 219.1337 149.6058C218.2727 149.6058 217.4467 149.9188 216.6537 150.5438 215.8577 151.1708 215.3477 151.9138 215.1177 152.7728L210.3697 170.4918C210.1387 171.3528 210.2517 172.0958 210.7117 172.7208 211.1687 173.3478 211.8277 173.6598 212.6887 173.6598L287.0807 173.6598C287.9407 173.6598 288.7667 173.3478 289.5617 172.7208 290.3547 172.0958 290.8667 171.3528 291.0977 170.4918L295.8457 152.7728C296.0757 151.9138 295.9607 151.1708 295.5037 150.5438 295.0437 149.9188 294.3857 149.6058 293.5257 149.6058L272.2877 149.6058 281.4057 115.5778 302.6437 115.5778C303.5037 115.5778 304.3297 115.2658 305.1247 114.6388M88.3263 34.2628C89.6473 31.6048 89.8053 28.3958 88.7993 24.6408L88.7043 24.2888C86.5253 16.1548 82.2553 10.0728 75.8953 6.0438 69.5363 2.0158 60.8013.0008 49.6943.0008L2.5243.0008C1.6633.0008 1.0043.3138.5463.9388.0873 1.5658-.0247 2.3088.2053 3.1688L20.5153 78.9688C20.7463 79.8298 21.2573 80.5728 22.0523 81.1978 22.8453 81.8248 23.6713 82.1368 24.5323 82.1368L72.8753 82.1368C94.9353 82.1368 103.6593 73.5328 99.0473 56.3228 97.9583 52.2558 95.8923 48.6368 92.8543 45.4688 89.8143 42.3008 86.6443 40.2468 83.3423 39.3088 85.3423 38.6038 87.0043 36.9228 88.3263 34.2628zM57.1893 25.3458C57.5673 26.7538 57.4963 28.0258 56.9793 29.1588 56.4613 30.2938 55.4203 30.8608 53.8563 30.8608L38.1333 30.8608 35.2723 20.1828 50.9953 20.1828C52.5593 20.1828 53.8893 20.6918 54.9823 21.7078 56.0763 22.7248 56.8123 23.9378 57.1893 25.3458zM67.3043 56.0878C67.7023 57.5748 67.6123 58.9238 67.0393 60.1358 66.4643 61.3488 65.2773 61.9548 63.4783 61.9548L46.4643 61.9548 43.3833 50.4558 60.3973 50.4558C62.0403 50.4558 63.4963 51.0038 64.7683 52.0978 66.0393 53.1948 66.8753 54.4858 67.2723 55.9708L67.3043 56.0878zM149.2458 51.8634L188.4368 51.8634C189.2958 51.8634 189.9548 51.5514 190.4148 50.9244 190.8718 50.2994 190.9868 49.5564 190.7558 48.6954L186.6678 33.4414C186.4378 32.5814 185.9258 31.8394 185.1328 31.2124 184.3378 30.5864 183.5108 30.2734 182.6518 30.2734L143.4608 30.2734 141.4798 22.8814 187.1248 22.8814C187.9838 22.8814 188.6428 22.5694 189.1018 21.9424 189.5598 21.3174 189.6748 20.5754 189.4438 19.7134L185.0108 3.1684C184.7798 2.3084 184.2678 1.5664 183.4738.9394 182.6798.3144 181.8538.0004 180.9938.0004L108.0098.0004C107.1478.0004 106.4898.3144 106.0318.9394 105.5728 1.5664 105.4598 2.3084 105.6898 3.1684L126.0008 78.9684C126.2318 79.8304 126.7418 80.5724 127.5368 81.1974 128.3298 81.8244 129.1558 82.1364 130.0178 82.1364L204.1748 82.1364C205.0348 82.1364 205.6938 81.8244 206.1528 81.1974 206.6108 80.5724 206.7248 79.8304 206.4938 78.9684L202.0608 62.4244C201.8308 61.5634 201.3178 60.8214 200.5248 60.1944 199.7308 59.5694 198.9038 59.2554 198.0438 59.2554L151.2268 59.2554 149.2458 51.8634zM318.567 79.907C318.441 79.438 318.307 79.085 318.167 78.851L272.497 3.873C271.101 1.291 268.995 0 266.179 0L233.56 0C230.743 0 229.329 1.291 229.317 3.873L223.828 78.851C223.812 79.085 223.868 79.438 223.993 79.907 224.119 80.376 224.503 80.866 225.149 81.374 225.793 81.883 226.468 82.137 227.172 82.137L249.349 82.137C251.852 82.137 253.255 80.807 253.56 78.147L254.292 69.933 282.923 69.933 288.057 78.147C289.785 80.807 291.902 82.137 294.406 82.137L316.583 82.137C317.287 82.137 317.824 81.883 318.198 81.374 318.569 80.866 318.693 80.376 318.567 79.907zM270.808 47.053L254.146 47.053 255.937 22.646 270.808 47.053z"/>
  </g>
</svg>
