<svg viewBox="0 0 768.85 1418.52" xmlns="http://www.w3.org/2000/svg"><g fill="#020000"><path d="m2.66 208.93h83.48c16.49 0 36.16-.3 50.26-11.88 13-10.66 18.61-30.76 18.61-48.73 0-25-14.36-43.25-35.37-47.51v-.61c18.62-4.87 30.85-23.45 30.85-45.38 0-17-7.18-34.11-19.41-44.16-11.44-9.44-25.53-10.66-39.35-10.66h-89.07zm51.34-46.6v-37.76h22c5 0 11.43 0 16.22 2.74 5.32 3 8.77 9.44 8.77 16.44a19.41 19.41 0 0 1 -6.64 14.62c-4.52 4.27-10.64 4-16.22 4zm0-82.23v-35.33h21.8c10.64 0 21.81 2.13 21.81 17.66a20.33 20.33 0 0 1 -5.32 13.71c-4 4.26-10.37 4-15.69 4z"/><path d="m149.69 302.4h-43.87v127.92c0 9.74.8 20.71-6.38 27.71-4.79 4.87-12.76 7-19.15 7-7.17 0-15.68-2.75-19.94-9.45-3.72-6.39-3.45-15.83-3.45-22.84v-130.34h-56.9v137.66c0 25 3.72 44.77 23.13 59.39 14.09 10.66 35.9 14.92 52.64 14.92 19.15 0 38.29-3.65 54-17.66 17.55-16.14 19.94-35.63 19.94-60v-134.31z"/><path d="m132.14 735.46v-46.91h-59.29v-34.11h77.37v-49.64h-131.88v208.93h54.51v-78.27z"/><path d="m58.76 1040.29h28.45c17.54 0 35.62-3 49.72-16.14 13.56-12.49 20.2-31.37 20.2-51.17 0-22.54-10.1-43.25-27.12-54.82-15.68-10.36-35.62-11-53.44-11h-74.44v208.92h56.63v-75.83zm0-44.77v-40.52h16.24c12.76 0 26.59 1.52 26.59 20.1 0 19.49-15.43 20.41-28.19 20.41z"/><path d="m58.76 1342.69h28.45c17.54 0 35.62-3 49.72-16.14 13.56-12.48 20.2-31.37 20.2-51.17 0-22.54-10.1-43.25-27.12-54.82-15.68-10.36-35.62-11-53.44-11h-74.44v208.92h56.63v-75.83zm0-44.77v-40.51h16.24c12.76 0 26.59 1.52 26.59 20.1 0 19.49-15.43 20.41-28.19 20.41z"/><path d="m449.43 158.98h-82.16v-33.81h66.47v-46.59h-66.47v-30.46h82.16v-48.12h-136.93v208.93h136.93z"/><path d="m405.03 352.65h37.48v-50.25h-128.94v50.25h38.28v158.68h53.18z"/><path d="m452.09 604.8h-43.87v127.92c0 9.74.8 20.71-6.38 27.71-4.79 4.87-12.76 7-19.14 7-7.18 0-15.69-2.75-19.95-9.45-3.72-6.39-3.45-15.83-3.45-22.84v-130.34h-56.9v137.66c0 25 3.72 44.77 23.13 59.39 14.09 10.66 35.89 14.92 52.65 14.92 19.14 0 38.28-3.65 54-17.66 17.55-16.14 19.94-35.63 19.94-60v-134.31z"/><path d="m449.43 1066.18h-82.16v-33.8h66.47v-46.61h-66.47v-30.44h82.16v-48.12h-136.93v208.92h136.93z"/><path d="m450.23 1367.37h-71.52v-157.76h-56.37v208.92h127.89z"/><path d="m711.15 208.93h57.16l-57.16-208.93h-59l-56.66 208.93h45.51l11.17-41.12h48.65l10.37 41.12zm-49.72-86.8 14.89-60.61 14.89 60.61z"/><path d="m709.82 302.4h-56.36v208.93h56.36z"/><path d="m752.63 762.56h-71.52v-157.76h-56.37v208.93h127.89z"/><path d="m681.64 904.15c-55.57 0-87.21 45.68-87.21 108.12 0 59.39 31.91 106.91 87.21 106.91s87.21-47.52 87.21-106.91c0-62.44-31.64-108.12-87.21-108.12zm0 47.21c24.72 0 27.38 40.81 27.38 61.21 0 20.1-1.86 58.78-27.38 58.78s-27.39-38.68-27.39-58.78c0-20.4 2.66-61.21 27.39-61.21z"/><path d="m751.83 1368.59h-82.16v-33.81h66.47v-46.61h-66.47v-30.45h82.16v-48.11h-136.93v208.92h136.93z"/></g></svg>