<svg id="Layer_1" data-name="Layer 1" xmlns="http://www.w3.org/2000/svg" viewBox="0 0 768.85 1418.52"><defs><style>.cls-1{fill:#020000;}</style></defs><title>3st-BLK PTY-beautiful people logo-180629-uu</title><path class="cls-1" d="M2.66,208.93H86.14c16.49,0,36.16-.3,50.26-11.88,13-10.66,18.61-30.76,18.61-48.73,0-25-14.36-43.25-35.37-47.51v-.61c18.62-4.87,30.85-23.45,30.85-45.38,0-17-7.18-34.11-19.41-44.16C119.64,1.22,105.55,0,91.73,0H2.66V208.93ZM54,162.33V124.57H76c5,0,11.43,0,16.22,2.74,5.32,3,8.77,9.44,8.77,16.44a19.41,19.41,0,0,1-6.64,14.62c-4.52,4.27-10.64,4-16.22,4ZM54,80.1V44.77h21.8c10.64,0,21.81,2.13,21.81,17.66a20.33,20.33,0,0,1-5.32,13.71c-4,4.26-10.37,4-15.69,4Z"/><path class="cls-1" d="M149.69,302.4H105.82V430.32c0,9.74.8,20.71-6.38,27.71-4.79,4.87-12.76,7-19.15,7-7.17,0-15.68-2.75-19.94-9.45-3.72-6.39-3.45-15.83-3.45-22.84V302.4H0V440.06c0,25,3.72,44.77,23.13,59.39,14.09,10.66,35.9,14.92,52.64,14.92,19.15,0,38.29-3.65,54-17.66,17.55-16.14,19.94-35.63,19.94-60V302.4Z"/><polygon class="cls-1" points="132.14 735.46 132.14 688.55 72.85 688.55 72.85 654.44 150.22 654.44 150.22 604.8 18.34 604.8 18.34 813.73 72.85 813.73 72.85 735.46 132.14 735.46 132.14 735.46"/><path class="cls-1" d="M58.76,1040.29H87.21c17.54,0,35.62-3,49.72-16.14,13.56-12.49,20.2-31.37,20.2-51.17,0-22.54-10.1-43.25-27.12-54.82-15.68-10.36-35.62-11-53.44-11H2.13v208.92H58.76v-75.83Zm0-44.77V955H75c12.76,0,26.59,1.52,26.59,20.1,0,19.49-15.43,20.41-28.19,20.41Z"/><path class="cls-1" d="M58.76,1342.69H87.21c17.54,0,35.62-3,49.72-16.14,13.56-12.48,20.2-31.37,20.2-51.17,0-22.54-10.1-43.25-27.12-54.82-15.68-10.36-35.62-11-53.44-11H2.13v208.92H58.76v-75.83Zm0-44.77v-40.51H75c12.76,0,26.59,1.52,26.59,20.1,0,19.49-15.43,20.41-28.19,20.41Z"/><polygon class="cls-1" points="449.43 158.98 367.27 158.98 367.27 125.17 433.74 125.17 433.74 78.58 367.27 78.58 367.27 48.12 449.43 48.12 449.43 0 312.5 0 312.5 208.93 449.43 208.93 449.43 158.98 449.43 158.98"/><polygon class="cls-1" points="405.03 352.65 442.51 352.65 442.51 302.4 313.57 302.4 313.57 352.65 351.85 352.65 351.85 511.33 405.03 511.33 405.03 352.65 405.03 352.65"/><path class="cls-1" d="M452.09,604.8H408.22V732.72c0,9.74.8,20.71-6.38,27.71-4.79,4.87-12.76,7-19.14,7-7.18,0-15.69-2.75-19.95-9.45-3.72-6.39-3.45-15.83-3.45-22.84V604.8H302.4V742.46c0,25,3.72,44.77,23.13,59.39,14.09,10.66,35.89,14.92,52.65,14.92,19.14,0,38.28-3.65,54-17.66,17.55-16.14,19.94-35.63,19.94-60V604.8Z"/><polygon class="cls-1" points="449.43 1066.18 367.27 1066.18 367.27 1032.38 433.74 1032.38 433.74 985.77 367.27 985.77 367.27 955.33 449.43 955.33 449.43 907.21 312.5 907.21 312.5 1116.13 449.43 1116.13 449.43 1066.18 449.43 1066.18"/><polygon class="cls-1" points="450.23 1367.37 378.71 1367.37 378.71 1209.61 322.34 1209.61 322.34 1418.53 450.23 1418.53 450.23 1367.37 450.23 1367.37"/><path class="cls-1" d="M711.15,208.93h57.16L711.15,0h-59L595.49,208.93H641l11.17-41.12h48.65l10.37,41.12Zm-49.72-86.8,14.89-60.61,14.89,60.61Z"/><polygon class="cls-1" points="709.82 302.4 653.46 302.4 653.46 511.33 709.82 511.33 709.82 302.4 709.82 302.4"/><polygon class="cls-1" points="752.63 762.56 681.11 762.56 681.11 604.8 624.74 604.8 624.74 813.73 752.63 813.73 752.63 762.56 752.63 762.56"/><path class="cls-1" d="M681.64,904.15c-55.57,0-87.21,45.68-87.21,108.12,0,59.39,31.91,106.91,87.21,106.91s87.21-47.52,87.21-106.91c0-62.44-31.64-108.12-87.21-108.12Zm0,47.21c24.72,0,27.38,40.81,27.38,61.21,0,20.1-1.86,58.78-27.38,58.78s-27.39-38.68-27.39-58.78c0-20.4,2.66-61.21,27.39-61.21Z"/><polygon class="cls-1" points="751.83 1368.59 669.67 1368.59 669.67 1334.78 736.14 1334.78 736.14 1288.17 669.67 1288.17 669.67 1257.72 751.83 1257.72 751.83 1209.61 614.9 1209.61 614.9 1418.53 751.83 1418.53 751.83 1368.59 751.83 1368.59"/></svg>